<svg width="867" height="281" viewBox="0 0 867 281" fill="none" xmlns="http://www.w3.org/2000/svg">
<rect width="867" height="281" fill="white"/>
<path d="M831 141H37" stroke="#024D36" stroke-width="6" stroke-linecap="round"/>
<path d="M26.7752 110.855C26.7525 110.626 26.6549 110.448 26.4826 110.321C26.3103 110.194 26.0763 110.131 25.7809 110.131C25.5801 110.131 25.4106 110.159 25.2724 110.216C25.1341 110.271 25.0281 110.348 24.9542 110.446C24.8822 110.545 24.8462 110.656 24.8462 110.781C24.8424 110.885 24.8642 110.976 24.9116 111.054C24.9608 111.132 25.0281 111.199 25.1133 111.256C25.1985 111.311 25.297 111.359 25.4087 111.401C25.5205 111.44 25.6398 111.474 25.7667 111.503L26.2894 111.628C26.5432 111.685 26.7762 111.76 26.9883 111.855C27.2004 111.95 27.3841 112.066 27.5394 112.205C27.6947 112.343 27.815 112.506 27.9002 112.693C27.9873 112.881 28.0318 113.096 28.0337 113.338C28.0318 113.694 27.9409 114.003 27.761 114.264C27.583 114.524 27.3254 114.725 26.9883 114.869C26.6531 115.011 26.2487 115.082 25.7752 115.082C25.3055 115.082 24.8964 115.01 24.5479 114.866C24.2013 114.723 23.9305 114.509 23.7354 114.227C23.5423 113.943 23.4409 113.592 23.4315 113.173H24.6218C24.6351 113.368 24.6909 113.531 24.7894 113.662C24.8898 113.791 25.0233 113.888 25.19 113.955C25.3585 114.019 25.5489 114.051 25.761 114.051C25.9693 114.051 26.1502 114.021 26.3036 113.96C26.4589 113.9 26.5792 113.815 26.6644 113.707C26.7496 113.599 26.7923 113.475 26.7923 113.335C26.7923 113.205 26.7534 113.095 26.6758 113.006C26.6 112.917 26.4883 112.841 26.3406 112.778C26.1947 112.716 26.0157 112.659 25.8036 112.608L25.1701 112.449C24.6796 112.33 24.2923 112.143 24.0082 111.889C23.7241 111.635 23.583 111.294 23.5849 110.864C23.583 110.511 23.6767 110.204 23.8661 109.94C24.0574 109.677 24.3197 109.472 24.6531 109.324C24.9864 109.176 25.3652 109.102 25.7894 109.102C26.2212 109.102 26.5981 109.176 26.9201 109.324C27.244 109.472 27.4959 109.677 27.6758 109.94C27.8557 110.204 27.9485 110.509 27.9542 110.855H26.7752ZM31.6367 113.142V110.636H32.8469V115H31.685V114.207H31.6396C31.5411 114.463 31.3772 114.669 31.1481 114.824C30.9208 114.979 30.6433 115.057 30.3157 115.057C30.024 115.057 29.7674 114.991 29.5458 114.858C29.3242 114.725 29.1509 114.537 29.0259 114.293C28.9028 114.048 28.8403 113.756 28.8384 113.415V110.636H30.0487V113.199C30.0505 113.456 30.1197 113.66 30.256 113.81C30.3924 113.959 30.5752 114.034 30.8043 114.034C30.9502 114.034 31.0865 114.001 31.2134 113.935C31.3403 113.866 31.4426 113.766 31.5202 113.634C31.5998 113.501 31.6386 113.337 31.6367 113.142ZM35.0252 112.477V115H33.815V110.636H34.9684V111.406H35.0195C35.1161 111.152 35.2781 110.952 35.5053 110.804C35.7326 110.654 36.0082 110.58 36.332 110.58C36.6351 110.58 36.8993 110.646 37.1246 110.778C37.35 110.911 37.5252 111.1 37.6502 111.347C37.7752 111.591 37.8377 111.883 37.8377 112.222V115H36.6275V112.438C36.6294 112.17 36.5612 111.962 36.4229 111.812C36.2847 111.661 36.0943 111.585 35.8519 111.585C35.689 111.585 35.5451 111.62 35.4201 111.69C35.297 111.76 35.2004 111.863 35.1303 111.997C35.0621 112.13 35.0271 112.29 35.0252 112.477ZM39.6523 115L38.4648 110.636H39.6893L40.3654 113.568H40.4052L41.1097 110.636H42.3114L43.0273 113.551H43.0643L43.729 110.636H44.9506L43.766 115H42.4847L41.7347 112.256H41.6808L40.9308 115H39.6523ZM46.8406 115.082C46.5621 115.082 46.314 115.034 46.0962 114.938C45.8784 114.839 45.7061 114.694 45.5792 114.503C45.4542 114.31 45.3917 114.069 45.3917 113.781C45.3917 113.539 45.4362 113.335 45.5252 113.17C45.6142 113.006 45.7354 112.873 45.8888 112.773C46.0423 112.672 46.2165 112.597 46.4116 112.545C46.6085 112.494 46.815 112.458 47.0309 112.438C47.2847 112.411 47.4892 112.386 47.6445 112.364C47.7998 112.339 47.9125 112.303 47.9826 112.256C48.0527 112.208 48.0877 112.138 48.0877 112.045V112.028C48.0877 111.848 48.0309 111.709 47.9173 111.611C47.8055 111.512 47.6464 111.463 47.44 111.463C47.2222 111.463 47.0489 111.511 46.9201 111.608C46.7913 111.703 46.7061 111.822 46.6644 111.966L45.5451 111.875C45.6019 111.61 45.7137 111.381 45.8803 111.188C46.047 110.992 46.262 110.843 46.5252 110.739C46.7904 110.633 47.0972 110.58 47.4457 110.58C47.6881 110.58 47.9201 110.608 48.1417 110.665C48.3652 110.722 48.5631 110.81 48.7354 110.929C48.9097 111.048 49.047 111.202 49.1474 111.389C49.2478 111.575 49.2979 111.797 49.2979 112.057V115H48.1502V114.395H48.1161C48.046 114.531 47.9523 114.652 47.8349 114.756C47.7174 114.858 47.5763 114.938 47.4116 114.997C47.2468 115.054 47.0565 115.082 46.8406 115.082ZM47.1871 114.247C47.3652 114.247 47.5224 114.212 47.6587 114.142C47.7951 114.07 47.9021 113.973 47.9798 113.852C48.0574 113.731 48.0962 113.594 48.0962 113.44V112.977C48.0584 113.002 48.0063 113.025 47.94 113.045C47.8756 113.064 47.8027 113.082 47.7212 113.099C47.6398 113.115 47.5584 113.129 47.4769 113.142C47.3955 113.153 47.3216 113.164 47.2553 113.173C47.1133 113.194 46.9892 113.227 46.8832 113.273C46.7771 113.318 46.6947 113.38 46.636 113.457C46.5773 113.533 46.5479 113.628 46.5479 113.741C46.5479 113.906 46.6076 114.032 46.7269 114.119C46.8481 114.205 47.0015 114.247 47.1871 114.247ZM50.8278 116.636C50.6744 116.636 50.5304 116.624 50.396 116.599C50.2634 116.577 50.1535 116.547 50.0664 116.511L50.3391 115.608C50.4812 115.652 50.609 115.675 50.7227 115.679C50.8382 115.683 50.9376 115.656 51.021 115.599C51.1062 115.543 51.1753 115.446 51.2283 115.31L51.2994 115.125L49.734 110.636H51.0067L51.9102 113.841H51.9556L52.8675 110.636H54.1488L52.4528 115.472C52.3713 115.706 52.2605 115.911 52.1204 116.085C51.9821 116.261 51.8069 116.397 51.5948 116.491C51.3827 116.588 51.127 116.636 50.8278 116.636ZM59.3384 112.131V113.091H56.685V112.131H59.3384ZM25.1307 120.855C25.108 120.626 25.0104 120.448 24.8381 120.321C24.6657 120.194 24.4318 120.131 24.1364 120.131C23.9356 120.131 23.7661 120.159 23.6278 120.216C23.4896 120.271 23.3835 120.348 23.3097 120.446C23.2377 120.545 23.2017 120.656 23.2017 120.781C23.1979 120.885 23.2197 120.976 23.267 121.054C23.3163 121.132 23.3835 121.199 23.4688 121.256C23.554 121.311 23.6525 121.359 23.7642 121.401C23.8759 121.44 23.9953 121.474 24.1222 121.503L24.6449 121.628C24.8987 121.685 25.1316 121.76 25.3438 121.855C25.5559 121.95 25.7396 122.066 25.8949 122.205C26.0502 122.343 26.1705 122.506 26.2557 122.693C26.3428 122.881 26.3873 123.096 26.3892 123.338C26.3873 123.694 26.2964 124.003 26.1165 124.264C25.9384 124.524 25.6809 124.725 25.3438 124.869C25.0085 125.011 24.6042 125.082 24.1307 125.082C23.661 125.082 23.2519 125.01 22.9034 124.866C22.5568 124.723 22.286 124.509 22.0909 124.227C21.8977 123.943 21.7964 123.592 21.7869 123.173H22.9773C22.9905 123.368 23.0464 123.531 23.1449 123.662C23.2453 123.791 23.3788 123.888 23.5455 123.955C23.714 124.019 23.9044 124.051 24.1165 124.051C24.3248 124.051 24.5057 124.021 24.6591 123.96C24.8144 123.9 24.9347 123.815 25.0199 123.707C25.1051 123.599 25.1477 123.475 25.1477 123.335C25.1477 123.205 25.1089 123.095 25.0312 123.006C24.9555 122.917 24.8438 122.841 24.696 122.778C24.5502 122.716 24.3712 122.659 24.1591 122.608L23.5256 122.449C23.035 122.33 22.6477 122.143 22.3636 121.889C22.0795 121.635 21.9384 121.294 21.9403 120.864C21.9384 120.511 22.0322 120.204 22.2216 119.94C22.4129 119.677 22.6752 119.472 23.0085 119.324C23.3419 119.176 23.7206 119.102 24.1449 119.102C24.5767 119.102 24.9536 119.176 25.2756 119.324C25.5994 119.472 25.8513 119.677 26.0312 119.94C26.2112 120.204 26.304 120.509 26.3097 120.855H25.1307ZM29.1825 125.085C28.7337 125.085 28.3473 124.994 28.0234 124.812C27.7015 124.629 27.4534 124.369 27.2791 124.034C27.1049 123.697 27.0178 123.298 27.0178 122.838C27.0178 122.389 27.1049 121.995 27.2791 121.656C27.4534 121.317 27.6986 121.053 28.0149 120.864C28.3331 120.674 28.7062 120.58 29.1342 120.58C29.4221 120.58 29.6901 120.626 29.9382 120.719C30.1882 120.81 30.406 120.947 30.5916 121.131C30.7791 121.314 30.925 121.545 31.0291 121.824C31.1333 122.1 31.1854 122.424 31.1854 122.795V123.128H27.5007V122.378H30.0462C30.0462 122.204 30.0083 122.049 29.9325 121.915C29.8568 121.78 29.7517 121.675 29.6172 121.599C29.4846 121.522 29.3303 121.483 29.1541 121.483C28.9704 121.483 28.8075 121.526 28.6655 121.611C28.5253 121.694 28.4155 121.807 28.3359 121.949C28.2564 122.089 28.2157 122.245 28.2138 122.418V123.131C28.2138 123.347 28.2536 123.533 28.3331 123.69C28.4145 123.848 28.5291 123.969 28.6768 124.054C28.8246 124.139 28.9998 124.182 29.2024 124.182C29.3369 124.182 29.46 124.163 29.5717 124.125C29.6835 124.087 29.7791 124.03 29.8587 123.955C29.9382 123.879 29.9988 123.786 30.0405 123.676L31.1598 123.75C31.103 124.019 30.9865 124.254 30.8104 124.455C30.6361 124.653 30.4107 124.809 30.1342 124.92C29.8596 125.03 29.5424 125.085 29.1825 125.085ZM34.2962 120.636V121.545H31.6683V120.636H34.2962ZM32.2649 119.591H33.4751V123.659C33.4751 123.771 33.4922 123.858 33.5263 123.92C33.5604 123.981 33.6077 124.024 33.6683 124.048C33.7308 124.073 33.8028 124.085 33.8842 124.085C33.9411 124.085 33.9979 124.08 34.0547 124.071C34.1115 124.06 34.1551 124.051 34.1854 124.045L34.3757 124.946C34.3151 124.965 34.2299 124.987 34.12 125.011C34.0102 125.038 33.8767 125.054 33.7195 125.06C33.4278 125.071 33.1721 125.032 32.9524 124.943C32.7346 124.854 32.5651 124.716 32.4439 124.528C32.3227 124.341 32.263 124.104 32.2649 123.818V119.591ZM35.0845 125V120.636H36.2947V125H35.0845ZM35.6925 120.074C35.5125 120.074 35.3582 120.014 35.2294 119.895C35.1025 119.774 35.0391 119.629 35.0391 119.46C35.0391 119.294 35.1025 119.151 35.2294 119.031C35.3582 118.91 35.5125 118.849 35.6925 118.849C35.8724 118.849 36.0258 118.91 36.1527 119.031C36.2815 119.151 36.3459 119.294 36.3459 119.46C36.3459 119.629 36.2815 119.774 36.1527 119.895C36.0258 120.014 35.8724 120.074 35.6925 120.074ZM38.5085 125.082C38.2301 125.082 37.982 125.034 37.7642 124.938C37.5464 124.839 37.3741 124.694 37.2472 124.503C37.1222 124.31 37.0597 124.069 37.0597 123.781C37.0597 123.539 37.1042 123.335 37.1932 123.17C37.2822 123.006 37.4034 122.873 37.5568 122.773C37.7102 122.672 37.8845 122.597 38.0795 122.545C38.2765 122.494 38.483 122.458 38.6989 122.438C38.9527 122.411 39.1572 122.386 39.3125 122.364C39.4678 122.339 39.5805 122.303 39.6506 122.256C39.7206 122.208 39.7557 122.138 39.7557 122.045V122.028C39.7557 121.848 39.6989 121.709 39.5852 121.611C39.4735 121.512 39.3144 121.463 39.108 121.463C38.8902 121.463 38.7169 121.511 38.5881 121.608C38.4593 121.703 38.3741 121.822 38.3324 121.966L37.2131 121.875C37.2699 121.61 37.3816 121.381 37.5483 121.188C37.715 120.992 37.9299 120.843 38.1932 120.739C38.4583 120.633 38.7652 120.58 39.1136 120.58C39.3561 120.58 39.5881 120.608 39.8097 120.665C40.0331 120.722 40.2311 120.81 40.4034 120.929C40.5777 121.048 40.715 121.202 40.8153 121.389C40.9157 121.575 40.9659 121.797 40.9659 122.057V125H39.8182V124.395H39.7841C39.714 124.531 39.6203 124.652 39.5028 124.756C39.3854 124.858 39.2443 124.938 39.0795 124.997C38.9148 125.054 38.7244 125.082 38.5085 125.082ZM38.8551 124.247C39.0331 124.247 39.1903 124.212 39.3267 124.142C39.4631 124.07 39.5701 123.973 39.6477 123.852C39.7254 123.731 39.7642 123.594 39.7642 123.44V122.977C39.7263 123.002 39.6742 123.025 39.608 123.045C39.5436 123.064 39.4706 123.082 39.3892 123.099C39.3078 123.115 39.2263 123.129 39.1449 123.142C39.0634 123.153 38.9896 123.164 38.9233 123.173C38.7813 123.194 38.6572 123.227 38.5511 123.273C38.4451 123.318 38.3627 123.38 38.304 123.457C38.2453 123.533 38.2159 123.628 38.2159 123.741C38.2159 123.906 38.2756 124.032 38.3949 124.119C38.5161 124.205 38.6695 124.247 38.8551 124.247ZM46.1087 119.182H47.3246V123.239C47.3246 123.614 47.2403 123.939 47.0717 124.216C46.9051 124.492 46.6731 124.705 46.3757 124.855C46.0784 125.005 45.7327 125.08 45.3388 125.08C44.9884 125.08 44.6702 125.018 44.3842 124.895C44.1001 124.77 43.8748 124.58 43.7081 124.327C43.5414 124.071 43.459 123.75 43.4609 123.364H44.6854C44.6892 123.517 44.7204 123.649 44.7791 123.759C44.8397 123.866 44.9221 123.95 45.0263 124.009C45.1323 124.065 45.2573 124.094 45.4013 124.094C45.5528 124.094 45.6806 124.062 45.7848 123.997C45.8909 123.931 45.9714 123.834 46.0263 123.707C46.0812 123.58 46.1087 123.424 46.1087 123.239V119.182ZM49.5632 125.082C49.2848 125.082 49.0367 125.034 48.8189 124.938C48.6011 124.839 48.4287 124.694 48.3018 124.503C48.1768 124.31 48.1143 124.069 48.1143 123.781C48.1143 123.539 48.1589 123.335 48.2479 123.17C48.3369 123.006 48.4581 122.873 48.6115 122.773C48.7649 122.672 48.9392 122.597 49.1342 122.545C49.3312 122.494 49.5376 122.458 49.7536 122.438C50.0073 122.411 50.2119 122.386 50.3672 122.364C50.5225 122.339 50.6352 122.303 50.7053 122.256C50.7753 122.208 50.8104 122.138 50.8104 122.045V122.028C50.8104 121.848 50.7536 121.709 50.6399 121.611C50.5282 121.512 50.3691 121.463 50.1626 121.463C49.9448 121.463 49.7715 121.511 49.6428 121.608C49.514 121.703 49.4287 121.822 49.3871 121.966L48.2678 121.875C48.3246 121.61 48.4363 121.381 48.603 121.188C48.7696 120.992 48.9846 120.843 49.2479 120.739C49.513 120.633 49.8198 120.58 50.1683 120.58C50.4107 120.58 50.6428 120.608 50.8643 120.665C51.0878 120.722 51.2857 120.81 51.4581 120.929C51.6323 121.048 51.7696 121.202 51.87 121.389C51.9704 121.575 52.0206 121.797 52.0206 122.057V125H50.8729V124.395H50.8388C50.7687 124.531 50.675 124.652 50.5575 124.756C50.4401 124.858 50.299 124.938 50.1342 124.997C49.9695 125.054 49.7791 125.082 49.5632 125.082ZM49.9098 124.247C50.0878 124.247 50.245 124.212 50.3814 124.142C50.5178 124.07 50.6248 123.973 50.7024 123.852C50.7801 123.731 50.8189 123.594 50.8189 123.44V122.977C50.781 123.002 50.7289 123.025 50.6626 123.045C50.5982 123.064 50.5253 123.082 50.4439 123.099C50.3625 123.115 50.281 123.129 50.1996 123.142C50.1181 123.153 50.0443 123.164 49.978 123.173C49.8359 123.194 49.7119 123.227 49.6058 123.273C49.4998 123.318 49.4174 123.38 49.3587 123.457C49.3 123.533 49.2706 123.628 49.2706 123.741C49.2706 123.906 49.3303 124.032 49.4496 124.119C49.5708 124.205 49.7242 124.247 49.9098 124.247ZM53.5504 126.636C53.397 126.636 53.2531 126.624 53.1186 126.599C52.986 126.577 52.8762 126.547 52.7891 126.511L53.0618 125.608C53.2038 125.652 53.3317 125.675 53.4453 125.679C53.5608 125.683 53.6603 125.656 53.7436 125.599C53.8288 125.543 53.898 125.446 53.951 125.31L54.022 125.125L52.4567 120.636H53.7294L54.6328 123.841H54.6783L55.5902 120.636H56.8714L55.1754 125.472C55.094 125.706 54.9832 125.911 54.843 126.085C54.7048 126.261 54.5296 126.397 54.3175 126.491C54.1054 126.588 53.8497 126.636 53.5504 126.636ZM58.6179 125.082C58.3395 125.082 58.0914 125.034 57.8736 124.938C57.6558 124.839 57.4834 124.694 57.3565 124.503C57.2315 124.31 57.169 124.069 57.169 123.781C57.169 123.539 57.2135 123.335 57.3026 123.17C57.3916 123.006 57.5128 122.873 57.6662 122.773C57.8196 122.672 57.9938 122.597 58.1889 122.545C58.3859 122.494 58.5923 122.458 58.8082 122.438C59.062 122.411 59.2666 122.386 59.4219 122.364C59.5772 122.339 59.6899 122.303 59.7599 122.256C59.83 122.208 59.8651 122.138 59.8651 122.045V122.028C59.8651 121.848 59.8082 121.709 59.6946 121.611C59.5829 121.512 59.4238 121.463 59.2173 121.463C58.9995 121.463 58.8262 121.511 58.6974 121.608C58.5687 121.703 58.4834 121.822 58.4418 121.966L57.3224 121.875C57.3793 121.61 57.491 121.381 57.6577 121.188C57.8243 120.992 58.0393 120.843 58.3026 120.739C58.5677 120.633 58.8745 120.58 59.223 120.58C59.4654 120.58 59.6974 120.608 59.919 120.665C60.1425 120.722 60.3404 120.81 60.5128 120.929C60.687 121.048 60.8243 121.202 60.9247 121.389C61.0251 121.575 61.0753 121.797 61.0753 122.057V125H59.9276V124.395H59.8935C59.8234 124.531 59.7296 124.652 59.6122 124.756C59.4948 124.858 59.3537 124.938 59.1889 124.997C59.0241 125.054 58.8338 125.082 58.6179 125.082ZM58.9645 124.247C59.1425 124.247 59.2997 124.212 59.4361 124.142C59.5724 124.07 59.6795 123.973 59.7571 123.852C59.8348 123.731 59.8736 123.594 59.8736 123.44V122.977C59.8357 123.002 59.7836 123.025 59.7173 123.045C59.6529 123.064 59.58 123.082 59.4986 123.099C59.4171 123.115 59.3357 123.129 59.2543 123.142C59.1728 123.153 59.099 123.164 59.0327 123.173C58.8906 123.194 58.7666 123.227 58.6605 123.273C58.5545 123.318 58.4721 123.38 58.4134 123.457C58.3546 123.533 58.3253 123.628 58.3253 123.741C58.3253 123.906 58.3849 124.032 58.5043 124.119C58.6255 124.205 58.7789 124.247 58.9645 124.247Z" fill="black"/>
<path d="M50.7462 141.548C50.7462 146.255 46.868 150.096 42.0519 150.096C37.2358 150.096 33.3577 146.255 33.3577 141.548C33.3577 136.841 37.2358 133 42.0519 133C46.868 133 50.7462 136.841 50.7462 141.548Z" fill="#024D36" stroke="white" stroke-width="2"/>
<path d="M146.365 119.182H147.882L149.484 123.091H149.553L151.155 119.182H152.672V125H151.479V121.213H151.43L149.925 124.972H149.112L147.607 121.199H147.558V125H146.365V119.182ZM155.651 125.085C155.202 125.085 154.816 124.994 154.492 124.812C154.17 124.629 153.922 124.369 153.748 124.034C153.574 123.697 153.487 123.298 153.487 122.838C153.487 122.389 153.574 121.995 153.748 121.656C153.922 121.317 154.167 121.053 154.484 120.864C154.802 120.674 155.175 120.58 155.603 120.58C155.891 120.58 156.159 120.626 156.407 120.719C156.657 120.81 156.875 120.947 157.06 121.131C157.248 121.314 157.394 121.545 157.498 121.824C157.602 122.1 157.654 122.424 157.654 122.795V123.128H153.969V122.378H156.515C156.515 122.204 156.477 122.049 156.401 121.915C156.326 121.78 156.22 121.675 156.086 121.599C155.953 121.522 155.799 121.483 155.623 121.483C155.439 121.483 155.276 121.526 155.134 121.611C154.994 121.694 154.884 121.807 154.805 121.949C154.725 122.089 154.684 122.245 154.683 122.418V123.131C154.683 123.347 154.722 123.533 154.802 123.69C154.883 123.848 154.998 123.969 155.146 124.054C155.293 124.139 155.469 124.182 155.671 124.182C155.806 124.182 155.929 124.163 156.04 124.125C156.152 124.087 156.248 124.03 156.327 123.955C156.407 123.879 156.468 123.786 156.509 123.676L157.629 123.75C157.572 124.019 157.455 124.254 157.279 124.455C157.105 124.653 156.879 124.809 156.603 124.92C156.328 125.03 156.011 125.085 155.651 125.085ZM159.654 122.477V125H158.444V120.636H159.597V121.406H159.648C159.745 121.152 159.907 120.952 160.134 120.804C160.362 120.654 160.637 120.58 160.961 120.58C161.264 120.58 161.528 120.646 161.754 120.778C161.979 120.911 162.154 121.1 162.279 121.347C162.404 121.591 162.467 121.883 162.467 122.222V125H161.256V122.438C161.258 122.17 161.19 121.962 161.052 121.812C160.914 121.661 160.723 121.585 160.481 121.585C160.318 121.585 160.174 121.62 160.049 121.69C159.926 121.76 159.829 121.863 159.759 121.997C159.691 122.13 159.656 122.29 159.654 122.477ZM165.741 120.636V121.545H163.114V120.636H165.741ZM163.71 119.591H164.92V123.659C164.92 123.771 164.938 123.858 164.972 123.92C165.006 123.981 165.053 124.024 165.114 124.048C165.176 124.073 165.248 124.085 165.33 124.085C165.386 124.085 165.443 124.08 165.5 124.071C165.557 124.06 165.6 124.051 165.631 124.045L165.821 124.946C165.76 124.965 165.675 124.987 165.565 125.011C165.455 125.038 165.322 125.054 165.165 125.06C164.873 125.071 164.617 125.032 164.398 124.943C164.18 124.854 164.01 124.716 163.889 124.528C163.768 124.341 163.708 124.104 163.71 123.818V119.591ZM167.774 125.082C167.496 125.082 167.248 125.034 167.03 124.938C166.812 124.839 166.64 124.694 166.513 124.503C166.388 124.31 166.325 124.069 166.325 123.781C166.325 123.539 166.37 123.335 166.459 123.17C166.548 123.006 166.669 122.873 166.822 122.773C166.976 122.672 167.15 122.597 167.345 122.545C167.542 122.494 167.749 122.458 167.964 122.438C168.218 122.411 168.423 122.386 168.578 122.364C168.733 122.339 168.846 122.303 168.916 122.256C168.986 122.208 169.021 122.138 169.021 122.045V122.028C169.021 121.848 168.964 121.709 168.851 121.611C168.739 121.512 168.58 121.463 168.374 121.463C168.156 121.463 167.982 121.511 167.854 121.608C167.725 121.703 167.64 121.822 167.598 121.966L166.479 121.875C166.536 121.61 166.647 121.381 166.814 121.188C166.981 120.992 167.196 120.843 167.459 120.739C167.724 120.633 168.031 120.58 168.379 120.58C168.622 120.58 168.854 120.608 169.075 120.665C169.299 120.722 169.497 120.81 169.669 120.929C169.843 121.048 169.981 121.202 170.081 121.389C170.181 121.575 170.232 121.797 170.232 122.057V125H169.084V124.395H169.05C168.98 124.531 168.886 124.652 168.768 124.756C168.651 124.858 168.51 124.938 168.345 124.997C168.18 125.054 167.99 125.082 167.774 125.082ZM168.121 124.247C168.299 124.247 168.456 124.212 168.592 124.142C168.729 124.07 168.836 123.973 168.913 123.852C168.991 123.731 169.03 123.594 169.03 123.44V122.977C168.992 123.002 168.94 123.025 168.874 123.045C168.809 123.064 168.736 123.082 168.655 123.099C168.573 123.115 168.492 123.129 168.411 123.142C168.329 123.153 168.255 123.164 168.189 123.173C168.047 123.194 167.923 123.227 167.817 123.273C167.711 123.318 167.628 123.38 167.57 123.457C167.511 123.533 167.482 123.628 167.482 123.741C167.482 123.906 167.541 124.032 167.661 124.119C167.782 124.205 167.935 124.247 168.121 124.247ZM171.17 125V120.636H172.344V121.398H172.389C172.469 121.127 172.602 120.922 172.79 120.784C172.977 120.644 173.193 120.574 173.438 120.574C173.498 120.574 173.563 120.578 173.634 120.585C173.704 120.593 173.765 120.603 173.818 120.616V121.69C173.761 121.673 173.683 121.658 173.582 121.645C173.482 121.632 173.39 121.625 173.307 121.625C173.129 121.625 172.97 121.664 172.83 121.741C172.691 121.817 172.581 121.923 172.5 122.06C172.42 122.196 172.381 122.353 172.381 122.531V125H171.17ZM174.444 125V120.636H175.654V125H174.444ZM175.052 120.074C174.872 120.074 174.718 120.014 174.589 119.895C174.462 119.774 174.398 119.629 174.398 119.46C174.398 119.294 174.462 119.151 174.589 119.031C174.718 118.91 174.872 118.849 175.052 118.849C175.232 118.849 175.385 118.91 175.512 119.031C175.641 119.151 175.705 119.294 175.705 119.46C175.705 119.629 175.641 119.774 175.512 119.895C175.385 120.014 175.232 120.074 175.052 120.074Z" fill="black"/>
<path d="M169.328 141.548C169.328 146.294 165.588 150.096 161.029 150.096C156.471 150.096 152.731 146.294 152.731 141.548C152.731 136.802 156.471 133 161.029 133C165.588 133 169.328 136.802 169.328 141.548Z" fill="#024D36" stroke="white" stroke-width="2"/>
<path d="M262.635 120.855C262.612 120.626 262.514 120.448 262.342 120.321C262.17 120.194 261.936 120.131 261.64 120.131C261.44 120.131 261.27 120.159 261.132 120.216C260.993 120.271 260.887 120.348 260.814 120.446C260.742 120.545 260.706 120.656 260.706 120.781C260.702 120.885 260.724 120.976 260.771 121.054C260.82 121.132 260.887 121.199 260.973 121.256C261.058 121.311 261.156 121.359 261.268 121.401C261.38 121.44 261.499 121.474 261.626 121.503L262.149 121.628C262.403 121.685 262.636 121.76 262.848 121.855C263.06 121.95 263.243 122.066 263.399 122.205C263.554 122.343 263.674 122.506 263.76 122.693C263.847 122.881 263.891 123.096 263.893 123.338C263.891 123.694 263.8 124.003 263.62 124.264C263.442 124.524 263.185 124.725 262.848 124.869C262.512 125.011 262.108 125.082 261.635 125.082C261.165 125.082 260.756 125.01 260.407 124.866C260.061 124.723 259.79 124.509 259.595 124.227C259.402 123.943 259.3 123.592 259.291 123.173H260.481C260.494 123.368 260.55 123.531 260.649 123.662C260.749 123.791 260.883 123.888 261.049 123.955C261.218 124.019 261.408 124.051 261.62 124.051C261.829 124.051 262.01 124.021 262.163 123.96C262.318 123.9 262.439 123.815 262.524 123.707C262.609 123.599 262.652 123.475 262.652 123.335C262.652 123.205 262.613 123.095 262.535 123.006C262.459 122.917 262.348 122.841 262.2 122.778C262.054 122.716 261.875 122.659 261.663 122.608L261.029 122.449C260.539 122.33 260.152 122.143 259.868 121.889C259.583 121.635 259.442 121.294 259.444 120.864C259.442 120.511 259.536 120.204 259.725 119.94C259.917 119.677 260.179 119.472 260.512 119.324C260.846 119.176 261.225 119.102 261.649 119.102C262.081 119.102 262.458 119.176 262.779 119.324C263.103 119.472 263.355 119.677 263.535 119.94C263.715 120.204 263.808 120.509 263.814 120.855H262.635ZM267.496 123.142V120.636H268.706V125H267.544V124.207H267.499C267.4 124.463 267.237 124.669 267.007 124.824C266.78 124.979 266.503 125.057 266.175 125.057C265.883 125.057 265.627 124.991 265.405 124.858C265.184 124.725 265.01 124.537 264.885 124.293C264.762 124.048 264.7 123.756 264.698 123.415V120.636H265.908V123.199C265.91 123.456 265.979 123.66 266.115 123.81C266.252 123.959 266.435 124.034 266.664 124.034C266.81 124.034 266.946 124.001 267.073 123.935C267.2 123.866 267.302 123.766 267.38 123.634C267.459 123.501 267.498 123.337 267.496 123.142ZM270.885 122.477V125H269.674V120.636H270.828V121.406H270.879C270.975 121.152 271.137 120.952 271.365 120.804C271.592 120.654 271.868 120.58 272.191 120.58C272.494 120.58 272.759 120.646 272.984 120.778C273.209 120.911 273.385 121.1 273.51 121.347C273.635 121.591 273.697 121.883 273.697 122.222V125H272.487V122.438C272.489 122.17 272.421 121.962 272.282 121.812C272.144 121.661 271.954 121.585 271.711 121.585C271.548 121.585 271.404 121.62 271.279 121.69C271.156 121.76 271.06 121.863 270.99 121.997C270.922 122.13 270.886 122.29 270.885 122.477ZM275.512 125L274.324 120.636H275.549L276.225 123.568H276.265L276.969 120.636H278.171L278.887 123.551H278.924L279.588 120.636H280.81L279.625 125H278.344L277.594 122.256H277.54L276.79 125H275.512ZM282.7 125.082C282.422 125.082 282.173 125.034 281.956 124.938C281.738 124.839 281.565 124.694 281.439 124.503C281.314 124.31 281.251 124.069 281.251 123.781C281.251 123.539 281.296 123.335 281.385 123.17C281.474 123.006 281.595 122.873 281.748 122.773C281.902 122.672 282.076 122.597 282.271 122.545C282.468 122.494 282.674 122.458 282.89 122.438C283.144 122.411 283.349 122.386 283.504 122.364C283.659 122.339 283.772 122.303 283.842 122.256C283.912 122.208 283.947 122.138 283.947 122.045V122.028C283.947 121.848 283.89 121.709 283.777 121.611C283.665 121.512 283.506 121.463 283.299 121.463C283.082 121.463 282.908 121.511 282.779 121.608C282.651 121.703 282.565 121.822 282.524 121.966L281.404 121.875C281.461 121.61 281.573 121.381 281.74 121.188C281.906 120.992 282.121 120.843 282.385 120.739C282.65 120.633 282.957 120.58 283.305 120.58C283.547 120.58 283.779 120.608 284.001 120.665C284.225 120.722 284.422 120.81 284.595 120.929C284.769 121.048 284.906 121.202 285.007 121.389C285.107 121.575 285.157 121.797 285.157 122.057V125H284.01V124.395H283.975C283.905 124.531 283.812 124.652 283.694 124.756C283.577 124.858 283.436 124.938 283.271 124.997C283.106 125.054 282.916 125.082 282.7 125.082ZM283.047 124.247C283.225 124.247 283.382 124.212 283.518 124.142C283.654 124.07 283.761 123.973 283.839 123.852C283.917 123.731 283.956 123.594 283.956 123.44V122.977C283.918 123.002 283.866 123.025 283.799 123.045C283.735 123.064 283.662 123.082 283.581 123.099C283.499 123.115 283.418 123.129 283.336 123.142C283.255 123.153 283.181 123.164 283.115 123.173C282.973 123.194 282.849 123.227 282.743 123.273C282.636 123.318 282.554 123.38 282.495 123.457C282.437 123.533 282.407 123.628 282.407 123.741C282.407 123.906 282.467 124.032 282.586 124.119C282.708 124.205 282.861 124.247 283.047 124.247ZM286.687 126.636C286.534 126.636 286.39 126.624 286.255 126.599C286.123 126.577 286.013 126.547 285.926 126.511L286.199 125.608C286.341 125.652 286.468 125.675 286.582 125.679C286.698 125.683 286.797 125.656 286.88 125.599C286.966 125.543 287.035 125.446 287.088 125.31L287.159 125.125L285.593 120.636H286.866L287.77 123.841H287.815L288.727 120.636H290.008L288.312 125.472C288.231 125.706 288.12 125.911 287.98 126.085C287.842 126.261 287.666 126.397 287.454 126.491C287.242 126.588 286.986 126.636 286.687 126.636ZM292.502 125V119.182H293.732V123.986H296.226V125H292.502ZM298.262 125.082C297.984 125.082 297.736 125.034 297.518 124.938C297.3 124.839 297.128 124.694 297.001 124.503C296.876 124.31 296.814 124.069 296.814 123.781C296.814 123.539 296.858 123.335 296.947 123.17C297.036 123.006 297.157 122.873 297.311 122.773C297.464 122.672 297.638 122.597 297.833 122.545C298.03 122.494 298.237 122.458 298.453 122.438C298.707 122.411 298.911 122.386 299.066 122.364C299.222 122.339 299.334 122.303 299.404 122.256C299.475 122.208 299.51 122.138 299.51 122.045V122.028C299.51 121.848 299.453 121.709 299.339 121.611C299.227 121.512 299.068 121.463 298.862 121.463C298.644 121.463 298.471 121.511 298.342 121.608C298.213 121.703 298.128 121.822 298.086 121.966L296.967 121.875C297.024 121.61 297.136 121.381 297.302 121.188C297.469 120.992 297.684 120.843 297.947 120.739C298.212 120.633 298.519 120.58 298.868 120.58C299.11 120.58 299.342 120.608 299.564 120.665C299.787 120.722 299.985 120.81 300.157 120.929C300.332 121.048 300.469 121.202 300.569 121.389C300.67 121.575 300.72 121.797 300.72 122.057V125H299.572V124.395H299.538C299.468 124.531 299.374 124.652 299.257 124.756C299.139 124.858 298.998 124.938 298.833 124.997C298.669 125.054 298.478 125.082 298.262 125.082ZM298.609 124.247C298.787 124.247 298.944 124.212 299.081 124.142C299.217 124.07 299.324 123.973 299.402 123.852C299.479 123.731 299.518 123.594 299.518 123.44V122.977C299.48 123.002 299.428 123.025 299.362 123.045C299.297 123.064 299.225 123.082 299.143 123.099C299.062 123.115 298.98 123.129 298.899 123.142C298.817 123.153 298.743 123.164 298.677 123.173C298.535 123.194 298.411 123.227 298.305 123.273C298.199 123.318 298.117 123.38 298.058 123.457C297.999 123.533 297.97 123.628 297.97 123.741C297.97 123.906 298.029 124.032 298.149 124.119C298.27 124.205 298.423 124.247 298.609 124.247ZM303.625 126.727C303.233 126.727 302.896 126.673 302.616 126.565C302.338 126.459 302.116 126.314 301.951 126.131C301.787 125.947 301.68 125.741 301.63 125.511L302.75 125.361C302.784 125.448 302.838 125.529 302.912 125.605C302.985 125.681 303.083 125.741 303.204 125.787C303.327 125.834 303.477 125.858 303.653 125.858C303.916 125.858 304.133 125.794 304.304 125.665C304.476 125.538 304.562 125.325 304.562 125.026V124.227H304.511C304.458 124.348 304.378 124.463 304.272 124.571C304.166 124.679 304.03 124.767 303.863 124.835C303.697 124.903 303.498 124.938 303.267 124.938C302.939 124.938 302.641 124.862 302.372 124.71C302.105 124.557 301.892 124.323 301.733 124.009C301.575 123.692 301.497 123.293 301.497 122.81C301.497 122.315 301.577 121.902 301.738 121.571C301.899 121.24 302.113 120.991 302.38 120.827C302.649 120.662 302.944 120.58 303.264 120.58C303.508 120.58 303.713 120.621 303.877 120.705C304.042 120.786 304.175 120.888 304.275 121.011C304.377 121.133 304.456 121.252 304.511 121.369H304.556V120.636H305.758V125.043C305.758 125.414 305.667 125.724 305.485 125.974C305.304 126.224 305.052 126.412 304.73 126.537C304.41 126.664 304.041 126.727 303.625 126.727ZM303.65 124.028C303.845 124.028 304.01 123.98 304.145 123.884C304.281 123.785 304.385 123.645 304.457 123.463C304.531 123.279 304.568 123.06 304.568 122.804C304.568 122.548 304.532 122.327 304.46 122.139C304.388 121.95 304.284 121.803 304.147 121.699C304.011 121.595 303.845 121.543 303.65 121.543C303.451 121.543 303.284 121.597 303.147 121.705C303.011 121.811 302.908 121.958 302.838 122.148C302.768 122.337 302.733 122.556 302.733 122.804C302.733 123.056 302.768 123.274 302.838 123.457C302.91 123.639 303.013 123.78 303.147 123.881C303.284 123.979 303.451 124.028 303.65 124.028ZM308.693 125.085C308.252 125.085 307.87 124.991 307.548 124.804C307.228 124.615 306.981 124.351 306.806 124.014C306.632 123.675 306.545 123.282 306.545 122.835C306.545 122.384 306.632 121.991 306.806 121.653C306.981 121.314 307.228 121.051 307.548 120.864C307.87 120.674 308.252 120.58 308.693 120.58C309.134 120.58 309.515 120.674 309.835 120.864C310.157 121.051 310.405 121.314 310.579 121.653C310.753 121.991 310.841 122.384 310.841 122.835C310.841 123.282 310.753 123.675 310.579 124.014C310.405 124.351 310.157 124.615 309.835 124.804C309.515 124.991 309.134 125.085 308.693 125.085ZM308.699 124.148C308.899 124.148 309.067 124.091 309.201 123.977C309.336 123.862 309.437 123.705 309.505 123.506C309.575 123.307 309.61 123.08 309.61 122.827C309.61 122.573 309.575 122.347 309.505 122.148C309.437 121.949 309.336 121.792 309.201 121.676C309.067 121.561 308.899 121.503 308.699 121.503C308.496 121.503 308.325 121.561 308.187 121.676C308.051 121.792 307.948 121.949 307.877 122.148C307.809 122.347 307.775 122.573 307.775 122.827C307.775 123.08 307.809 123.307 307.877 123.506C307.948 123.705 308.051 123.862 308.187 123.977C308.325 124.091 308.496 124.148 308.699 124.148ZM313.599 125.085C313.158 125.085 312.776 124.991 312.454 124.804C312.134 124.615 311.887 124.351 311.713 124.014C311.538 123.675 311.451 123.282 311.451 122.835C311.451 122.384 311.538 121.991 311.713 121.653C311.887 121.314 312.134 121.051 312.454 120.864C312.776 120.674 313.158 120.58 313.599 120.58C314.04 120.58 314.421 120.674 314.741 120.864C315.063 121.051 315.311 121.314 315.485 121.653C315.66 121.991 315.747 122.384 315.747 122.835C315.747 123.282 315.66 123.675 315.485 124.014C315.311 124.351 315.063 124.615 314.741 124.804C314.421 124.991 314.04 125.085 313.599 125.085ZM313.605 124.148C313.806 124.148 313.973 124.091 314.108 123.977C314.242 123.862 314.343 123.705 314.412 123.506C314.482 123.307 314.517 123.08 314.517 122.827C314.517 122.573 314.482 122.347 314.412 122.148C314.343 121.949 314.242 121.792 314.108 121.676C313.973 121.561 313.806 121.503 313.605 121.503C313.402 121.503 313.232 121.561 313.093 121.676C312.957 121.792 312.854 121.949 312.784 122.148C312.716 122.347 312.681 122.573 312.681 122.827C312.681 123.08 312.716 123.307 312.784 123.506C312.854 123.705 312.957 123.862 313.093 123.977C313.232 124.091 313.402 124.148 313.605 124.148ZM317.744 122.477V125H316.534V120.636H317.687V121.406H317.738C317.835 121.152 317.997 120.952 318.224 120.804C318.451 120.654 318.727 120.58 319.051 120.58C319.354 120.58 319.618 120.646 319.843 120.778C320.069 120.911 320.244 121.1 320.369 121.347C320.494 121.591 320.556 121.883 320.556 122.222V125H319.346V122.438C319.348 122.17 319.28 121.962 319.142 121.812C319.003 121.661 318.813 121.585 318.571 121.585C318.408 121.585 318.264 121.62 318.139 121.69C318.016 121.76 317.919 121.863 317.849 121.997C317.781 122.13 317.746 122.29 317.744 122.477Z" fill="black"/>
<path d="M298.328 141.548C298.328 146.294 294.588 150.096 290.029 150.096C285.471 150.096 281.731 146.294 281.731 141.548C281.731 136.802 285.471 133 290.029 133C294.588 133 298.328 136.802 298.328 141.548Z" fill="#024D36" stroke="white" stroke-width="2"/>
<path d="M407.471 120.855C407.448 120.626 407.35 120.448 407.178 120.321C407.006 120.194 406.772 120.131 406.476 120.131C406.275 120.131 406.106 120.159 405.968 120.216C405.829 120.271 405.723 120.348 405.65 120.446C405.578 120.545 405.542 120.656 405.542 120.781C405.538 120.885 405.56 120.976 405.607 121.054C405.656 121.132 405.723 121.199 405.809 121.256C405.894 121.311 405.992 121.359 406.104 121.401C406.216 121.44 406.335 121.474 406.462 121.503L406.985 121.628C407.239 121.685 407.471 121.76 407.684 121.855C407.896 121.95 408.079 122.066 408.235 122.205C408.39 122.343 408.51 122.506 408.596 122.693C408.683 122.881 408.727 123.096 408.729 123.338C408.727 123.694 408.636 124.003 408.456 124.264C408.278 124.524 408.021 124.725 407.684 124.869C407.348 125.011 406.944 125.082 406.471 125.082C406.001 125.082 405.592 125.01 405.243 124.866C404.897 124.723 404.626 124.509 404.431 124.227C404.238 123.943 404.136 123.592 404.127 123.173H405.317C405.33 123.368 405.386 123.531 405.485 123.662C405.585 123.791 405.719 123.888 405.885 123.955C406.054 124.019 406.244 124.051 406.456 124.051C406.665 124.051 406.846 124.021 406.999 123.96C407.154 123.9 407.275 123.815 407.36 123.707C407.445 123.599 407.488 123.475 407.488 123.335C407.488 123.205 407.449 123.095 407.371 123.006C407.295 122.917 407.184 122.841 407.036 122.778C406.89 122.716 406.711 122.659 406.499 122.608L405.865 122.449C405.375 122.33 404.988 122.143 404.703 121.889C404.419 121.635 404.278 121.294 404.28 120.864C404.278 120.511 404.372 120.204 404.561 119.94C404.753 119.677 405.015 119.472 405.348 119.324C405.682 119.176 406.06 119.102 406.485 119.102C406.917 119.102 407.293 119.176 407.615 119.324C407.939 119.472 408.191 119.677 408.371 119.94C408.551 120.204 408.644 120.509 408.65 120.855H407.471ZM412.332 123.142V120.636H413.542V125H412.38V124.207H412.335C412.236 124.463 412.073 124.669 411.843 124.824C411.616 124.979 411.339 125.057 411.011 125.057C410.719 125.057 410.463 124.991 410.241 124.858C410.02 124.725 409.846 124.537 409.721 124.293C409.598 124.048 409.536 123.756 409.534 123.415V120.636H410.744V123.199C410.746 123.456 410.815 123.66 410.951 123.81C411.088 123.959 411.27 124.034 411.5 124.034C411.645 124.034 411.782 124.001 411.909 123.935C412.036 123.866 412.138 123.766 412.216 123.634C412.295 123.501 412.334 123.337 412.332 123.142ZM415.721 122.477V125H414.51V120.636H415.664V121.406H415.715C415.811 121.152 415.973 120.952 416.201 120.804C416.428 120.654 416.703 120.58 417.027 120.58C417.33 120.58 417.595 120.646 417.82 120.778C418.045 120.911 418.221 121.1 418.346 121.347C418.471 121.591 418.533 121.883 418.533 122.222V125H417.323V122.438C417.325 122.17 417.257 121.962 417.118 121.812C416.98 121.661 416.79 121.585 416.547 121.585C416.384 121.585 416.24 121.62 416.115 121.69C415.992 121.76 415.896 121.863 415.826 121.997C415.757 122.13 415.722 122.29 415.721 122.477ZM419.51 119.182H421.027L422.629 123.091H422.697L424.299 119.182H425.816V125H424.623V121.213H424.575L423.069 124.972H422.257L420.751 121.199H420.703V125H419.51V119.182ZM428.796 125.085C428.347 125.085 427.961 124.994 427.637 124.812C427.315 124.629 427.067 124.369 426.892 124.034C426.718 123.697 426.631 123.298 426.631 122.838C426.631 122.389 426.718 121.995 426.892 121.656C427.067 121.317 427.312 121.053 427.628 120.864C427.946 120.674 428.319 120.58 428.748 120.58C429.035 120.58 429.303 120.626 429.551 120.719C429.801 120.81 430.019 120.947 430.205 121.131C430.392 121.314 430.538 121.545 430.642 121.824C430.747 122.1 430.799 122.424 430.799 122.795V123.128H427.114V122.378H429.659C429.659 122.204 429.622 122.049 429.546 121.915C429.47 121.78 429.365 121.675 429.23 121.599C429.098 121.522 428.944 121.483 428.767 121.483C428.584 121.483 428.421 121.526 428.279 121.611C428.139 121.694 428.029 121.807 427.949 121.949C427.87 122.089 427.829 122.245 427.827 122.418V123.131C427.827 123.347 427.867 123.533 427.946 123.69C428.028 123.848 428.142 123.969 428.29 124.054C428.438 124.139 428.613 124.182 428.816 124.182C428.95 124.182 429.073 124.163 429.185 124.125C429.297 124.087 429.392 124.03 429.472 123.955C429.551 123.879 429.612 123.786 429.654 123.676L430.773 123.75C430.716 124.019 430.6 124.254 430.424 124.455C430.249 124.653 430.024 124.809 429.748 124.92C429.473 125.03 429.156 125.085 428.796 125.085ZM433.196 125.071C432.865 125.071 432.565 124.986 432.296 124.815C432.029 124.643 431.817 124.39 431.659 124.057C431.504 123.722 431.426 123.311 431.426 122.824C431.426 122.324 431.507 121.908 431.668 121.577C431.829 121.243 432.043 120.994 432.31 120.83C432.579 120.663 432.873 120.58 433.194 120.58C433.438 120.58 433.641 120.621 433.804 120.705C433.969 120.786 434.102 120.888 434.202 121.011C434.304 121.133 434.382 121.252 434.435 121.369H434.472V119.182H435.679V125H434.486V124.301H434.435C434.378 124.422 434.298 124.543 434.194 124.662C434.091 124.779 433.958 124.877 433.793 124.955C433.63 125.032 433.431 125.071 433.196 125.071ZM433.58 124.108C433.775 124.108 433.94 124.055 434.074 123.949C434.211 123.841 434.315 123.69 434.387 123.497C434.461 123.304 434.498 123.078 434.498 122.818C434.498 122.559 434.462 122.333 434.39 122.142C434.318 121.951 434.213 121.803 434.077 121.699C433.941 121.595 433.775 121.543 433.58 121.543C433.381 121.543 433.213 121.597 433.077 121.705C432.941 121.812 432.837 121.962 432.767 122.153C432.697 122.345 432.662 122.566 432.662 122.818C432.662 123.072 432.697 123.296 432.767 123.491C432.839 123.685 432.943 123.836 433.077 123.946C433.213 124.054 433.381 124.108 433.58 124.108Z" fill="black"/>
<path d="M428.328 141.548C428.328 146.294 424.588 150.096 420.03 150.096C415.471 150.096 411.731 146.294 411.731 141.548C411.731 136.802 415.471 133 420.03 133C424.588 133 428.328 136.802 428.328 141.548Z" fill="#024D36" stroke="white" stroke-width="2"/>
<path d="M521.756 120.855C521.733 120.626 521.635 120.448 521.463 120.321C521.291 120.194 521.057 120.131 520.761 120.131C520.561 120.131 520.391 120.159 520.253 120.216C520.115 120.271 520.009 120.348 519.935 120.446C519.863 120.545 519.827 120.656 519.827 120.781C519.823 120.885 519.845 120.976 519.892 121.054C519.941 121.132 520.009 121.199 520.094 121.256C520.179 121.311 520.277 121.359 520.389 121.401C520.501 121.44 520.62 121.474 520.747 121.503L521.27 121.628C521.524 121.685 521.757 121.76 521.969 121.855C522.181 121.95 522.365 122.066 522.52 122.205C522.675 122.343 522.795 122.506 522.881 122.693C522.968 122.881 523.012 123.096 523.014 123.338C523.012 123.694 522.921 124.003 522.741 124.264C522.563 124.524 522.306 124.725 521.969 124.869C521.634 125.011 521.229 125.082 520.756 125.082C520.286 125.082 519.877 125.01 519.528 124.866C519.182 124.723 518.911 124.509 518.716 124.227C518.523 123.943 518.421 123.592 518.412 123.173H519.602C519.616 123.368 519.671 123.531 519.77 123.662C519.87 123.791 520.004 123.888 520.17 123.955C520.339 124.019 520.529 124.051 520.741 124.051C520.95 124.051 521.131 124.021 521.284 123.96C521.439 123.9 521.56 123.815 521.645 123.707C521.73 123.599 521.773 123.475 521.773 123.335C521.773 123.205 521.734 123.095 521.656 123.006C521.58 122.917 521.469 122.841 521.321 122.778C521.175 122.716 520.996 122.659 520.784 122.608L520.151 122.449C519.66 122.33 519.273 122.143 518.989 121.889C518.705 121.635 518.563 121.294 518.565 120.864C518.563 120.511 518.657 120.204 518.847 119.94C519.038 119.677 519.3 119.472 519.634 119.324C519.967 119.176 520.346 119.102 520.77 119.102C521.202 119.102 521.579 119.176 521.901 119.324C522.224 119.472 522.476 119.677 522.656 119.94C522.836 120.204 522.929 120.509 522.935 120.855H521.756ZM526.617 123.142V120.636H527.827V125H526.665V124.207H526.62C526.522 124.463 526.358 124.669 526.129 124.824C525.901 124.979 525.624 125.057 525.296 125.057C525.004 125.057 524.748 124.991 524.526 124.858C524.305 124.725 524.131 124.537 524.006 124.293C523.883 124.048 523.821 123.756 523.819 123.415V120.636H525.029V123.199C525.031 123.456 525.1 123.66 525.237 123.81C525.373 123.959 525.556 124.034 525.785 124.034C525.931 124.034 526.067 124.001 526.194 123.935C526.321 123.866 526.423 123.766 526.501 123.634C526.58 123.501 526.619 123.337 526.617 123.142ZM530.006 122.477V125H528.795V120.636H529.949V121.406H530C530.097 121.152 530.259 120.952 530.486 120.804C530.713 120.654 530.989 120.58 531.312 120.58C531.616 120.58 531.88 120.646 532.105 120.778C532.33 120.911 532.506 121.1 532.631 121.347C532.756 121.591 532.818 121.883 532.818 122.222V125H531.608V122.438C531.61 122.17 531.542 121.962 531.403 121.812C531.265 121.661 531.075 121.585 530.832 121.585C530.67 121.585 530.526 121.62 530.401 121.69C530.277 121.76 530.181 121.863 530.111 121.997C530.043 122.13 530.008 122.29 530.006 122.477ZM537.388 119.182H538.619V122.96C538.619 123.384 538.517 123.756 538.315 124.074C538.114 124.392 537.833 124.64 537.471 124.818C537.109 124.994 536.688 125.082 536.207 125.082C535.724 125.082 535.301 124.994 534.94 124.818C534.578 124.64 534.297 124.392 534.096 124.074C533.895 123.756 533.795 123.384 533.795 122.96V119.182H535.025V122.855C535.025 123.077 535.073 123.274 535.17 123.446C535.268 123.618 535.406 123.754 535.585 123.852C535.763 123.951 535.97 124 536.207 124C536.445 124 536.653 123.951 536.829 123.852C537.007 123.754 537.144 123.618 537.241 123.446C537.339 123.274 537.388 123.077 537.388 122.855V119.182ZM544.178 121.611V122.571H541.525V121.611H544.178ZM547.084 119.182H548.601L550.203 123.091H550.271L551.874 119.182H553.391V125H552.197V121.213H552.149L550.643 124.972H549.831L548.325 121.199H548.277V125H547.084V119.182ZM556.353 125.085C555.912 125.085 555.53 124.991 555.208 124.804C554.888 124.615 554.641 124.351 554.467 124.014C554.292 123.675 554.205 123.282 554.205 122.835C554.205 122.384 554.292 121.991 554.467 121.653C554.641 121.314 554.888 121.051 555.208 120.864C555.53 120.674 555.912 120.58 556.353 120.58C556.794 120.58 557.175 120.674 557.495 120.864C557.817 121.051 558.065 121.314 558.239 121.653C558.414 121.991 558.501 122.384 558.501 122.835C558.501 123.282 558.414 123.675 558.239 124.014C558.065 124.351 557.817 124.615 557.495 124.804C557.175 124.991 556.794 125.085 556.353 125.085ZM556.359 124.148C556.559 124.148 556.727 124.091 556.862 123.977C556.996 123.862 557.097 123.705 557.165 123.506C557.236 123.307 557.271 123.08 557.271 122.827C557.271 122.573 557.236 122.347 557.165 122.148C557.097 121.949 556.996 121.792 556.862 121.676C556.727 121.561 556.559 121.503 556.359 121.503C556.156 121.503 555.986 121.561 555.847 121.676C555.711 121.792 555.608 121.949 555.538 122.148C555.469 122.347 555.435 122.573 555.435 122.827C555.435 123.08 555.469 123.307 555.538 123.506C555.608 123.705 555.711 123.862 555.847 123.977C555.986 124.091 556.156 124.148 556.359 124.148ZM560.498 122.477V125H559.288V120.636H560.441V121.406H560.492C560.589 121.152 560.751 120.952 560.978 120.804C561.205 120.654 561.481 120.58 561.805 120.58C562.108 120.58 562.372 120.646 562.597 120.778C562.823 120.911 562.998 121.1 563.123 121.347C563.248 121.591 563.31 121.883 563.31 122.222V125H562.1V122.438C562.102 122.17 562.034 121.962 561.896 121.812C561.757 121.661 561.567 121.585 561.325 121.585C561.162 121.585 561.018 121.62 560.893 121.69C560.77 121.76 560.673 121.863 560.603 121.997C560.535 122.13 560.5 122.29 560.498 122.477ZM565.509 125.082C565.23 125.082 564.982 125.034 564.764 124.938C564.546 124.839 564.374 124.694 564.247 124.503C564.122 124.31 564.06 124.069 564.06 123.781C564.06 123.539 564.104 123.335 564.193 123.17C564.282 123.006 564.403 122.873 564.557 122.773C564.71 122.672 564.884 122.597 565.08 122.545C565.277 122.494 565.483 122.458 565.699 122.438C565.953 122.411 566.157 122.386 566.312 122.364C566.468 122.339 566.58 122.303 566.651 122.256C566.721 122.208 566.756 122.138 566.756 122.045V122.028C566.756 121.848 566.699 121.709 566.585 121.611C566.473 121.512 566.314 121.463 566.108 121.463C565.89 121.463 565.717 121.511 565.588 121.608C565.459 121.703 565.374 121.822 565.332 121.966L564.213 121.875C564.27 121.61 564.382 121.381 564.548 121.188C564.715 120.992 564.93 120.843 565.193 120.739C565.458 120.633 565.765 120.58 566.114 120.58C566.356 120.58 566.588 120.608 566.81 120.665C567.033 120.722 567.231 120.81 567.403 120.929C567.578 121.048 567.715 121.202 567.815 121.389C567.916 121.575 567.966 121.797 567.966 122.057V125H566.818V124.395H566.784C566.714 124.531 566.62 124.652 566.503 124.756C566.385 124.858 566.244 124.938 566.08 124.997C565.915 125.054 565.724 125.082 565.509 125.082ZM565.855 124.247C566.033 124.247 566.19 124.212 566.327 124.142C566.463 124.07 566.57 123.973 566.648 123.852C566.725 123.731 566.764 123.594 566.764 123.44V122.977C566.726 123.002 566.674 123.025 566.608 123.045C566.544 123.064 566.471 123.082 566.389 123.099C566.308 123.115 566.226 123.129 566.145 123.142C566.063 123.153 565.99 123.164 565.923 123.173C565.781 123.194 565.657 123.227 565.551 123.273C565.445 123.318 565.363 123.38 565.304 123.457C565.245 123.533 565.216 123.628 565.216 123.741C565.216 123.906 565.276 124.032 565.395 124.119C565.516 124.205 565.67 124.247 565.855 124.247ZM572.536 121.881L571.428 121.949C571.409 121.854 571.368 121.769 571.305 121.693C571.243 121.616 571.161 121.554 571.058 121.509C570.958 121.461 570.838 121.438 570.697 121.438C570.51 121.438 570.352 121.477 570.223 121.557C570.094 121.634 570.03 121.739 570.03 121.869C570.03 121.973 570.071 122.062 570.155 122.134C570.238 122.205 570.381 122.263 570.584 122.307L571.374 122.466C571.798 122.553 572.114 122.693 572.322 122.886C572.531 123.08 572.635 123.333 572.635 123.648C572.635 123.934 572.551 124.185 572.382 124.401C572.215 124.616 571.986 124.785 571.695 124.906C571.405 125.026 571.071 125.085 570.692 125.085C570.114 125.085 569.654 124.965 569.311 124.724C568.97 124.482 568.77 124.152 568.712 123.736L569.902 123.673C569.938 123.849 570.025 123.984 570.163 124.077C570.302 124.168 570.479 124.213 570.695 124.213C570.907 124.213 571.077 124.172 571.206 124.091C571.337 124.008 571.403 123.901 571.405 123.77C571.403 123.66 571.357 123.57 571.266 123.5C571.175 123.428 571.035 123.373 570.845 123.335L570.089 123.185C569.663 123.099 569.346 122.952 569.138 122.741C568.931 122.531 568.828 122.263 568.828 121.938C568.828 121.657 568.904 121.416 569.055 121.213C569.209 121.01 569.424 120.854 569.7 120.744C569.979 120.634 570.304 120.58 570.678 120.58C571.229 120.58 571.662 120.696 571.979 120.929C572.297 121.162 572.482 121.479 572.536 121.881ZM574.607 122.477V125H573.397V119.182H574.573V121.406H574.624C574.723 121.149 574.882 120.947 575.102 120.801C575.321 120.653 575.597 120.58 575.928 120.58C576.231 120.58 576.496 120.646 576.721 120.778C576.948 120.909 577.124 121.098 577.249 121.344C577.376 121.588 577.439 121.881 577.437 122.222V125H576.227V122.438C576.228 122.169 576.16 121.959 576.022 121.81C575.886 121.66 575.694 121.585 575.448 121.585C575.283 121.585 575.138 121.62 575.011 121.69C574.886 121.76 574.787 121.863 574.715 121.997C574.645 122.13 574.609 122.29 574.607 122.477Z" fill="black"/>
<path d="M556.328 141.548C556.328 146.294 552.588 150.096 548.03 150.096C543.471 150.096 539.731 146.294 539.731 141.548C539.731 136.802 543.471 133 548.03 133C552.588 133 556.328 136.802 556.328 141.548Z" fill="#024D36" stroke="white" stroke-width="2"/>
<path d="M654.369 120.855C654.346 120.626 654.249 120.448 654.076 120.321C653.904 120.194 653.67 120.131 653.375 120.131C653.174 120.131 653.004 120.159 652.866 120.216C652.728 120.271 652.622 120.348 652.548 120.446C652.476 120.545 652.44 120.656 652.44 120.781C652.436 120.885 652.458 120.976 652.505 121.054C652.555 121.132 652.622 121.199 652.707 121.256C652.792 121.311 652.891 121.359 653.002 121.401C653.114 121.44 653.234 121.474 653.36 121.503L653.883 121.628C654.137 121.685 654.37 121.76 654.582 121.855C654.794 121.95 654.978 122.066 655.133 122.205C655.288 122.343 655.409 122.506 655.494 122.693C655.581 122.881 655.626 123.096 655.627 123.338C655.626 123.694 655.535 124.003 655.355 124.264C655.177 124.524 654.919 124.725 654.582 124.869C654.247 125.011 653.842 125.082 653.369 125.082C652.899 125.082 652.49 125.01 652.142 124.866C651.795 124.723 651.524 124.509 651.329 124.227C651.136 123.943 651.035 123.592 651.025 123.173H652.216C652.229 123.368 652.285 123.531 652.383 123.662C652.484 123.791 652.617 123.888 652.784 123.955C652.952 124.019 653.143 124.051 653.355 124.051C653.563 124.051 653.744 124.021 653.897 123.96C654.053 123.9 654.173 123.815 654.258 123.707C654.343 123.599 654.386 123.475 654.386 123.335C654.386 123.205 654.347 123.095 654.27 123.006C654.194 122.917 654.082 122.841 653.934 122.778C653.788 122.716 653.609 122.659 653.397 122.608L652.764 122.449C652.273 122.33 651.886 122.143 651.602 121.889C651.318 121.635 651.177 121.294 651.179 120.864C651.177 120.511 651.27 120.204 651.46 119.94C651.651 119.677 651.913 119.472 652.247 119.324C652.58 119.176 652.959 119.102 653.383 119.102C653.815 119.102 654.192 119.176 654.514 119.324C654.838 119.472 655.09 119.677 655.27 119.94C655.449 120.204 655.542 120.509 655.548 120.855H654.369ZM658.404 125.085C657.962 125.085 657.581 124.991 657.259 124.804C656.939 124.615 656.692 124.351 656.517 124.014C656.343 123.675 656.256 123.282 656.256 122.835C656.256 122.384 656.343 121.991 656.517 121.653C656.692 121.314 656.939 121.051 657.259 120.864C657.581 120.674 657.962 120.58 658.404 120.58C658.845 120.58 659.226 120.674 659.546 120.864C659.868 121.051 660.116 121.314 660.29 121.653C660.464 121.991 660.551 122.384 660.551 122.835C660.551 123.282 660.464 123.675 660.29 124.014C660.116 124.351 659.868 124.615 659.546 124.804C659.226 124.991 658.845 125.085 658.404 125.085ZM658.409 124.148C658.61 124.148 658.778 124.091 658.912 123.977C659.047 123.862 659.148 123.705 659.216 123.506C659.286 123.307 659.321 123.08 659.321 122.827C659.321 122.573 659.286 122.347 659.216 122.148C659.148 121.949 659.047 121.792 658.912 121.676C658.778 121.561 658.61 121.503 658.409 121.503C658.207 121.503 658.036 121.561 657.898 121.676C657.762 121.792 657.658 121.949 657.588 122.148C657.52 122.347 657.486 122.573 657.486 122.827C657.486 123.08 657.52 123.307 657.588 123.506C657.658 123.705 657.762 123.862 657.898 123.977C658.036 124.091 658.207 124.148 658.409 124.148ZM664.137 123.142V120.636H665.347V125H664.185V124.207H664.14C664.041 124.463 663.877 124.669 663.648 124.824C663.421 124.979 663.143 125.057 662.816 125.057C662.524 125.057 662.267 124.991 662.046 124.858C661.824 124.725 661.651 124.537 661.526 124.293C661.403 124.048 661.34 123.756 661.338 123.415V120.636H662.549V123.199C662.551 123.456 662.62 123.66 662.756 123.81C662.892 123.959 663.075 124.034 663.304 124.034C663.45 124.034 663.587 124.001 663.713 123.935C663.84 123.866 663.943 123.766 664.02 123.634C664.1 123.501 664.139 123.337 664.137 123.142ZM668.636 120.636V121.545H666.008V120.636H668.636ZM666.605 119.591H667.815V123.659C667.815 123.771 667.832 123.858 667.866 123.92C667.9 123.981 667.948 124.024 668.008 124.048C668.071 124.073 668.143 124.085 668.224 124.085C668.281 124.085 668.338 124.08 668.395 124.071C668.451 124.06 668.495 124.051 668.525 124.045L668.716 124.946C668.655 124.965 668.57 124.987 668.46 125.011C668.35 125.038 668.217 125.054 668.059 125.06C667.768 125.071 667.512 125.032 667.292 124.943C667.074 124.854 666.905 124.716 666.784 124.528C666.663 124.341 666.603 124.104 666.605 123.818V119.591ZM670.728 122.477V125H669.518V119.182H670.694V121.406H670.745C670.844 121.149 671.003 120.947 671.223 120.801C671.442 120.653 671.718 120.58 672.049 120.58C672.352 120.58 672.617 120.646 672.842 120.778C673.069 120.909 673.245 121.098 673.37 121.344C673.497 121.588 673.56 121.881 673.558 122.222V125H672.348V122.438C672.35 122.169 672.281 121.959 672.143 121.81C672.007 121.66 671.815 121.585 671.569 121.585C671.404 121.585 671.259 121.62 671.132 121.69C671.007 121.76 670.908 121.863 670.836 121.997C670.766 122.13 670.73 122.29 670.728 122.477ZM678.581 122.977H679.626L680.152 123.653L680.669 124.256L681.643 125.477H680.495L679.825 124.653L679.481 124.165L678.581 122.977ZM681.731 122.091C681.731 122.725 681.611 123.265 681.37 123.71C681.132 124.155 680.806 124.495 680.393 124.73C679.982 124.963 679.52 125.08 679.007 125.08C678.49 125.08 678.026 124.962 677.615 124.727C677.204 124.492 676.879 124.152 676.64 123.707C676.402 123.262 676.282 122.723 676.282 122.091C676.282 121.456 676.402 120.917 676.64 120.472C676.879 120.027 677.204 119.687 677.615 119.455C678.026 119.22 678.49 119.102 679.007 119.102C679.52 119.102 679.982 119.22 680.393 119.455C680.806 119.687 681.132 120.027 681.37 120.472C681.611 120.917 681.731 121.456 681.731 122.091ZM680.484 122.091C680.484 121.68 680.422 121.333 680.299 121.051C680.178 120.769 680.007 120.555 679.785 120.409C679.564 120.263 679.304 120.19 679.007 120.19C678.709 120.19 678.45 120.263 678.228 120.409C678.007 120.555 677.834 120.769 677.711 121.051C677.59 121.333 677.529 121.68 677.529 122.091C677.529 122.502 677.59 122.848 677.711 123.131C677.834 123.413 678.007 123.627 678.228 123.773C678.45 123.919 678.709 123.991 679.007 123.991C679.304 123.991 679.564 123.919 679.785 123.773C680.007 123.627 680.178 123.413 680.299 123.131C680.422 122.848 680.484 122.502 680.484 122.091ZM685.418 123.142V120.636H686.628V125H685.466V124.207H685.421C685.322 124.463 685.158 124.669 684.929 124.824C684.702 124.979 684.425 125.057 684.097 125.057C683.805 125.057 683.549 124.991 683.327 124.858C683.105 124.725 682.932 124.537 682.807 124.293C682.684 124.048 682.622 123.756 682.62 123.415V120.636H683.83V123.199C683.832 123.456 683.901 123.66 684.037 123.81C684.174 123.959 684.356 124.034 684.586 124.034C684.731 124.034 684.868 124.001 684.995 123.935C685.122 123.866 685.224 123.766 685.301 123.634C685.381 123.501 685.42 123.337 685.418 123.142ZM688.841 125.082C688.562 125.082 688.314 125.034 688.096 124.938C687.878 124.839 687.706 124.694 687.579 124.503C687.454 124.31 687.392 124.069 687.392 123.781C687.392 123.539 687.436 123.335 687.525 123.17C687.614 123.006 687.735 122.873 687.889 122.773C688.042 122.672 688.217 122.597 688.412 122.545C688.609 122.494 688.815 122.458 689.031 122.438C689.285 122.411 689.489 122.386 689.645 122.364C689.8 122.339 689.913 122.303 689.983 122.256C690.053 122.208 690.088 122.138 690.088 122.045V122.028C690.088 121.848 690.031 121.709 689.917 121.611C689.806 121.512 689.646 121.463 689.44 121.463C689.222 121.463 689.049 121.511 688.92 121.608C688.791 121.703 688.706 121.822 688.664 121.966L687.545 121.875C687.602 121.61 687.714 121.381 687.88 121.188C688.047 120.992 688.262 120.843 688.525 120.739C688.79 120.633 689.097 120.58 689.446 120.58C689.688 120.58 689.92 120.608 690.142 120.665C690.365 120.722 690.563 120.81 690.735 120.929C690.91 121.048 691.047 121.202 691.147 121.389C691.248 121.575 691.298 121.797 691.298 122.057V125H690.15V124.395H690.116C690.046 124.531 689.952 124.652 689.835 124.756C689.717 124.858 689.576 124.938 689.412 124.997C689.247 125.054 689.056 125.082 688.841 125.082ZM689.187 124.247C689.365 124.247 689.522 124.212 689.659 124.142C689.795 124.07 689.902 123.973 689.98 123.852C690.057 123.731 690.096 123.594 690.096 123.44V122.977C690.058 123.002 690.006 123.025 689.94 123.045C689.876 123.064 689.803 123.082 689.721 123.099C689.64 123.115 689.558 123.129 689.477 123.142C689.395 123.153 689.322 123.164 689.255 123.173C689.113 123.194 688.989 123.227 688.883 123.273C688.777 123.318 688.695 123.38 688.636 123.457C688.577 123.533 688.548 123.628 688.548 123.741C688.548 123.906 688.608 124.032 688.727 124.119C688.848 124.205 689.002 124.247 689.187 124.247ZM692.828 126.636C692.674 126.636 692.53 126.624 692.396 126.599C692.263 126.577 692.154 126.547 692.066 126.511L692.339 125.608C692.481 125.652 692.609 125.675 692.723 125.679C692.838 125.683 692.938 125.656 693.021 125.599C693.106 125.543 693.175 125.446 693.228 125.31L693.299 125.125L691.734 120.636H693.007L693.91 123.841H693.956L694.868 120.636H696.149L694.453 125.472C694.371 125.706 694.261 125.911 694.12 126.085C693.982 126.261 693.807 126.397 693.595 126.491C693.383 126.588 693.127 126.636 692.828 126.636ZM701.338 121.611V122.571H698.685V121.611H701.338ZM707.838 119.182H709.068V122.96C709.068 123.384 708.967 123.756 708.764 124.074C708.563 124.392 708.282 124.64 707.92 124.818C707.558 124.994 707.137 125.082 706.656 125.082C706.173 125.082 705.751 124.994 705.389 124.818C705.027 124.64 704.746 124.392 704.545 124.074C704.344 123.756 704.244 123.384 704.244 122.96V119.182H705.474V122.855C705.474 123.077 705.522 123.274 705.619 123.446C705.717 123.618 705.856 123.754 706.034 123.852C706.212 123.951 706.419 124 706.656 124C706.895 124 707.102 123.951 707.278 123.852C707.456 123.754 707.593 123.618 707.69 123.446C707.788 123.274 707.838 123.077 707.838 122.855V119.182ZM713.236 120.855C713.213 120.626 713.116 120.448 712.944 120.321C712.771 120.194 712.537 120.131 712.242 120.131C712.041 120.131 711.872 120.159 711.733 120.216C711.595 120.271 711.489 120.348 711.415 120.446C711.343 120.545 711.307 120.656 711.307 120.781C711.303 120.885 711.325 120.976 711.373 121.054C711.422 121.132 711.489 121.199 711.574 121.256C711.659 121.311 711.758 121.359 711.87 121.401C711.981 121.44 712.101 121.474 712.228 121.503L712.75 121.628C713.004 121.685 713.237 121.76 713.449 121.855C713.661 121.95 713.845 122.066 714 122.205C714.156 122.343 714.276 122.506 714.361 122.693C714.448 122.881 714.493 123.096 714.495 123.338C714.493 123.694 714.402 124.003 714.222 124.264C714.044 124.524 713.786 124.725 713.449 124.869C713.114 125.011 712.71 125.082 712.236 125.082C711.766 125.082 711.357 125.01 711.009 124.866C710.662 124.723 710.391 124.509 710.196 124.227C710.003 123.943 709.902 123.592 709.892 123.173H711.083C711.096 123.368 711.152 123.531 711.25 123.662C711.351 123.791 711.484 123.888 711.651 123.955C711.819 124.019 712.01 124.051 712.222 124.051C712.43 124.051 712.611 124.021 712.765 123.96C712.92 123.9 713.04 123.815 713.125 123.707C713.211 123.599 713.253 123.475 713.253 123.335C713.253 123.205 713.214 123.095 713.137 123.006C713.061 122.917 712.949 122.841 712.801 122.778C712.656 122.716 712.477 122.659 712.265 122.608L711.631 122.449C711.141 122.33 710.753 122.143 710.469 121.889C710.185 121.635 710.044 121.294 710.046 120.864C710.044 120.511 710.138 120.204 710.327 119.94C710.518 119.677 710.781 119.472 711.114 119.324C711.447 119.176 711.826 119.102 712.25 119.102C712.682 119.102 713.059 119.176 713.381 119.324C713.705 119.472 713.957 119.677 714.137 119.94C714.317 120.204 714.409 120.509 714.415 120.855H713.236ZM717.652 119.182H718.868V123.239C718.868 123.614 718.783 123.939 718.615 124.216C718.448 124.492 718.216 124.705 717.919 124.855C717.621 125.005 717.276 125.08 716.882 125.08C716.531 125.08 716.213 125.018 715.927 124.895C715.643 124.77 715.418 124.58 715.251 124.327C715.084 124.071 715.002 123.75 715.004 123.364H716.228C716.232 123.517 716.263 123.649 716.322 123.759C716.383 123.866 716.465 123.95 716.569 124.009C716.675 124.065 716.8 124.094 716.944 124.094C717.096 124.094 717.224 124.062 717.328 123.997C717.434 123.931 717.514 123.834 717.569 123.707C717.624 123.58 717.652 123.424 717.652 123.239V119.182ZM722.382 119.182V125H721.152V120.349H721.118L719.785 121.185V120.094L721.225 119.182H722.382Z" fill="black"/>
<path d="M695.328 141.548C695.328 146.294 691.588 150.096 687.03 150.096C682.471 150.096 678.731 146.294 678.731 141.548C678.731 136.802 682.471 133 687.03 133C691.588 133 695.328 136.802 695.328 141.548Z" fill="#024D36" stroke="white" stroke-width="2"/>
<path d="M819.9 119.182H821.13V122.96C821.13 123.384 821.029 123.756 820.826 124.074C820.626 124.392 820.344 124.64 819.983 124.818C819.621 124.994 819.199 125.082 818.718 125.082C818.235 125.082 817.813 124.994 817.451 124.818C817.09 124.64 816.808 124.392 816.608 124.074C816.407 123.756 816.306 123.384 816.306 122.96V119.182H817.537V122.855C817.537 123.077 817.585 123.274 817.681 123.446C817.78 123.618 817.918 123.754 818.096 123.852C818.274 123.951 818.482 124 818.718 124C818.957 124 819.164 123.951 819.341 123.852C819.519 123.754 819.656 123.618 819.752 123.446C819.851 123.274 819.9 123.077 819.9 122.855V119.182ZM825.299 120.855C825.276 120.626 825.178 120.448 825.006 120.321C824.834 120.194 824.6 120.131 824.304 120.131C824.104 120.131 823.934 120.159 823.796 120.216C823.658 120.271 823.551 120.348 823.478 120.446C823.406 120.545 823.37 120.656 823.37 120.781C823.366 120.885 823.388 120.976 823.435 121.054C823.484 121.132 823.551 121.199 823.637 121.256C823.722 121.311 823.82 121.359 823.932 121.401C824.044 121.44 824.163 121.474 824.29 121.503L824.813 121.628C825.067 121.685 825.3 121.76 825.512 121.855C825.724 121.95 825.908 122.066 826.063 122.205C826.218 122.343 826.338 122.506 826.424 122.693C826.511 122.881 826.555 123.096 826.557 123.338C826.555 123.694 826.464 124.003 826.284 124.264C826.106 124.524 825.849 124.725 825.512 124.869C825.176 125.011 824.772 125.082 824.299 125.082C823.829 125.082 823.42 125.01 823.071 124.866C822.725 124.723 822.454 124.509 822.259 124.227C822.066 123.943 821.964 123.592 821.955 123.173H823.145C823.158 123.368 823.214 123.531 823.313 123.662C823.413 123.791 823.547 123.888 823.713 123.955C823.882 124.019 824.072 124.051 824.284 124.051C824.493 124.051 824.674 124.021 824.827 123.96C824.982 123.9 825.103 123.815 825.188 123.707C825.273 123.599 825.316 123.475 825.316 123.335C825.316 123.205 825.277 123.095 825.199 123.006C825.123 122.917 825.012 122.841 824.864 122.778C824.718 122.716 824.539 122.659 824.327 122.608L823.694 122.449C823.203 122.33 822.816 122.143 822.532 121.889C822.248 121.635 822.106 121.294 822.108 120.864C822.106 120.511 822.2 120.204 822.39 119.94C822.581 119.677 822.843 119.472 823.176 119.324C823.51 119.176 823.889 119.102 824.313 119.102C824.745 119.102 825.122 119.176 825.444 119.324C825.767 119.472 826.019 119.677 826.199 119.94C826.379 120.204 826.472 120.509 826.478 120.855H825.299ZM829.714 119.182H830.93V123.239C830.93 123.614 830.846 123.939 830.677 124.216C830.511 124.492 830.279 124.705 829.981 124.855C829.684 125.005 829.338 125.08 828.944 125.08C828.594 125.08 828.276 125.018 827.99 124.895C827.706 124.77 827.48 124.58 827.314 124.327C827.147 124.071 827.065 123.75 827.066 123.364H828.291C828.295 123.517 828.326 123.649 828.385 123.759C828.445 123.866 828.528 123.95 828.632 124.009C828.738 124.065 828.863 124.094 829.007 124.094C829.158 124.094 829.286 124.062 829.39 123.997C829.496 123.931 829.577 123.834 829.632 123.707C829.687 123.58 829.714 123.424 829.714 123.239V119.182ZM832.143 125L834.555 120.227V120.188H831.745V119.182H835.828V120.202L833.413 125H832.143Z" fill="black"/>
<path d="M834.328 141.548C834.328 146.294 830.588 150.096 826.03 150.096C821.471 150.096 817.731 146.294 817.731 141.548C817.731 136.802 821.471 133 826.03 133C830.588 133 834.328 136.802 834.328 141.548Z" fill="#024D36" stroke="white" stroke-width="2"/>
<path d="M51 99.9133C51 100.512 50.5322 101 49.9542 101L32.0458 101C31.4676 101 31 100.512 31 99.9133L31 90.0857C31 89.4855 31.4676 89 32.0458 89L49.9542 89C50.5322 89 51 89.4855 51 90.0857L51 99.9133Z" fill="#EE2722"/>
<path d="M43.1737 95.4156L43.1737 95.7439L39.7414 95.7439L39.7414 95.426L39.4248 95.426C39.0761 95.426 39.0618 95.0426 39.0618 95.0426L39.117 93.4382L39.3321 91.533C39.3321 91.533 41.2783 90.3336 43.5742 91.533L43.7894 93.4382L43.8457 95.0426C43.8457 95.0426 43.8335 95.426 43.4838 95.426L43.166 95.426L43.166 95.7439L39.7326 95.7439L39.7326 95.4156" fill="white"/>
<path d="M43.1737 95.4156L43.1737 95.7439L39.7414 95.7439L39.7414 95.426L39.4248 95.426C39.0761 95.426 39.0618 95.0426 39.0618 95.0426L39.117 93.4382L39.3321 91.533C39.3321 91.533 41.2783 90.3336 43.5742 91.533L43.7894 93.4382L43.8457 95.0426C43.8457 95.0426 43.8335 95.426 43.4838 95.426L43.166 95.426L43.166 95.7439L39.7326 95.7439L39.7326 95.4156" stroke="white"/>
<path d="M43.3559 95.1323L42.1742 95.1323L42.1742 94.4713L43.3559 94.4713L43.3559 95.1323Z" fill="#EE2722"/>
<path d="M40.7333 95.1323L39.5529 95.1323L39.5529 94.4713L40.7333 94.4713L40.7333 95.1323Z" fill="#EE2722"/>
<path d="M42.1312 95.6763L40.7621 95.6763L40.7621 95.2884L42.1312 95.2884L42.1312 95.6763Z" fill="#EE2722"/>
<path d="M39.5307 91.882C39.5307 91.882 41.318 90.4521 43.3391 91.85L43.5421 93.3994L39.3651 93.3994L39.5307 91.882Z" fill="#EE2722"/>
<path d="M41.4548 91.2497L41.4548 93.3855" stroke="white"/>
<path d="M40.4949 95.674L39 97.2302" stroke="white"/>
<path d="M42.4532 95.674L43.9482 97.2302" stroke="white"/>
<path d="M39.9578 96.2053L42.9232 96.2053" stroke="white"/>
<path d="M39.4546 96.7573L43.475 96.7573" stroke="white"/>
<path d="M39.6458 97.8183L39.9821 97.8183L39.9821 98.2475L40.3332 97.8183L40.7822 97.8183L40.3861 98.2463L40.7976 98.9509L40.3861 98.9509L40.1542 98.4839L39.9821 98.6732L39.9821 98.9509L39.6458 98.9509L39.6458 97.8183Z" fill="white"/>
<path d="M40.8428 97.8183L41.8611 97.8183L41.8611 98.0983L41.5179 98.0983L41.5179 98.9509L41.1838 98.9509L41.1838 98.0983L40.8428 98.0983L40.8428 97.8183Z" fill="white"/>
<path d="M42.0178 97.8183L42.458 97.8183L42.6301 98.508L42.7989 97.8183L43.2391 97.8183L43.2391 98.9509L42.9644 98.9509L42.9644 98.0903L42.7537 98.9509L42.5032 98.9509L42.2925 98.0903L42.2925 98.9509L42.0178 98.9509L42.0178 97.8183Z" fill="white"/>
<path d="M816 99.2312C816 99.7927 816.468 100.25 817.046 100.25L834.954 100.25C835.532 100.25 836 99.7927 836 99.2312L836 90.0179C836 89.4551 835.532 89 834.954 89L817.046 89C816.468 89 816 89.4551 816 90.0179L816 99.2312Z" fill="#ED114C"/>
<path d="M824.444 95.1721C824.761 95.2248 824.951 95.6412 824.951 95.6412C823.932 95.6379 823.985 95.0377 823.985 95.0377C824.033 95.1065 824.444 95.1721 824.444 95.1721ZM827.842 95.0377C827.842 95.0377 827.89 95.6379 826.875 95.6412C826.875 95.6412 827.065 95.2248 827.383 95.1721C827.383 95.1721 827.793 95.1065 827.842 95.0377ZM827.237 92.5145C827.489 92.5316 827.577 92.7619 827.577 92.7619C827.577 92.7619 827.873 93.5076 826.544 94.2393C826.544 94.2393 826.195 94.3899 825.913 94.3899C825.626 94.3899 825.282 94.2393 825.282 94.2393C823.958 93.5076 824.249 92.7619 824.249 92.7619C824.249 92.7619 824.338 92.5316 824.593 92.5145C824.704 92.5081 825.913 92.5037 825.913 92.5037C825.913 92.5037 827.122 92.5081 827.237 92.5145ZM826.937 96.4675C828.151 96.1889 828.212 95.8994 828.212 94.7223C828.212 93.5431 827.903 92.3144 827.903 92.3144C827.753 91.4773 827.069 91.5 827.069 91.5L825.917 91.5L824.774 91.5C824.774 91.5 824.09 91.4773 823.94 92.3144C823.94 92.3144 823.627 93.5431 823.627 94.7223C823.627 95.8994 823.693 96.1889 824.903 96.4675C824.903 96.4675 825.26 96.5676 825.917 96.5676C826.579 96.5676 826.937 96.4675 826.937 96.4675Z" fill="white"/>
<path d="M827.687 96.3427L828.839 96.9366C829.417 97.1904 828.998 97.1464 828.64 97.1517C828.203 97.1593 828.018 97.1626 828.018 97.1626C827.864 97.1626 827.797 97.1259 827.639 96.9581L827.184 96.4976C827.374 96.4546 827.462 96.4353 827.687 96.3427Z" fill="white"/>
<path d="M824.139 96.3427L822.987 96.9366C822.409 97.1904 822.828 97.1464 823.186 97.1517C823.623 97.1593 823.808 97.1626 823.808 97.1626C823.962 97.1626 824.029 97.1259 824.183 96.9581L824.642 96.4976C824.448 96.4546 824.364 96.4353 824.139 96.3427Z" fill="white"/>
<path d="M824.686 96.7128L824.567 96.8279L827.272 96.8279L827.131 96.7128L824.686 96.7128Z" fill="white"/>
<path d="M824.426 96.9571L824.271 97.1067L827.555 97.1067L827.396 96.9571L824.426 96.9571Z" fill="white"/>
</svg>
