<svg width="867" height="281" viewBox="0 0 867 281" fill="none" xmlns="http://www.w3.org/2000/svg">
<rect width="867" height="281" fill="white"/>
<path d="M831 141H37" stroke="#99168C" stroke-width="6" stroke-linecap="round"/>
<path d="M21.0135 125V119.182H22.2436V121.747H22.3203L24.4141 119.182H25.8885L23.7294 121.787L25.9141 125H24.4425L22.8487 122.608L22.2436 123.347V125H21.0135ZM26.5291 125V119.182H27.7592V123.986H30.2536V125H26.5291ZM36.076 120.855C36.0533 120.626 35.9557 120.448 35.7834 120.321C35.611 120.194 35.3771 120.131 35.0817 120.131C34.8809 120.131 34.7114 120.159 34.5732 120.216C34.4349 120.271 34.3288 120.348 34.255 120.446C34.183 120.545 34.147 120.656 34.147 120.781C34.1432 120.885 34.165 120.976 34.2124 121.054C34.2616 121.132 34.3288 121.199 34.4141 121.256C34.4993 121.311 34.5978 121.359 34.7095 121.401C34.8213 121.44 34.9406 121.474 35.0675 121.503L35.5902 121.628C35.844 121.685 36.0769 121.76 36.2891 121.855C36.5012 121.95 36.6849 122.066 36.8402 122.205C36.9955 122.343 37.1158 122.506 37.201 122.693C37.2881 122.881 37.3326 123.096 37.3345 123.338C37.3326 123.694 37.2417 124.003 37.0618 124.264C36.8838 124.524 36.6262 124.725 36.2891 124.869C35.9538 125.011 35.5495 125.082 35.076 125.082C34.6063 125.082 34.1972 125.01 33.8487 124.866C33.5021 124.723 33.2313 124.509 33.0362 124.227C32.843 123.943 32.7417 123.592 32.7322 123.173H33.9226C33.9358 123.368 33.9917 123.531 34.0902 123.662C34.1906 123.791 34.3241 123.888 34.4908 123.955C34.6593 124.019 34.8497 124.051 35.0618 124.051C35.2701 124.051 35.451 124.021 35.6044 123.96C35.7597 123.9 35.88 123.815 35.9652 123.707C36.0504 123.599 36.093 123.475 36.093 123.335C36.093 123.205 36.0542 123.095 35.9766 123.006C35.9008 122.917 35.7891 122.841 35.6413 122.778C35.4955 122.716 35.3165 122.659 35.1044 122.608L34.4709 122.449C33.9804 122.33 33.593 122.143 33.3089 121.889C33.0249 121.635 32.8838 121.294 32.8857 120.864C32.8838 120.511 32.9775 120.204 33.1669 119.94C33.3582 119.677 33.6205 119.472 33.9538 119.324C34.2872 119.176 34.666 119.102 35.0902 119.102C35.522 119.102 35.8989 119.176 36.2209 119.324C36.5447 119.472 36.7966 119.677 36.9766 119.94C37.1565 120.204 37.2493 120.509 37.255 120.855H36.076ZM40.1278 125.085C39.679 125.085 39.2926 124.994 38.9688 124.812C38.6468 124.629 38.3987 124.369 38.2244 124.034C38.0502 123.697 37.9631 123.298 37.9631 122.838C37.9631 122.389 38.0502 121.995 38.2244 121.656C38.3987 121.317 38.6439 121.053 38.9602 120.864C39.2784 120.674 39.6515 120.58 40.0795 120.58C40.3674 120.58 40.6354 120.626 40.8835 120.719C41.1335 120.81 41.3513 120.947 41.5369 121.131C41.7244 121.314 41.8703 121.545 41.9744 121.824C42.0786 122.1 42.1307 122.424 42.1307 122.795V123.128H38.446V122.378H40.9915C40.9915 122.204 40.9536 122.049 40.8778 121.915C40.8021 121.78 40.697 121.675 40.5625 121.599C40.4299 121.522 40.2756 121.483 40.0994 121.483C39.9157 121.483 39.7528 121.526 39.6108 121.611C39.4706 121.694 39.3608 121.807 39.2812 121.949C39.2017 122.089 39.161 122.245 39.1591 122.418V123.131C39.1591 123.347 39.1989 123.533 39.2784 123.69C39.3598 123.848 39.4744 123.969 39.6222 124.054C39.7699 124.139 39.9451 124.182 40.1477 124.182C40.2822 124.182 40.4053 124.163 40.517 124.125C40.6288 124.087 40.7244 124.03 40.804 123.955C40.8835 123.879 40.9441 123.786 40.9858 123.676L42.1051 123.75C42.0483 124.019 41.9318 124.254 41.7557 124.455C41.5814 124.653 41.3561 124.809 41.0795 124.92C40.8049 125.03 40.4877 125.085 40.1278 125.085ZM44.1307 122.477V125H42.9205V120.636H44.0739V121.406H44.125C44.2216 121.152 44.3835 120.952 44.6108 120.804C44.8381 120.654 45.1136 120.58 45.4375 120.58C45.7405 120.58 46.0047 120.646 46.2301 120.778C46.4555 120.911 46.6307 121.1 46.7557 121.347C46.8807 121.591 46.9432 121.883 46.9432 122.222V125H45.733V122.438C45.7348 122.17 45.6667 121.962 45.5284 121.812C45.3902 121.661 45.1998 121.585 44.9574 121.585C44.7945 121.585 44.6506 121.62 44.5256 121.69C44.4025 121.76 44.3059 121.863 44.2358 121.997C44.1676 122.13 44.1326 122.29 44.1307 122.477ZM50.218 120.636V121.545H47.5902V120.636H50.218ZM48.1868 119.591H49.397V123.659C49.397 123.771 49.4141 123.858 49.4482 123.92C49.4822 123.981 49.5296 124.024 49.5902 124.048C49.6527 124.073 49.7247 124.085 49.8061 124.085C49.8629 124.085 49.9197 124.08 49.9766 124.071C50.0334 124.06 50.0769 124.051 50.1072 124.045L50.2976 124.946C50.237 124.965 50.1518 124.987 50.0419 125.011C49.9321 125.038 49.7985 125.054 49.6413 125.06C49.3497 125.071 49.094 125.032 48.8743 124.943C48.6565 124.854 48.487 124.716 48.3658 124.528C48.2446 124.341 48.1849 124.104 48.1868 123.818V119.591ZM51.0064 125V120.636H52.1797V121.398H52.2251C52.3047 121.127 52.4382 120.922 52.6257 120.784C52.8132 120.644 53.0291 120.574 53.2734 120.574C53.334 120.574 53.3994 120.578 53.4695 120.585C53.5395 120.593 53.6011 120.603 53.6541 120.616V121.69C53.5973 121.673 53.5187 121.658 53.4183 121.645C53.3179 121.632 53.2261 121.625 53.1428 121.625C52.9647 121.625 52.8056 121.664 52.6655 121.741C52.5272 121.817 52.4174 121.923 52.3359 122.06C52.2564 122.196 52.2166 122.353 52.2166 122.531V125H51.0064ZM55.3991 125.082C55.1207 125.082 54.8726 125.034 54.6548 124.938C54.437 124.839 54.2647 124.694 54.1378 124.503C54.0128 124.31 53.9503 124.069 53.9503 123.781C53.9503 123.539 53.9948 123.335 54.0838 123.17C54.1728 123.006 54.294 122.873 54.4474 122.773C54.6009 122.672 54.7751 122.597 54.9702 122.545C55.1671 122.494 55.3736 122.458 55.5895 122.438C55.8433 122.411 56.0478 122.386 56.2031 122.364C56.3584 122.339 56.4711 122.303 56.5412 122.256C56.6113 122.208 56.6463 122.138 56.6463 122.045V122.028C56.6463 121.848 56.5895 121.709 56.4759 121.611C56.3641 121.512 56.205 121.463 55.9986 121.463C55.7808 121.463 55.6075 121.511 55.4787 121.608C55.3499 121.703 55.2647 121.822 55.223 121.966L54.1037 121.875C54.1605 121.61 54.2723 121.381 54.4389 121.188C54.6056 120.992 54.8205 120.843 55.0838 120.739C55.349 120.633 55.6558 120.58 56.0043 120.58C56.2467 120.58 56.4787 120.608 56.7003 120.665C56.9238 120.722 57.1217 120.81 57.294 120.929C57.4683 121.048 57.6056 121.202 57.706 121.389C57.8063 121.575 57.8565 121.797 57.8565 122.057V125H56.7088V124.395H56.6747C56.6046 124.531 56.5109 124.652 56.3935 124.756C56.276 124.858 56.1349 124.938 55.9702 124.997C55.8054 125.054 55.6151 125.082 55.3991 125.082ZM55.7457 124.247C55.9238 124.247 56.081 124.212 56.2173 124.142C56.3537 124.07 56.4607 123.973 56.5384 123.852C56.616 123.731 56.6548 123.594 56.6548 123.44V122.977C56.617 123.002 56.5649 123.025 56.4986 123.045C56.4342 123.064 56.3613 123.082 56.2798 123.099C56.1984 123.115 56.117 123.129 56.0355 123.142C55.9541 123.153 55.8802 123.164 55.8139 123.173C55.6719 123.194 55.5478 123.227 55.4418 123.273C55.3357 123.318 55.2533 123.38 55.1946 123.457C55.1359 123.533 55.1065 123.628 55.1065 123.741C55.1065 123.906 55.1662 124.032 55.2855 124.119C55.4067 124.205 55.5601 124.247 55.7457 124.247ZM60.0057 119.182V125H58.7955V119.182H60.0057Z" fill="black"/>
<path d="M49.7462 141.548C49.7462 146.255 45.868 150.096 41.0519 150.096C36.2358 150.096 32.3577 146.255 32.3577 141.548C32.3577 136.841 36.2358 133 41.0519 133C45.868 133 49.7462 136.841 49.7462 141.548Z" fill="#99168C" stroke="white" stroke-width="2"/>
<path d="M401.537 125V119.182H402.767V121.747H402.844L404.938 119.182H406.412L404.253 121.787L406.438 125H404.966L403.372 122.608L402.767 123.347V125H401.537ZM407.053 125V119.182H408.283V123.986H410.777V125H407.053ZM412.822 119.182V125H411.592V119.182H412.822ZM414.837 125H413.518L415.527 119.182H417.112L419.118 125H417.8L416.342 120.511H416.297L414.837 125ZM414.754 122.713H417.868V123.673H414.754V122.713ZM421.448 120.196V119.182H426.227V120.196H424.445V125H423.229V120.196H421.448ZM428.347 125.085C427.898 125.085 427.511 124.994 427.188 124.812C426.866 124.629 426.617 124.369 426.443 124.034C426.269 123.697 426.182 123.298 426.182 122.838C426.182 122.389 426.269 121.995 426.443 121.656C426.617 121.317 426.863 121.053 427.179 120.864C427.497 120.674 427.87 120.58 428.298 120.58C428.586 120.58 428.854 120.626 429.102 120.719C429.352 120.81 429.57 120.947 429.756 121.131C429.943 121.314 430.089 121.545 430.193 121.824C430.297 122.1 430.349 122.424 430.349 122.795V123.128H426.665V122.378H429.21C429.21 122.204 429.172 122.049 429.097 121.915C429.021 121.78 428.916 121.675 428.781 121.599C428.649 121.522 428.494 121.483 428.318 121.483C428.134 121.483 427.972 121.526 427.83 121.611C427.689 121.694 427.58 121.807 427.5 121.949C427.42 122.089 427.38 122.245 427.378 122.418V123.131C427.378 123.347 427.418 123.533 427.497 123.69C427.579 123.848 427.693 123.969 427.841 124.054C427.989 124.139 428.164 124.182 428.366 124.182C428.501 124.182 428.624 124.163 428.736 124.125C428.848 124.087 428.943 124.03 429.023 123.955C429.102 123.879 429.163 123.786 429.205 123.676L430.324 123.75C430.267 124.019 430.151 124.254 429.974 124.455C429.8 124.653 429.575 124.809 429.298 124.92C429.024 125.03 428.706 125.085 428.347 125.085ZM431.139 125V120.636H432.312V121.398H432.358C432.438 121.127 432.571 120.922 432.759 120.784C432.946 120.644 433.162 120.574 433.406 120.574C433.467 120.574 433.532 120.578 433.602 120.585C433.672 120.593 433.734 120.603 433.787 120.616V121.69C433.73 121.673 433.652 121.658 433.551 121.645C433.451 121.632 433.359 121.625 433.276 121.625C433.098 121.625 432.938 121.664 432.798 121.741C432.66 121.817 432.55 121.923 432.469 122.06C432.389 122.196 432.349 122.353 432.349 122.531V125H431.139ZM434.413 125V120.636H435.566V121.406H435.617C435.708 121.151 435.86 120.949 436.072 120.801C436.284 120.653 436.538 120.58 436.833 120.58C437.132 120.58 437.387 120.654 437.597 120.804C437.808 120.952 437.948 121.152 438.018 121.406H438.063C438.152 121.156 438.313 120.956 438.546 120.807C438.781 120.655 439.058 120.58 439.379 120.58C439.786 120.58 440.116 120.709 440.37 120.969C440.626 121.226 440.754 121.592 440.754 122.065V125H439.546V122.304C439.546 122.062 439.482 121.88 439.353 121.759C439.224 121.637 439.063 121.577 438.87 121.577C438.65 121.577 438.479 121.647 438.356 121.787C438.233 121.925 438.171 122.108 438.171 122.335V125H436.998V122.278C436.998 122.064 436.936 121.894 436.813 121.767C436.692 121.64 436.532 121.577 436.333 121.577C436.199 121.577 436.077 121.611 435.969 121.679C435.863 121.745 435.779 121.839 435.717 121.96C435.654 122.08 435.623 122.22 435.623 122.381V125H434.413ZM441.71 125V120.636H442.92V125H441.71ZM442.317 120.074C442.138 120.074 441.983 120.014 441.854 119.895C441.728 119.774 441.664 119.629 441.664 119.46C441.664 119.294 441.728 119.151 441.854 119.031C441.983 118.91 442.138 118.849 442.317 118.849C442.497 118.849 442.651 118.91 442.778 119.031C442.906 119.151 442.971 119.294 442.971 119.46C442.971 119.629 442.906 119.774 442.778 119.895C442.651 120.014 442.497 120.074 442.317 120.074ZM445.099 122.477V125H443.889V120.636H445.043V121.406H445.094C445.19 121.152 445.352 120.952 445.58 120.804C445.807 120.654 446.082 120.58 446.406 120.58C446.709 120.58 446.973 120.646 447.199 120.778C447.424 120.911 447.599 121.1 447.724 121.347C447.849 121.591 447.912 121.883 447.912 122.222V125H446.702V122.438C446.704 122.17 446.635 121.962 446.497 121.812C446.359 121.661 446.169 121.585 445.926 121.585C445.763 121.585 445.619 121.62 445.494 121.69C445.371 121.76 445.275 121.863 445.205 121.997C445.136 122.13 445.101 122.29 445.099 122.477ZM450.11 125.082C449.832 125.082 449.584 125.034 449.366 124.938C449.148 124.839 448.976 124.694 448.849 124.503C448.724 124.31 448.661 124.069 448.661 123.781C448.661 123.539 448.706 123.335 448.795 123.17C448.884 123.006 449.005 122.873 449.158 122.773C449.312 122.672 449.486 122.597 449.681 122.545C449.878 122.494 450.085 122.458 450.3 122.438C450.554 122.411 450.759 122.386 450.914 122.364C451.069 122.339 451.182 122.303 451.252 122.256C451.322 122.208 451.357 122.138 451.357 122.045V122.028C451.357 121.848 451.3 121.709 451.187 121.611C451.075 121.512 450.916 121.463 450.71 121.463C450.492 121.463 450.318 121.511 450.19 121.608C450.061 121.703 449.976 121.822 449.934 121.966L448.815 121.875C448.871 121.61 448.983 121.381 449.15 121.188C449.317 120.992 449.531 120.843 449.795 120.739C450.06 120.633 450.367 120.58 450.715 120.58C450.958 120.58 451.19 120.608 451.411 120.665C451.635 120.722 451.833 120.81 452.005 120.929C452.179 121.048 452.317 121.202 452.417 121.389C452.517 121.575 452.567 121.797 452.567 122.057V125H451.42V124.395H451.386C451.316 124.531 451.222 124.652 451.104 124.756C450.987 124.858 450.846 124.938 450.681 124.997C450.516 125.054 450.326 125.082 450.11 125.082ZM450.457 124.247C450.635 124.247 450.792 124.212 450.928 124.142C451.065 124.07 451.172 123.973 451.249 123.852C451.327 123.731 451.366 123.594 451.366 123.44V122.977C451.328 123.002 451.276 123.025 451.21 123.045C451.145 123.064 451.072 123.082 450.991 123.099C450.909 123.115 450.828 123.129 450.746 123.142C450.665 123.153 450.591 123.164 450.525 123.173C450.383 123.194 450.259 123.227 450.153 123.273C450.047 123.318 449.964 123.38 449.906 123.457C449.847 123.533 449.817 123.628 449.817 123.741C449.817 123.906 449.877 124.032 449.996 124.119C450.118 124.205 450.271 124.247 450.457 124.247ZM454.717 119.182V125H453.506V119.182H454.717ZM460.058 119.182V125H458.827V120.349H458.793L457.461 121.185V120.094L458.901 119.182H460.058Z" fill="black"/>
<path d="M439.328 141.548C439.328 146.294 435.588 150.096 431.03 150.096C426.471 150.096 422.731 146.294 422.731 141.548C422.731 136.802 426.471 133 431.03 133C435.588 133 439.328 136.802 439.328 141.548Z" fill="#99168C" stroke="white" stroke-width="2"/>
<path d="M799.974 125V119.182H801.205V121.747H801.281L803.375 119.182H804.849L802.69 121.787L804.875 125H803.403L801.81 122.608L801.205 123.347V125H799.974ZM805.49 125V119.182H806.72V123.986H809.214V125H805.49ZM811.259 119.182V125H810.029V119.182H811.259ZM813.274 125H811.956L813.964 119.182H815.55L817.555 125H816.237L814.78 120.511H814.734L813.274 125ZM813.192 122.713H816.305V123.673H813.192V122.713ZM819.886 120.196V119.182H824.664V120.196H822.883V125H821.667V120.196H819.886ZM826.784 125.085C826.335 125.085 825.949 124.994 825.625 124.812C825.303 124.629 825.055 124.369 824.881 124.034C824.706 123.697 824.619 123.298 824.619 122.838C824.619 122.389 824.706 121.995 824.881 121.656C825.055 121.317 825.3 121.053 825.616 120.864C825.935 120.674 826.308 120.58 826.736 120.58C827.024 120.58 827.292 120.626 827.54 120.719C827.79 120.81 828.008 120.947 828.193 121.131C828.381 121.314 828.527 121.545 828.631 121.824C828.735 122.1 828.787 122.424 828.787 122.795V123.128H825.102V122.378H827.648C827.648 122.204 827.61 122.049 827.534 121.915C827.458 121.78 827.353 121.675 827.219 121.599C827.086 121.522 826.932 121.483 826.756 121.483C826.572 121.483 826.409 121.526 826.267 121.611C826.127 121.694 826.017 121.807 825.938 121.949C825.858 122.089 825.817 122.245 825.815 122.418V123.131C825.815 123.347 825.855 123.533 825.935 123.69C826.016 123.848 826.131 123.969 826.278 124.054C826.426 124.139 826.601 124.182 826.804 124.182C826.938 124.182 827.062 124.163 827.173 124.125C827.285 124.087 827.381 124.03 827.46 123.955C827.54 123.879 827.6 123.786 827.642 123.676L828.761 123.75C828.705 124.019 828.588 124.254 828.412 124.455C828.238 124.653 828.012 124.809 827.736 124.92C827.461 125.03 827.144 125.085 826.784 125.085ZM829.577 125V120.636H830.75V121.398H830.795C830.875 121.127 831.009 120.922 831.196 120.784C831.384 120.644 831.599 120.574 831.844 120.574C831.904 120.574 831.97 120.578 832.04 120.585C832.11 120.593 832.171 120.603 832.224 120.616V121.69C832.168 121.673 832.089 121.658 831.989 121.645C831.888 121.632 831.796 121.625 831.713 121.625C831.535 121.625 831.376 121.664 831.236 121.741C831.098 121.817 830.988 121.923 830.906 122.06C830.827 122.196 830.787 122.353 830.787 122.531V125H829.577ZM832.85 125V120.636H834.004V121.406H834.055C834.146 121.151 834.297 120.949 834.509 120.801C834.721 120.653 834.975 120.58 835.271 120.58C835.57 120.58 835.825 120.654 836.035 120.804C836.245 120.952 836.385 121.152 836.455 121.406H836.501C836.59 121.156 836.751 120.956 836.984 120.807C837.219 120.655 837.496 120.58 837.816 120.58C838.223 120.58 838.554 120.709 838.808 120.969C839.063 121.226 839.191 121.592 839.191 122.065V125H837.984V122.304C837.984 122.062 837.919 121.88 837.79 121.759C837.662 121.637 837.501 121.577 837.308 121.577C837.088 121.577 836.916 121.647 836.793 121.787C836.67 121.925 836.609 122.108 836.609 122.335V125H835.435V122.278C835.435 122.064 835.374 121.894 835.251 121.767C835.129 121.64 834.969 121.577 834.771 121.577C834.636 121.577 834.515 121.611 834.407 121.679C834.301 121.745 834.217 121.839 834.154 121.96C834.092 122.08 834.06 122.22 834.06 122.381V125H832.85ZM840.147 125V120.636H841.357V125H840.147ZM840.755 120.074C840.575 120.074 840.421 120.014 840.292 119.895C840.165 119.774 840.102 119.629 840.102 119.46C840.102 119.294 840.165 119.151 840.292 119.031C840.421 118.91 840.575 118.849 840.755 118.849C840.935 118.849 841.088 118.91 841.215 119.031C841.344 119.151 841.408 119.294 841.408 119.46C841.408 119.629 841.344 119.774 841.215 119.895C841.088 120.014 840.935 120.074 840.755 120.074ZM843.537 122.477V125H842.327V120.636H843.48V121.406H843.531C843.628 121.152 843.79 120.952 844.017 120.804C844.244 120.654 844.52 120.58 844.844 120.58C845.147 120.58 845.411 120.646 845.636 120.778C845.862 120.911 846.037 121.1 846.162 121.347C846.287 121.591 846.349 121.883 846.349 122.222V125H845.139V122.438C845.141 122.17 845.073 121.962 844.935 121.812C844.796 121.661 844.606 121.585 844.364 121.585C844.201 121.585 844.057 121.62 843.932 121.69C843.809 121.76 843.712 121.863 843.642 121.997C843.574 122.13 843.539 122.29 843.537 122.477ZM848.548 125.082C848.269 125.082 848.021 125.034 847.803 124.938C847.585 124.839 847.413 124.694 847.286 124.503C847.161 124.31 847.099 124.069 847.099 123.781C847.099 123.539 847.143 123.335 847.232 123.17C847.321 123.006 847.442 122.873 847.596 122.773C847.749 122.672 847.924 122.597 848.119 122.545C848.316 122.494 848.522 122.458 848.738 122.438C848.992 122.411 849.196 122.386 849.352 122.364C849.507 122.339 849.62 122.303 849.69 122.256C849.76 122.208 849.795 122.138 849.795 122.045V122.028C849.795 121.848 849.738 121.709 849.624 121.611C849.513 121.512 849.353 121.463 849.147 121.463C848.929 121.463 848.756 121.511 848.627 121.608C848.498 121.703 848.413 121.822 848.371 121.966L847.252 121.875C847.309 121.61 847.421 121.381 847.587 121.188C847.754 120.992 847.969 120.843 848.232 120.739C848.497 120.633 848.804 120.58 849.153 120.58C849.395 120.58 849.627 120.608 849.849 120.665C850.072 120.722 850.27 120.81 850.442 120.929C850.617 121.048 850.754 121.202 850.854 121.389C850.955 121.575 851.005 121.797 851.005 122.057V125H849.857V124.395H849.823C849.753 124.531 849.659 124.652 849.542 124.756C849.424 124.858 849.283 124.938 849.119 124.997C848.954 125.054 848.763 125.082 848.548 125.082ZM848.894 124.247C849.072 124.247 849.229 124.212 849.366 124.142C849.502 124.07 849.609 123.973 849.687 123.852C849.764 123.731 849.803 123.594 849.803 123.44V122.977C849.765 123.002 849.713 123.025 849.647 123.045C849.583 123.064 849.51 123.082 849.428 123.099C849.347 123.115 849.265 123.129 849.184 123.142C849.103 123.153 849.029 123.164 848.962 123.173C848.82 123.194 848.696 123.227 848.59 123.273C848.484 123.318 848.402 123.38 848.343 123.457C848.284 123.533 848.255 123.628 848.255 123.741C848.255 123.906 848.315 124.032 848.434 124.119C848.555 124.205 848.709 124.247 848.894 124.247ZM853.154 119.182V125H851.944V119.182H853.154ZM855.964 125V124.114L858.035 122.196C858.211 122.026 858.359 121.872 858.478 121.736C858.599 121.599 858.691 121.466 858.754 121.335C858.816 121.203 858.847 121.06 858.847 120.906C858.847 120.736 858.808 120.589 858.731 120.466C858.653 120.341 858.547 120.245 858.413 120.179C858.278 120.111 858.126 120.077 857.955 120.077C857.777 120.077 857.622 120.113 857.489 120.185C857.357 120.257 857.254 120.36 857.183 120.494C857.111 120.629 857.075 120.789 857.075 120.974H855.907C855.907 120.594 855.993 120.263 856.165 119.983C856.338 119.703 856.579 119.486 856.89 119.332C857.201 119.179 857.558 119.102 857.964 119.102C858.38 119.102 858.743 119.176 859.052 119.324C859.362 119.47 859.604 119.672 859.776 119.932C859.949 120.191 860.035 120.489 860.035 120.824C860.035 121.044 859.991 121.26 859.904 121.474C859.819 121.688 859.666 121.926 859.447 122.188C859.227 122.447 858.917 122.759 858.518 123.122L857.668 123.955V123.994H860.112V125H855.964Z" fill="black"/>
<path d="M838.328 141.548C838.328 146.294 834.588 150.096 830.03 150.096C825.471 150.096 821.731 146.294 821.731 141.548C821.731 136.802 825.471 133 830.03 133C834.588 133 838.328 136.802 838.328 141.548Z" fill="#99168C" stroke="white" stroke-width="2"/>
<path d="M441 105.491C441 106.067 440.532 106.536 439.954 106.536H422.046C421.468 106.536 421 106.067 421 105.491V96.0437C421 95.4667 421.468 95 422.046 95H439.954C440.532 95 441 95.4667 441 96.0437V105.491Z" fill="#3EA4B4"/>
<path d="M431.672 99.9716C431.543 99.9716 431.442 100.075 431.442 100.201C431.442 100.327 431.543 100.426 431.672 100.426C431.795 100.426 431.897 100.327 431.897 100.201C431.897 100.075 431.795 99.9716 431.672 99.9716ZM430.352 99.9716C430.228 99.9716 430.127 100.075 430.127 100.201C430.127 100.327 430.228 100.426 430.352 100.426C430.48 100.426 430.577 100.327 430.577 100.201C430.577 100.075 430.48 99.9716 430.352 99.9716ZM431.367 98.0432C431.367 97.9967 431.327 97.9548 431.279 97.9548H430.758C430.709 97.9548 430.67 97.9967 430.67 98.0432V98.191C430.67 98.235 430.709 98.2794 430.758 98.2794H431.279C431.327 98.2794 431.367 98.235 431.367 98.191V98.0432ZM431.897 98.5749C431.897 98.4468 431.795 98.3456 431.667 98.3456H430.339C430.215 98.3456 430.109 98.4468 430.109 98.5749V98.9743C430.109 99.1044 430.215 99.2016 430.339 99.2016H431.667C431.795 99.2016 431.897 99.1044 431.897 98.9743V98.5749ZM430.193 100.698C429.959 100.662 429.831 100.415 429.831 100.3V98.2747C429.831 98.147 430.017 97.8733 430.255 97.8688H431.716C431.989 97.8688 432.179 98.147 432.179 98.2747V100.3C432.179 100.415 432.064 100.662 431.791 100.698H430.193Z" fill="white"/>
<path d="M430.974 97.679C430.974 97.7584 430.908 97.8224 430.829 97.8224C430.749 97.8224 430.683 97.7584 430.683 97.679C430.683 97.5973 430.749 97.5358 430.829 97.5358C430.908 97.5358 430.974 97.5973 430.974 97.679Z" fill="white"/>
<path d="M431.341 97.679C431.341 97.7584 431.279 97.8224 431.195 97.8224C431.12 97.8224 431.054 97.7584 431.054 97.679C431.054 97.5973 431.12 97.5358 431.195 97.5358C431.279 97.5358 431.341 97.5973 431.341 97.679Z" fill="white"/>
<path d="M431.62 100.752C431.578 100.739 431.508 100.729 431.464 100.729H430.533C430.49 100.729 430.419 100.739 430.377 100.752L429.881 100.904C429.839 100.917 429.841 100.927 429.885 100.927H430.241C430.285 100.927 430.353 100.91 430.391 100.888L430.428 100.869C430.466 100.847 430.534 100.83 430.578 100.83H431.419C431.464 100.83 431.531 100.847 431.57 100.868L431.61 100.889C431.649 100.91 431.716 100.927 431.761 100.927H432.117C432.161 100.927 432.162 100.917 432.12 100.904L431.62 100.752Z" fill="white"/>
<path d="M428 102.481V101.342H428.455V101.779L429.205 101.342H429.774L428.988 101.788L429.871 102.481H429.324L428.675 101.96L428.455 102.086V102.481H428Z" fill="white"/>
<path d="M429.995 102.481V101.342H430.445V102.24H431.367V102.481H429.995Z" fill="white"/>
<path d="M431.641 101.342H432.091V102.481H431.641V101.342Z" fill="white"/>
<path d="M433.004 102.006H433.477L433.234 101.655L433.004 102.006ZM432.206 102.481L433.053 101.342H433.486L434.297 102.481H433.799L433.635 102.24H432.85L432.691 102.481H432.206Z" fill="white"/>
<path d="M429.333 103.71H429.108V102.993H429.333V103.087C429.368 103.048 429.403 103.019 429.439 102.997C429.474 102.982 429.514 102.968 429.553 102.968C429.558 102.968 429.571 102.968 429.597 102.973H429.611V103.162H429.589H429.545C429.478 103.162 429.425 103.178 429.39 103.222C429.355 103.262 429.333 103.319 429.333 103.39V103.71Z" fill="white"/>
<path d="M430.299 103.339C430.273 103.352 430.22 103.365 430.14 103.372C430.131 103.374 430.123 103.376 430.114 103.376C430.03 103.385 429.981 103.398 429.955 103.407C429.933 103.423 429.924 103.438 429.924 103.465C429.924 103.491 429.933 103.518 429.955 103.531C429.977 103.549 430.008 103.557 430.043 103.557C430.123 103.557 430.184 103.535 430.233 103.504C430.277 103.469 430.299 103.423 430.299 103.365V103.348V103.339ZM430.52 103.566C430.52 103.597 430.52 103.615 430.524 103.635C430.533 103.648 430.537 103.663 430.551 103.67V103.681H430.308L430.295 103.606C430.259 103.643 430.211 103.668 430.162 103.681C430.114 103.701 430.056 103.71 429.995 103.71C429.893 103.71 429.814 103.685 429.756 103.648C429.699 103.601 429.672 103.544 429.672 103.471C429.672 103.403 429.699 103.35 429.752 103.319C429.8 103.286 429.889 103.262 430.017 103.253C430.03 103.251 430.056 103.251 430.083 103.246C430.229 103.244 430.299 103.211 430.299 103.167C430.299 103.14 430.286 103.118 430.259 103.105C430.233 103.092 430.189 103.085 430.136 103.085C430.078 103.085 430.034 103.096 430.008 103.112C429.981 103.134 429.968 103.165 429.968 103.204L429.734 103.207V103.2C429.734 103.118 429.774 103.054 429.84 103.012C429.915 102.966 430.012 102.946 430.145 102.946C430.211 102.946 430.273 102.953 430.321 102.966C430.374 102.977 430.414 102.997 430.449 103.019C430.471 103.039 430.493 103.063 430.502 103.094C430.511 103.12 430.52 103.167 430.52 103.226V103.566Z" fill="white"/>
<path d="M430.705 103.71V102.993H430.926V103.101C430.966 103.059 431.005 103.028 431.054 103.006C431.102 102.986 431.155 102.977 431.208 102.977C431.266 102.977 431.318 102.984 431.367 103.004C431.411 103.026 431.446 103.052 431.473 103.087C431.486 103.112 431.499 103.14 431.504 103.171C431.513 103.2 431.513 103.251 431.513 103.317V103.71H431.288V103.365C431.288 103.284 431.279 103.228 431.252 103.198C431.23 103.171 431.191 103.156 431.133 103.156C431.067 103.156 431.018 103.173 430.983 103.207C430.943 103.244 430.926 103.293 430.926 103.356V103.71H430.705Z" fill="white"/>
<path d="M431.667 103.451H431.906C431.91 103.482 431.923 103.509 431.954 103.524C431.985 103.542 432.038 103.549 432.109 103.549C432.153 103.549 432.188 103.544 432.214 103.531C432.245 103.52 432.258 103.504 432.258 103.482C432.258 103.465 432.254 103.451 432.236 103.443C432.219 103.434 432.184 103.429 432.131 103.425L431.932 103.407C431.857 103.403 431.8 103.376 431.755 103.339C431.711 103.299 431.689 103.246 431.689 103.191C431.689 103.112 431.724 103.05 431.791 103.006C431.857 102.966 431.954 102.946 432.082 102.946C432.201 102.946 432.298 102.966 432.364 103.006C432.435 103.048 432.466 103.103 432.466 103.178V103.182H432.245C432.241 103.151 432.219 103.127 432.192 103.112C432.166 103.098 432.126 103.087 432.069 103.087C432.025 103.087 431.989 103.096 431.963 103.107C431.936 103.118 431.923 103.136 431.923 103.158C431.923 103.178 431.936 103.191 431.963 103.2C431.985 103.211 432.033 103.222 432.091 103.224L432.25 103.237C432.325 103.244 432.387 103.262 432.426 103.299C432.47 103.337 432.492 103.385 432.492 103.451C432.492 103.533 432.457 103.597 432.387 103.643C432.32 103.685 432.219 103.71 432.082 103.71C431.954 103.71 431.853 103.685 431.782 103.643C431.711 103.597 431.672 103.535 431.667 103.451Z" fill="white"/>
<path d="M432.66 102.993H432.881V103.71H432.66V102.993ZM432.881 102.924H432.66V102.75H432.881V102.924Z" fill="white"/>
<path d="M433.137 102.781H433.362V102.968H433.53V103.136H433.362V103.438C433.362 103.485 433.366 103.518 433.371 103.524C433.384 103.531 433.406 103.535 433.433 103.535H433.53V103.71H433.38C433.291 103.71 433.23 103.694 433.194 103.67C433.154 103.643 433.137 103.597 433.137 103.535V103.136H433.031V102.968H433.137V102.781Z" fill="white"/>
<path d="M428.551 102.781H428.777V102.968H428.944V103.136H428.777V103.438C428.777 103.485 428.781 103.518 428.79 103.524C428.799 103.531 428.821 103.535 428.852 103.535H428.944V103.71H428.794C428.71 103.71 428.644 103.694 428.609 103.67C428.574 103.643 428.551 103.597 428.551 103.535V103.136H428.446V102.968H428.551V102.781Z" fill="white"/>
<path d="M841 105.491C841 106.067 840.532 106.536 839.954 106.536H822.046C821.468 106.536 821 106.067 821 105.491V96.0437C821 95.4667 821.468 95 822.046 95H839.954C840.532 95 841 95.4667 841 96.0437V105.491Z" fill="#3EA4B4"/>
<path d="M831.672 99.9716C831.543 99.9716 831.442 100.075 831.442 100.201C831.442 100.327 831.543 100.426 831.672 100.426C831.795 100.426 831.897 100.327 831.897 100.201C831.897 100.075 831.795 99.9716 831.672 99.9716ZM830.352 99.9716C830.228 99.9716 830.127 100.075 830.127 100.201C830.127 100.327 830.228 100.426 830.352 100.426C830.48 100.426 830.577 100.327 830.577 100.201C830.577 100.075 830.48 99.9716 830.352 99.9716ZM831.367 98.0432C831.367 97.9967 831.327 97.9548 831.279 97.9548H830.758C830.709 97.9548 830.67 97.9967 830.67 98.0432V98.191C830.67 98.235 830.709 98.2794 830.758 98.2794H831.279C831.327 98.2794 831.367 98.235 831.367 98.191V98.0432ZM831.897 98.5749C831.897 98.4468 831.795 98.3456 831.667 98.3456H830.339C830.215 98.3456 830.109 98.4468 830.109 98.5749V98.9743C830.109 99.1044 830.215 99.2016 830.339 99.2016H831.667C831.795 99.2016 831.897 99.1044 831.897 98.9743V98.5749ZM830.193 100.698C829.959 100.662 829.831 100.415 829.831 100.3V98.2747C829.831 98.147 830.017 97.8733 830.255 97.8688H831.716C831.989 97.8688 832.179 98.147 832.179 98.2747V100.3C832.179 100.415 832.064 100.662 831.791 100.698H830.193Z" fill="white"/>
<path d="M830.974 97.679C830.974 97.7584 830.908 97.8224 830.829 97.8224C830.749 97.8224 830.683 97.7584 830.683 97.679C830.683 97.5973 830.749 97.5358 830.829 97.5358C830.908 97.5358 830.974 97.5973 830.974 97.679Z" fill="white"/>
<path d="M831.341 97.679C831.341 97.7584 831.279 97.8224 831.195 97.8224C831.12 97.8224 831.054 97.7584 831.054 97.679C831.054 97.5973 831.12 97.5358 831.195 97.5358C831.279 97.5358 831.341 97.5973 831.341 97.679Z" fill="white"/>
<path d="M831.62 100.752C831.578 100.739 831.508 100.729 831.464 100.729H830.533C830.49 100.729 830.419 100.739 830.377 100.752L829.881 100.904C829.839 100.917 829.841 100.927 829.885 100.927H830.241C830.285 100.927 830.353 100.91 830.391 100.888L830.428 100.869C830.466 100.847 830.534 100.83 830.578 100.83H831.419C831.464 100.83 831.531 100.847 831.57 100.868L831.61 100.889C831.649 100.91 831.716 100.927 831.761 100.927H832.117C832.161 100.927 832.162 100.917 832.12 100.904L831.62 100.752Z" fill="white"/>
<path d="M828 102.481V101.342H828.455V101.779L829.205 101.342H829.774L828.988 101.788L829.871 102.481H829.324L828.675 101.96L828.455 102.086V102.481H828Z" fill="white"/>
<path d="M829.995 102.481V101.342H830.445V102.24H831.367V102.481H829.995Z" fill="white"/>
<path d="M831.641 101.342H832.091V102.481H831.641V101.342Z" fill="white"/>
<path d="M833.004 102.006H833.477L833.234 101.655L833.004 102.006ZM832.206 102.481L833.053 101.342H833.486L834.297 102.481H833.799L833.635 102.24H832.85L832.691 102.481H832.206Z" fill="white"/>
<path d="M829.333 103.71H829.108V102.993H829.333V103.087C829.368 103.048 829.403 103.019 829.439 102.997C829.474 102.982 829.514 102.968 829.553 102.968C829.558 102.968 829.571 102.968 829.597 102.973H829.611V103.162H829.589H829.545C829.478 103.162 829.425 103.178 829.39 103.222C829.355 103.262 829.333 103.319 829.333 103.39V103.71Z" fill="white"/>
<path d="M830.299 103.339C830.273 103.352 830.22 103.365 830.14 103.372C830.131 103.374 830.123 103.376 830.114 103.376C830.03 103.385 829.981 103.398 829.955 103.407C829.933 103.423 829.924 103.438 829.924 103.465C829.924 103.491 829.933 103.518 829.955 103.531C829.977 103.549 830.008 103.557 830.043 103.557C830.123 103.557 830.184 103.535 830.233 103.504C830.277 103.469 830.299 103.423 830.299 103.365V103.348V103.339ZM830.52 103.566C830.52 103.597 830.52 103.615 830.524 103.635C830.533 103.648 830.537 103.663 830.551 103.67V103.681H830.308L830.295 103.606C830.259 103.643 830.211 103.668 830.162 103.681C830.114 103.701 830.056 103.71 829.995 103.71C829.893 103.71 829.814 103.685 829.756 103.648C829.699 103.601 829.672 103.544 829.672 103.471C829.672 103.403 829.699 103.35 829.752 103.319C829.8 103.286 829.889 103.262 830.017 103.253C830.03 103.251 830.056 103.251 830.083 103.246C830.229 103.244 830.299 103.211 830.299 103.167C830.299 103.14 830.286 103.118 830.259 103.105C830.233 103.092 830.189 103.085 830.136 103.085C830.078 103.085 830.034 103.096 830.008 103.112C829.981 103.134 829.968 103.165 829.968 103.204L829.734 103.207V103.2C829.734 103.118 829.774 103.054 829.84 103.012C829.915 102.966 830.012 102.946 830.145 102.946C830.211 102.946 830.273 102.953 830.321 102.966C830.374 102.977 830.414 102.997 830.449 103.019C830.471 103.039 830.493 103.063 830.502 103.094C830.511 103.12 830.52 103.167 830.52 103.226V103.566Z" fill="white"/>
<path d="M830.705 103.71V102.993H830.926V103.101C830.966 103.059 831.005 103.028 831.054 103.006C831.102 102.986 831.155 102.977 831.208 102.977C831.266 102.977 831.318 102.984 831.367 103.004C831.411 103.026 831.446 103.052 831.473 103.087C831.486 103.112 831.499 103.14 831.504 103.171C831.513 103.2 831.513 103.251 831.513 103.317V103.71H831.288V103.365C831.288 103.284 831.279 103.228 831.252 103.198C831.23 103.171 831.191 103.156 831.133 103.156C831.067 103.156 831.018 103.173 830.983 103.207C830.943 103.244 830.926 103.293 830.926 103.356V103.71H830.705Z" fill="white"/>
<path d="M831.667 103.451H831.906C831.91 103.482 831.923 103.509 831.954 103.524C831.985 103.542 832.038 103.549 832.109 103.549C832.153 103.549 832.188 103.544 832.214 103.531C832.245 103.52 832.258 103.504 832.258 103.482C832.258 103.465 832.254 103.451 832.236 103.443C832.219 103.434 832.184 103.429 832.131 103.425L831.932 103.407C831.857 103.403 831.8 103.376 831.755 103.339C831.711 103.299 831.689 103.246 831.689 103.191C831.689 103.112 831.724 103.05 831.791 103.006C831.857 102.966 831.954 102.946 832.082 102.946C832.201 102.946 832.298 102.966 832.364 103.006C832.435 103.048 832.466 103.103 832.466 103.178V103.182H832.245C832.241 103.151 832.219 103.127 832.192 103.112C832.166 103.098 832.126 103.087 832.069 103.087C832.025 103.087 831.989 103.096 831.963 103.107C831.936 103.118 831.923 103.136 831.923 103.158C831.923 103.178 831.936 103.191 831.963 103.2C831.985 103.211 832.033 103.222 832.091 103.224L832.25 103.237C832.325 103.244 832.387 103.262 832.426 103.299C832.47 103.337 832.492 103.385 832.492 103.451C832.492 103.533 832.457 103.597 832.387 103.643C832.32 103.685 832.219 103.71 832.082 103.71C831.954 103.71 831.853 103.685 831.782 103.643C831.711 103.597 831.672 103.535 831.667 103.451Z" fill="white"/>
<path d="M832.66 102.993H832.881V103.71H832.66V102.993ZM832.881 102.924H832.66V102.75H832.881V102.924Z" fill="white"/>
<path d="M833.137 102.781H833.362V102.968H833.53V103.136H833.362V103.438C833.362 103.485 833.366 103.518 833.371 103.524C833.384 103.531 833.406 103.535 833.433 103.535H833.53V103.71H833.38C833.291 103.71 833.23 103.694 833.194 103.67C833.154 103.643 833.137 103.597 833.137 103.535V103.136H833.031V102.968H833.137V102.781Z" fill="white"/>
<path d="M828.551 102.781H828.777V102.968H828.944V103.136H828.777V103.438C828.777 103.485 828.781 103.518 828.79 103.524C828.799 103.531 828.821 103.535 828.852 103.535H828.944V103.71H828.794C828.71 103.71 828.644 103.694 828.609 103.67C828.574 103.643 828.551 103.597 828.551 103.535V103.136H828.446V102.968H828.551V102.781Z" fill="white"/>
<path d="M51 27.9133C51 28.5122 50.5322 29 49.9542 29L32.0458 29C31.4676 29 31 28.5122 31 27.9133L31 18.0857C31 17.4855 31.4676 17 32.0458 17L49.9542 17C50.5322 17 51 17.4855 51 18.0857L51 27.9133Z" fill="#3F5FB5"/>
<path d="M43.1737 23.4157L43.1737 23.744L39.7414 23.744L39.7414 23.4261L39.4248 23.4261C39.0761 23.4261 39.0618 23.0427 39.0618 23.0427L39.117 21.4383L39.3321 19.5331C39.3321 19.5331 41.2783 18.3338 43.5742 19.5331L43.7894 21.4383L43.8457 23.0427C43.8457 23.0427 43.8335 23.4261 43.4838 23.4261L43.166 23.4261L43.166 23.744L39.7326 23.744L39.7326 23.4157" fill="white"/>
<path d="M43.1737 23.4157L43.1737 23.744L39.7414 23.744L39.7414 23.4261L39.4248 23.4261C39.0761 23.4261 39.0618 23.0427 39.0618 23.0427L39.117 21.4383L39.3321 19.5331C39.3321 19.5331 41.2783 18.3338 43.5742 19.5331L43.7894 21.4383L43.8457 23.0427C43.8457 23.0427 43.8335 23.4261 43.4838 23.4261L43.166 23.4261L43.166 23.744L39.7326 23.744L39.7326 23.4157" stroke="white"/>
<path d="M43.3559 23.1322L42.1742 23.1322L42.1742 22.4712L43.3559 22.4712L43.3559 23.1322Z" fill="#3F5FB5"/>
<path d="M40.7333 23.1322L39.5529 23.1322L39.5529 22.4712L40.7333 22.4712L40.7333 23.1322Z" fill="#3F5FB5"/>
<path d="M42.1312 23.6763L40.7621 23.6763L40.7621 23.2884L42.1312 23.2884L42.1312 23.6763Z" fill="#3F5FB5"/>
<path d="M39.5307 19.882C39.5307 19.882 41.318 18.4521 43.3391 19.85L43.5421 21.3994L39.3651 21.3994L39.5307 19.882Z" fill="#3F5FB5"/>
<path d="M41.4548 19.2497L41.4548 21.3855" stroke="white"/>
<path d="M40.4949 23.674L39 25.2302" stroke="white"/>
<path d="M42.4532 23.674L43.9482 25.2302" stroke="white"/>
<path d="M39.9578 24.2052L42.9232 24.2052" stroke="white"/>
<path d="M39.4546 24.7574L43.475 24.7574" stroke="white"/>
<path d="M39.6458 25.8183L39.9821 25.8183L39.9821 26.2475L40.3332 25.8183L40.7822 25.8183L40.3861 26.2463L40.7976 26.9509L40.3861 26.9509L40.1542 26.4839L39.9821 26.6732L39.9821 26.9509L39.6458 26.9509L39.6458 25.8183Z" fill="white"/>
<path d="M40.8428 25.8183L41.8611 25.8183L41.8611 26.0983L41.5179 26.0983L41.5179 26.9509L41.1838 26.9509L41.1838 26.0983L40.8428 26.0983L40.8428 25.8183Z" fill="white"/>
<path d="M42.0178 25.8183L42.458 25.8183L42.6301 26.508L42.7989 25.8183L43.2391 25.8183L43.2391 26.9509L42.9644 26.9509L42.9644 26.0903L42.7537 26.9509L42.5032 26.9509L42.2925 26.0903L42.2925 26.9509L42.0178 26.9509L42.0178 25.8183Z" fill="white"/>
<path d="M51 43.9133C51 44.5122 50.5322 45 49.9542 45L32.0458 45C31.4676 45 31 44.5122 31 43.9133L31 34.0857C31 33.4855 31.4676 33 32.0458 33L49.9542 33C50.5322 33 51 33.4855 51 34.0857L51 43.9133Z" fill="#EE2722"/>
<path d="M43.1737 39.4157L43.1737 39.744L39.7414 39.744L39.7414 39.4261L39.4248 39.4261C39.0761 39.4261 39.0618 39.0427 39.0618 39.0427L39.117 37.4383L39.3321 35.5331C39.3321 35.5331 41.2783 34.3338 43.5742 35.5331L43.7894 37.4383L43.8457 39.0427C43.8457 39.0427 43.8335 39.4261 43.4838 39.4261L43.166 39.4261L43.166 39.744L39.7326 39.744L39.7326 39.4157" fill="white"/>
<path d="M43.1737 39.4157L43.1737 39.744L39.7414 39.744L39.7414 39.4261L39.4248 39.4261C39.0761 39.4261 39.0618 39.0427 39.0618 39.0427L39.117 37.4383L39.3321 35.5331C39.3321 35.5331 41.2783 34.3338 43.5742 35.5331L43.7894 37.4383L43.8457 39.0427C43.8457 39.0427 43.8335 39.4261 43.4838 39.4261L43.166 39.4261L43.166 39.744L39.7326 39.744L39.7326 39.4157" stroke="white"/>
<path d="M43.3559 39.1322L42.1742 39.1322L42.1742 38.4712L43.3559 38.4712L43.3559 39.1322Z" fill="#EE2722"/>
<path d="M40.7333 39.1322L39.5529 39.1322L39.5529 38.4712L40.7333 38.4712L40.7333 39.1322Z" fill="#EE2722"/>
<path d="M42.1312 39.6763L40.7621 39.6763L40.7621 39.2884L42.1312 39.2884L42.1312 39.6763Z" fill="#EE2722"/>
<path d="M39.5307 35.882C39.5307 35.882 41.318 34.4521 43.3391 35.85L43.5421 37.3994L39.3651 37.3994L39.5307 35.882Z" fill="#EE2722"/>
<path d="M41.4548 35.2497L41.4548 37.3855" stroke="white"/>
<path d="M40.4949 39.674L39 41.2302" stroke="white"/>
<path d="M42.4532 39.674L43.9482 41.2302" stroke="white"/>
<path d="M39.9578 40.2052L42.9232 40.2052" stroke="white"/>
<path d="M39.4546 40.7574L43.475 40.7574" stroke="white"/>
<path d="M39.6458 41.8183L39.9821 41.8183L39.9821 42.2475L40.3332 41.8183L40.7822 41.8183L40.3861 42.2463L40.7976 42.9509L40.3861 42.9509L40.1542 42.4839L39.9821 42.6732L39.9821 42.9509L39.6458 42.9509L39.6458 41.8183Z" fill="white"/>
<path d="M40.8428 41.8183L41.8611 41.8183L41.8611 42.0983L41.5179 42.0983L41.5179 42.9509L41.1838 42.9509L41.1838 42.0983L40.8428 42.0983L40.8428 41.8183Z" fill="white"/>
<path d="M42.0178 41.8183L42.458 41.8183L42.6301 42.508L42.7989 41.8183L43.2391 41.8183L43.2391 42.9509L42.9644 42.9509L42.9644 42.0903L42.7537 42.9509L42.5032 42.9509L42.2925 42.0903L42.2925 42.9509L42.0178 42.9509L42.0178 41.8183Z" fill="white"/>
<path d="M51 59.3936C51 59.964 50.5322 60.4286 49.9542 60.4286H32.0458C31.4676 60.4286 31 59.964 31 59.3936V50.0341C31 49.4624 31.4676 49 32.0458 49H49.9542C50.5322 49 51 49.4624 51 50.0341V59.3936Z" fill="#80CC28"/>
<path d="M42.6815 55.7304C42.3637 55.784 42.1739 56.207 42.1739 56.207C43.1934 56.2036 43.1405 55.5939 43.1405 55.5939C43.0918 55.6637 42.6815 55.7304 42.6815 55.7304ZM39.2833 55.5939C39.2833 55.5939 39.2349 56.2036 40.25 56.207C40.25 56.207 40.06 55.784 39.7423 55.7304C39.7423 55.7304 39.3319 55.6637 39.2833 55.5939ZM39.8879 53.0306C39.6364 53.048 39.548 53.282 39.548 53.282C39.548 53.282 39.2525 54.0395 40.5808 54.7828C40.5808 54.7828 40.9296 54.9357 41.2119 54.9357C41.4988 54.9357 41.843 54.7828 41.843 54.7828C43.167 54.0395 42.8757 53.282 42.8757 53.282C42.8757 53.282 42.7874 53.048 42.5315 53.0306C42.4212 53.0241 41.2119 53.0197 41.2119 53.0197C41.2119 53.0197 40.0027 53.0241 39.8879 53.0306ZM40.1881 57.0463C38.9745 56.7633 38.9126 56.4693 38.9126 55.2734C38.9126 54.0755 39.2217 52.8274 39.2217 52.8274C39.3716 51.977 40.0557 52 40.0557 52H41.2076H42.3505C42.3505 52 43.0346 51.977 43.1845 52.8274C43.1845 52.8274 43.4979 54.0755 43.4979 55.2734C43.4979 56.4693 43.4317 56.7633 42.2224 57.0463C42.2224 57.0463 41.8652 57.1481 41.2076 57.1481C40.5455 57.1481 40.1881 57.0463 40.1881 57.0463Z" fill="white"/>
<path d="M39.4378 56.9197L38.286 57.523C37.708 57.7808 38.1271 57.7361 38.4845 57.7415C38.9216 57.7492 39.1069 57.7526 39.1069 57.7526C39.2614 57.7526 39.3276 57.7153 39.4865 57.5448L39.9409 57.0771C39.7512 57.0333 39.6629 57.0137 39.4378 56.9197Z" fill="white"/>
<path d="M42.986 56.9197L44.1378 57.523C44.716 57.7808 44.2967 57.7361 43.9393 57.7415C43.5022 57.7492 43.3169 57.7526 43.3169 57.7526C43.1625 57.7526 43.0962 57.7153 42.9419 57.5448L42.4829 57.0771C42.677 57.0333 42.7609 57.0137 42.986 56.9197Z" fill="white"/>
<path d="M42.4388 57.2955L42.558 57.4125H39.8528L39.9939 57.2955H42.4388Z" fill="white"/>
<path d="M42.6991 57.5437L42.8537 57.6957H39.5703L39.7292 57.5437H42.6991Z" fill="white"/>
<path d="M51 74.9197C51 75.4954 50.5322 75.9644 49.9542 75.9644H32.0458C31.4676 75.9644 31 75.4954 31 74.9197V65.4723C31 64.8953 31.4676 64.4286 32.0458 64.4286H49.9542C50.5322 64.4286 51 64.8953 51 65.4723V74.9197Z" fill="#3EA4B4"/>
<path d="M41.6717 69.4002C41.5436 69.4002 41.4423 69.5039 41.4423 69.6297C41.4423 69.7556 41.5436 69.8549 41.6717 69.8549C41.7951 69.8549 41.8967 69.7556 41.8967 69.6297C41.8967 69.5039 41.7951 69.4002 41.6717 69.4002ZM40.3522 69.4002C40.2286 69.4002 40.127 69.5039 40.127 69.6297C40.127 69.7556 40.2286 69.8549 40.3522 69.8549C40.4801 69.8549 40.5772 69.7556 40.5772 69.6297C40.5772 69.5039 40.4801 69.4002 40.3522 69.4002ZM41.3672 67.4718C41.3672 67.4253 41.3275 67.3834 41.2788 67.3834H40.7581C40.7096 67.3834 40.6699 67.4253 40.6699 67.4718V67.6196C40.6699 67.6636 40.7096 67.708 40.7581 67.708H41.2788C41.3275 67.708 41.3672 67.6636 41.3672 67.6196V67.4718ZM41.8967 68.0035C41.8967 67.8754 41.7951 67.7742 41.6674 67.7742H40.3389C40.2153 67.7742 40.1094 67.8754 40.1094 68.0035V68.4029C40.1094 68.533 40.2153 68.6302 40.3389 68.6302H41.6674C41.7951 68.6302 41.8967 68.533 41.8967 68.4029V68.0035ZM40.1932 70.1262C39.9595 70.091 39.8314 69.8438 39.8314 69.7291V67.7033C39.8314 67.5756 40.0168 67.3019 40.255 67.2974H41.7157C41.9894 67.2974 42.1792 67.5756 42.1792 67.7033V69.7291C42.1792 69.8438 42.0645 70.091 41.7908 70.1262H40.1932Z" fill="white"/>
<path d="M40.9743 67.1076C40.9743 67.187 40.9082 67.251 40.8287 67.251C40.7493 67.251 40.6831 67.187 40.6831 67.1076C40.6831 67.0259 40.7493 66.9644 40.8287 66.9644C40.9082 66.9644 40.9743 67.0259 40.9743 67.1076Z" fill="white"/>
<path d="M41.3406 67.1076C41.3406 67.187 41.2788 67.251 41.195 67.251C41.1199 67.251 41.0537 67.187 41.0537 67.1076C41.0537 67.0259 41.1199 66.9644 41.195 66.9644C41.2788 66.9644 41.3406 67.0259 41.3406 67.1076Z" fill="white"/>
<path d="M41.6202 70.1804C41.5781 70.1676 41.5077 70.1571 41.4639 70.1571H40.5335C40.4897 70.1571 40.4193 70.1678 40.3772 70.1806L39.8815 70.3324C39.8394 70.3451 39.841 70.3558 39.885 70.3558H40.2413C40.2854 70.3558 40.353 70.3383 40.3914 70.3171L40.4276 70.2971C40.4664 70.2761 40.5337 70.2585 40.5779 70.2585H41.4195C41.4637 70.2585 41.5313 70.2756 41.5701 70.2965L41.6101 70.3179C41.6489 70.3388 41.7165 70.3558 41.7607 70.3558H42.117C42.161 70.3558 42.1625 70.3453 42.1205 70.3325L41.6202 70.1804Z" fill="white"/>
<path d="M38 71.9092V70.7705H38.4546V71.2076L39.2048 70.7705H39.7741L38.9884 71.2163L39.871 71.9092H39.324L38.6751 71.3884L38.4546 71.5141V71.9092H38Z" fill="white"/>
<path d="M39.9945 71.9092V70.7705H40.4446V71.6687H41.367V71.9092H39.9945Z" fill="white"/>
<path d="M41.6407 70.7706H42.0908V71.9092H41.6407V70.7706Z" fill="white"/>
<path d="M43.0044 71.4347H43.4765L43.2337 71.084L43.0044 71.4347ZM42.2054 71.9092L43.0528 70.7705H43.4854L44.2972 71.9092H43.7986L43.6353 71.6687H42.8498L42.6909 71.9092H42.2054Z" fill="white"/>
<path d="M39.3326 73.1382H39.1075V72.4211H39.3326V72.516C39.368 72.4763 39.4032 72.4476 39.4385 72.4254C39.4739 72.4101 39.5136 72.3969 39.5533 72.3969C39.5576 72.3969 39.5709 72.3969 39.5974 72.4012H39.6106V72.591H39.5886H39.5444C39.4782 72.591 39.4253 72.6064 39.39 72.6504C39.3548 72.6902 39.3326 72.7476 39.3326 72.8182V73.1382Z" fill="white"/>
<path d="M40.2991 72.7675C40.2727 72.7808 40.2197 72.794 40.1403 72.8005C40.1315 72.8029 40.1227 72.805 40.1138 72.805C40.0299 72.8138 39.9814 72.827 39.955 72.8359C39.9329 72.8513 39.924 72.8667 39.924 72.8932C39.924 72.9197 39.9329 72.9462 39.955 72.9594C39.977 72.9771 40.0079 72.9859 40.0433 72.9859C40.1227 72.9859 40.1845 72.9639 40.2329 72.9329C40.2771 72.8977 40.2991 72.8513 40.2991 72.794V72.7764V72.7675ZM40.5199 72.9948C40.5199 73.0256 40.5199 73.0433 40.5242 73.0632C40.5331 73.0765 40.5374 73.0918 40.5507 73.0985V73.1096H40.3081L40.2948 73.0345C40.2594 73.072 40.2109 73.0964 40.1625 73.1096C40.1138 73.1294 40.0565 73.1382 39.9947 73.1382C39.8932 73.1382 39.8138 73.1139 39.7564 73.0765C39.699 73.03 39.6725 72.9726 39.6725 72.8999C39.6725 72.8315 39.699 72.7785 39.7519 72.7476C39.8006 72.7146 39.8888 72.6903 40.0167 72.6814C40.0299 72.6792 40.0565 72.6792 40.083 72.6749C40.2286 72.6726 40.2991 72.6394 40.2991 72.5954C40.2991 72.5689 40.2859 72.5468 40.2594 72.5335C40.2329 72.5203 40.1889 72.5138 40.136 72.5138C40.0786 72.5138 40.0344 72.5248 40.0079 72.5402C39.9814 72.5622 39.9682 72.5932 39.9682 72.6329L39.7344 72.6351V72.6284C39.7344 72.5468 39.7741 72.4828 39.8403 72.4409C39.9152 72.3946 40.0124 72.3747 40.1447 72.3747C40.2109 72.3747 40.2727 72.3814 40.3213 72.3946C40.3743 72.4056 40.414 72.4254 40.4492 72.4476C40.4712 72.4673 40.4934 72.4918 40.5022 72.5225C40.5109 72.549 40.5199 72.5954 40.5199 72.6549V72.9948Z" fill="white"/>
<path d="M40.7052 73.1382V72.4211H40.9259V72.5292C40.9657 72.4873 41.0054 72.4563 41.0539 72.4343C41.1023 72.4144 41.1553 72.4056 41.2082 72.4056C41.2657 72.4056 41.3186 72.4122 41.3671 72.4321C41.4113 72.4541 41.4465 72.4806 41.473 72.516C41.4862 72.5402 41.4995 72.5689 41.5039 72.5997C41.5127 72.6284 41.5127 72.6792 41.5127 72.7453V73.1382H41.2877V72.794C41.2877 72.7123 41.2789 72.657 41.2524 72.6262C41.2304 72.5997 41.1907 72.5843 41.1333 72.5843C41.0671 72.5843 41.0186 72.602 40.9832 72.6351C40.9435 72.6726 40.9259 72.7211 40.9259 72.7851V73.1382H40.7052Z" fill="white"/>
<path d="M41.6672 72.88H41.9055C41.9098 72.9109 41.9231 72.9374 41.954 72.9529C41.9849 72.9704 42.0379 72.9771 42.1086 72.9771C42.1526 72.9771 42.188 72.9726 42.2145 72.9594C42.2452 72.9484 42.2585 72.9329 42.2585 72.9109C42.2585 72.8932 42.2542 72.88 42.2365 72.8712C42.2188 72.8624 42.1835 72.858 42.1306 72.8535L41.932 72.8359C41.8569 72.8315 41.7996 72.805 41.7554 72.7675C41.7113 72.7278 41.6892 72.6749 41.6892 72.6197C41.6892 72.5402 41.7245 72.4784 41.7907 72.4343C41.8569 72.3946 41.954 72.3747 42.0821 72.3747C42.2012 72.3747 42.2982 72.3946 42.3644 72.4343C42.435 72.4763 42.466 72.5313 42.466 72.6064V72.6107H42.2452C42.2409 72.58 42.2188 72.5557 42.1923 72.5402C42.1658 72.527 42.1261 72.516 42.0688 72.516C42.0247 72.516 41.9894 72.5246 41.9629 72.5358C41.9365 72.5468 41.9231 72.5645 41.9231 72.5865C41.9231 72.6064 41.9365 72.6197 41.9629 72.6284C41.9849 72.6394 42.0334 72.6506 42.0909 72.6527L42.2497 72.6659C42.3247 72.6726 42.3866 72.6903 42.4263 72.7278C42.4703 72.7653 42.4925 72.8138 42.4925 72.88C42.4925 72.9618 42.4571 73.0256 42.3866 73.072C42.3204 73.1139 42.2188 73.1382 42.0821 73.1382C41.954 73.1382 41.8526 73.1139 41.7819 73.072C41.7113 73.0256 41.6715 72.9639 41.6672 72.88Z" fill="white"/>
<path d="M42.6602 72.4211H42.8807V73.1382H42.6602V72.4211ZM42.8807 72.3527H42.6602V72.1782H42.8807V72.3527Z" fill="white"/>
<path d="M43.1369 72.2093H43.362V72.3969H43.5296V72.5646H43.362V72.8667C43.362 72.9131 43.3663 72.9462 43.3707 72.9529C43.384 72.9594 43.4061 72.9639 43.4326 72.9639H43.5296V73.1382H43.3795C43.2913 73.1382 43.2296 73.1229 43.1942 73.0985C43.1545 73.072 43.1369 73.0256 43.1369 72.9639V72.5646H43.031V72.3969H43.1369V72.2093Z" fill="white"/>
<path d="M38.5515 72.2093H38.7765V72.3969H38.9443V72.5646H38.7765V72.8667C38.7765 72.9131 38.781 72.9462 38.7897 72.9529C38.7987 72.9594 38.8207 72.9639 38.8516 72.9639H38.9443V73.1382H38.7942C38.7103 73.1382 38.6441 73.1229 38.6089 73.0985C38.5736 73.072 38.5515 73.0256 38.5515 72.9639V72.5646H38.4456V72.3969H38.5515V72.2093Z" fill="white"/>
<path d="M51 90.1955C51 90.7571 50.5322 91.2144 49.9542 91.2144L32.0458 91.2144C31.4676 91.2144 31 90.7571 31 90.1955L31 80.9822C31 80.4195 31.4676 79.9644 32.0458 79.9644L49.9542 79.9644C50.5322 79.9644 51 80.4195 51 80.9822L51 90.1955Z" fill="#ED114C"/>
<path d="M42.5565 86.1366C42.2387 86.1893 42.0489 86.6057 42.0489 86.6057C43.0684 86.6024 43.0155 86.0022 43.0155 86.0022C42.9668 86.0709 42.5565 86.1366 42.5565 86.1366ZM39.1583 86.0022C39.1583 86.0022 39.1099 86.6024 40.125 86.6057C40.125 86.6057 39.935 86.1893 39.6173 86.1366C39.6173 86.1366 39.2069 86.0709 39.1583 86.0022ZM39.7629 83.479C39.5114 83.4961 39.423 83.7264 39.423 83.7264C39.423 83.7264 39.1275 84.4721 40.4558 85.2038C40.4558 85.2038 40.8046 85.3543 41.0869 85.3543C41.3738 85.3543 41.718 85.2038 41.718 85.2038C43.042 84.4721 42.7507 83.7264 42.7507 83.7264C42.7507 83.7264 42.6624 83.4961 42.4065 83.479C42.2962 83.4726 41.0869 83.4682 41.0869 83.4682C41.0869 83.4682 39.8777 83.4726 39.7629 83.479ZM40.0631 87.4319C38.8495 87.1534 38.7876 86.8639 38.7876 85.6867C38.7876 84.5076 39.0967 83.2789 39.0967 83.2789C39.2466 82.4418 39.9307 82.4645 39.9307 82.4645L41.0826 82.4645L42.2255 82.4645C42.2255 82.4645 42.9096 82.4418 43.0595 83.2789C43.0595 83.2789 43.3729 84.5076 43.3729 85.6867C43.3729 86.8639 43.3067 87.1534 42.0974 87.4319C42.0974 87.4319 41.7402 87.5321 41.0826 87.5321C40.4205 87.5321 40.0631 87.4319 40.0631 87.4319Z" fill="white"/>
<path d="M39.3128 87.3072L38.161 87.9011C37.583 88.1549 38.0021 88.1109 38.3595 88.1162C38.7966 88.1238 38.9819 88.1271 38.9819 88.1271C39.1364 88.1271 39.2026 88.0904 39.3615 87.9225L39.8159 87.4621C39.6262 87.419 39.5379 87.3998 39.3128 87.3072Z" fill="white"/>
<path d="M42.861 87.3072L44.0128 87.9011C44.591 88.1549 44.1717 88.1109 43.8143 88.1162C43.3772 88.1238 43.1919 88.1271 43.1919 88.1271C43.0375 88.1271 42.9712 88.0904 42.8169 87.9225L42.3579 87.4621C42.552 87.419 42.6359 87.3998 42.861 87.3072Z" fill="white"/>
<path d="M42.3137 87.6773L42.4329 87.7924L39.7277 87.7924L39.8688 87.6773L42.3137 87.6773Z" fill="white"/>
<path d="M42.5741 87.9215L42.7287 88.0712L39.4453 88.0712L39.6042 87.9215L42.5741 87.9215Z" fill="white"/>
<path d="M51 105.745C51 106.323 50.5322 106.793 49.9542 106.793H32.0458C31.4676 106.793 31 106.323 31 105.745V96.262C31 95.6828 31.4676 95.2144 32.0458 95.2144H49.9542C50.5322 95.2144 51 95.6828 51 96.262V105.745Z" fill="#0A8137"/>
<path d="M42.6815 101.573C42.3637 101.627 42.1739 102.056 42.1739 102.056C43.1934 102.052 43.1405 101.434 43.1405 101.434C43.0918 101.505 42.6815 101.573 42.6815 101.573ZM39.2833 101.434C39.2833 101.434 39.2349 102.052 40.25 102.056C40.25 102.056 40.06 101.627 39.7423 101.573C39.7423 101.573 39.3319 101.505 39.2833 101.434ZM39.8879 98.8375C39.6364 98.8551 39.548 99.0922 39.548 99.0922C39.548 99.0922 39.2525 99.8597 40.5808 100.613C40.5808 100.613 40.9296 100.768 41.2119 100.768C41.4988 100.768 41.843 100.613 41.843 100.613C43.167 99.8597 42.8757 99.0922 42.8757 99.0922C42.8757 99.0922 42.7874 98.8551 42.5315 98.8375C42.4212 98.8309 41.2119 98.8264 41.2119 98.8264C41.2119 98.8264 40.0027 98.8309 39.8879 98.8375ZM40.1881 102.906C38.9745 102.619 38.9126 102.321 38.9126 101.11C38.9126 99.8962 39.2217 98.6316 39.2217 98.6316C39.3716 97.77 40.0557 97.7934 40.0557 97.7934H41.2076H42.3505C42.3505 97.7934 43.0346 97.77 43.1845 98.6316C43.1845 98.6316 43.4979 99.8962 43.4979 101.11C43.4979 102.321 43.4317 102.619 42.2224 102.906C42.2224 102.906 41.8652 103.009 41.2076 103.009C40.5455 103.009 40.1881 102.906 40.1881 102.906Z" fill="white"/>
<path d="M39.4378 102.778L38.286 103.389C37.708 103.65 38.1271 103.605 38.4845 103.61C38.9216 103.618 39.1069 103.622 39.1069 103.622C39.2614 103.622 39.3276 103.584 39.4865 103.411L39.9409 102.937C39.7512 102.893 39.6629 102.873 39.4378 102.778Z" fill="white"/>
<path d="M42.9858 102.778L44.1377 103.389C44.7159 103.65 44.2966 103.605 43.9391 103.61C43.5021 103.618 43.3168 103.622 43.3168 103.622C43.1624 103.622 43.096 103.584 42.9418 103.411L42.4828 102.937C42.6769 102.893 42.7608 102.873 42.9858 102.778Z" fill="white"/>
<path d="M42.4388 103.159L42.558 103.277H39.8528L39.9939 103.159H42.4388Z" fill="white"/>
<path d="M42.6991 103.41L42.8537 103.564H39.5703L39.7292 103.41H42.6991Z" fill="white"/>
</svg>
