<svg width="867" height="281" viewBox="0 0 867 281" fill="none" xmlns="http://www.w3.org/2000/svg">
<rect width="867" height="281" fill="#141218"/>
<path d="M831 141H37" stroke="#9F622B" stroke-width="6" stroke-linecap="round"/>
<path d="M21.0135 125V119.182H22.2436V121.747H22.3203L24.4141 119.182H25.8885L23.7294 121.787L25.9141 125H24.4425L22.8487 122.608L22.2436 123.347V125H21.0135ZM26.5291 125V119.182H27.7592V123.986H30.2536V125H26.5291ZM36.076 120.855C36.0533 120.626 35.9557 120.448 35.7834 120.321C35.611 120.194 35.3771 120.131 35.0817 120.131C34.8809 120.131 34.7114 120.159 34.5732 120.216C34.4349 120.271 34.3288 120.348 34.255 120.446C34.183 120.545 34.147 120.656 34.147 120.781C34.1432 120.885 34.165 120.976 34.2124 121.054C34.2616 121.132 34.3288 121.199 34.4141 121.256C34.4993 121.311 34.5978 121.359 34.7095 121.401C34.8213 121.44 34.9406 121.474 35.0675 121.503L35.5902 121.628C35.844 121.685 36.0769 121.76 36.2891 121.855C36.5012 121.95 36.6849 122.066 36.8402 122.205C36.9955 122.343 37.1158 122.506 37.201 122.693C37.2881 122.881 37.3326 123.096 37.3345 123.338C37.3326 123.694 37.2417 124.003 37.0618 124.264C36.8838 124.524 36.6262 124.725 36.2891 124.869C35.9538 125.011 35.5495 125.082 35.076 125.082C34.6063 125.082 34.1972 125.01 33.8487 124.866C33.5021 124.723 33.2313 124.509 33.0362 124.227C32.843 123.943 32.7417 123.592 32.7322 123.173H33.9226C33.9358 123.368 33.9917 123.531 34.0902 123.662C34.1906 123.791 34.3241 123.888 34.4908 123.955C34.6593 124.019 34.8497 124.051 35.0618 124.051C35.2701 124.051 35.451 124.021 35.6044 123.96C35.7597 123.9 35.88 123.815 35.9652 123.707C36.0504 123.599 36.093 123.475 36.093 123.335C36.093 123.205 36.0542 123.095 35.9766 123.006C35.9008 122.917 35.7891 122.841 35.6413 122.778C35.4955 122.716 35.3165 122.659 35.1044 122.608L34.4709 122.449C33.9804 122.33 33.593 122.143 33.3089 121.889C33.0249 121.635 32.8838 121.294 32.8857 120.864C32.8838 120.511 32.9775 120.204 33.1669 119.94C33.3582 119.677 33.6205 119.472 33.9538 119.324C34.2872 119.176 34.666 119.102 35.0902 119.102C35.522 119.102 35.8989 119.176 36.2209 119.324C36.5447 119.472 36.7966 119.677 36.9766 119.94C37.1565 120.204 37.2493 120.509 37.255 120.855H36.076ZM40.1278 125.085C39.679 125.085 39.2926 124.994 38.9688 124.812C38.6468 124.629 38.3987 124.369 38.2244 124.034C38.0502 123.697 37.9631 123.298 37.9631 122.838C37.9631 122.389 38.0502 121.995 38.2244 121.656C38.3987 121.317 38.6439 121.053 38.9602 120.864C39.2784 120.674 39.6515 120.58 40.0795 120.58C40.3674 120.58 40.6354 120.626 40.8835 120.719C41.1335 120.81 41.3513 120.947 41.5369 121.131C41.7244 121.314 41.8703 121.545 41.9744 121.824C42.0786 122.1 42.1307 122.424 42.1307 122.795V123.128H38.446V122.378H40.9915C40.9915 122.204 40.9536 122.049 40.8778 121.915C40.8021 121.78 40.697 121.675 40.5625 121.599C40.4299 121.522 40.2756 121.483 40.0994 121.483C39.9157 121.483 39.7528 121.526 39.6108 121.611C39.4706 121.694 39.3608 121.807 39.2812 121.949C39.2017 122.089 39.161 122.245 39.1591 122.418V123.131C39.1591 123.347 39.1989 123.533 39.2784 123.69C39.3598 123.848 39.4744 123.969 39.6222 124.054C39.7699 124.139 39.9451 124.182 40.1477 124.182C40.2822 124.182 40.4053 124.163 40.517 124.125C40.6288 124.087 40.7244 124.03 40.804 123.955C40.8835 123.879 40.9441 123.786 40.9858 123.676L42.1051 123.75C42.0483 124.019 41.9318 124.254 41.7557 124.455C41.5814 124.653 41.3561 124.809 41.0795 124.92C40.8049 125.03 40.4877 125.085 40.1278 125.085ZM44.1307 122.477V125H42.9205V120.636H44.0739V121.406H44.125C44.2216 121.152 44.3835 120.952 44.6108 120.804C44.8381 120.654 45.1136 120.58 45.4375 120.58C45.7405 120.58 46.0047 120.646 46.2301 120.778C46.4555 120.911 46.6307 121.1 46.7557 121.347C46.8807 121.591 46.9432 121.883 46.9432 122.222V125H45.733V122.438C45.7348 122.17 45.6667 121.962 45.5284 121.812C45.3902 121.661 45.1998 121.585 44.9574 121.585C44.7945 121.585 44.6506 121.62 44.5256 121.69C44.4025 121.76 44.3059 121.863 44.2358 121.997C44.1676 122.13 44.1326 122.29 44.1307 122.477ZM50.218 120.636V121.545H47.5902V120.636H50.218ZM48.1868 119.591H49.397V123.659C49.397 123.771 49.4141 123.858 49.4482 123.92C49.4822 123.981 49.5296 124.024 49.5902 124.048C49.6527 124.073 49.7247 124.085 49.8061 124.085C49.8629 124.085 49.9197 124.08 49.9766 124.071C50.0334 124.06 50.0769 124.051 50.1072 124.045L50.2976 124.946C50.237 124.965 50.1518 124.987 50.0419 125.011C49.9321 125.038 49.7985 125.054 49.6413 125.06C49.3497 125.071 49.094 125.032 48.8743 124.943C48.6565 124.854 48.487 124.716 48.3658 124.528C48.2446 124.341 48.1849 124.104 48.1868 123.818V119.591ZM51.0064 125V120.636H52.1797V121.398H52.2251C52.3047 121.127 52.4382 120.922 52.6257 120.784C52.8132 120.644 53.0291 120.574 53.2734 120.574C53.334 120.574 53.3994 120.578 53.4695 120.585C53.5395 120.593 53.6011 120.603 53.6541 120.616V121.69C53.5973 121.673 53.5187 121.658 53.4183 121.645C53.3179 121.632 53.2261 121.625 53.1428 121.625C52.9647 121.625 52.8056 121.664 52.6655 121.741C52.5272 121.817 52.4174 121.923 52.3359 122.06C52.2564 122.196 52.2166 122.353 52.2166 122.531V125H51.0064ZM55.3991 125.082C55.1207 125.082 54.8726 125.034 54.6548 124.938C54.437 124.839 54.2647 124.694 54.1378 124.503C54.0128 124.31 53.9503 124.069 53.9503 123.781C53.9503 123.539 53.9948 123.335 54.0838 123.17C54.1728 123.006 54.294 122.873 54.4474 122.773C54.6009 122.672 54.7751 122.597 54.9702 122.545C55.1671 122.494 55.3736 122.458 55.5895 122.438C55.8433 122.411 56.0478 122.386 56.2031 122.364C56.3584 122.339 56.4711 122.303 56.5412 122.256C56.6113 122.208 56.6463 122.138 56.6463 122.045V122.028C56.6463 121.848 56.5895 121.709 56.4759 121.611C56.3641 121.512 56.205 121.463 55.9986 121.463C55.7808 121.463 55.6075 121.511 55.4787 121.608C55.3499 121.703 55.2647 121.822 55.223 121.966L54.1037 121.875C54.1605 121.61 54.2723 121.381 54.4389 121.188C54.6056 120.992 54.8205 120.843 55.0838 120.739C55.349 120.633 55.6558 120.58 56.0043 120.58C56.2467 120.58 56.4787 120.608 56.7003 120.665C56.9238 120.722 57.1217 120.81 57.294 120.929C57.4683 121.048 57.6056 121.202 57.706 121.389C57.8063 121.575 57.8565 121.797 57.8565 122.057V125H56.7088V124.395H56.6747C56.6046 124.531 56.5109 124.652 56.3935 124.756C56.276 124.858 56.1349 124.938 55.9702 124.997C55.8054 125.054 55.6151 125.082 55.3991 125.082ZM55.7457 124.247C55.9238 124.247 56.081 124.212 56.2173 124.142C56.3537 124.07 56.4607 123.973 56.5384 123.852C56.616 123.731 56.6548 123.594 56.6548 123.44V122.977C56.617 123.002 56.5649 123.025 56.4986 123.045C56.4342 123.064 56.3613 123.082 56.2798 123.099C56.1984 123.115 56.117 123.129 56.0355 123.142C55.9541 123.153 55.8802 123.164 55.8139 123.173C55.6719 123.194 55.5478 123.227 55.4418 123.273C55.3357 123.318 55.2533 123.38 55.1946 123.457C55.1359 123.533 55.1065 123.628 55.1065 123.741C55.1065 123.906 55.1662 124.032 55.2855 124.119C55.4067 124.205 55.5601 124.247 55.7457 124.247ZM60.0057 119.182V125H58.7955V119.182H60.0057Z" fill="white"/>
<path d="M49.7462 141.548C49.7462 146.255 45.868 150.096 41.0519 150.096C36.2358 150.096 32.3577 146.255 32.3577 141.548C32.3577 136.841 36.2358 133 41.0519 133C45.868 133 49.7462 136.841 49.7462 141.548Z" fill="#9F622B" stroke="#141218" stroke-width="2"/>
<path d="M407.615 120.855C407.592 120.626 407.495 120.448 407.322 120.321C407.15 120.194 406.916 120.131 406.621 120.131C406.42 120.131 406.25 120.159 406.112 120.216C405.974 120.271 405.868 120.348 405.794 120.446C405.722 120.545 405.686 120.656 405.686 120.781C405.682 120.885 405.704 120.976 405.751 121.054C405.801 121.132 405.868 121.199 405.953 121.256C406.038 121.311 406.137 121.359 406.249 121.401C406.36 121.44 406.48 121.474 406.607 121.503L407.129 121.628C407.383 121.685 407.616 121.76 407.828 121.855C408.04 121.95 408.224 122.066 408.379 122.205C408.535 122.343 408.655 122.506 408.74 122.693C408.827 122.881 408.872 123.096 408.874 123.338C408.872 123.694 408.781 124.003 408.601 124.264C408.423 124.524 408.165 124.725 407.828 124.869C407.493 125.011 407.089 125.082 406.615 125.082C406.145 125.082 405.736 125.01 405.388 124.866C405.041 124.723 404.77 124.509 404.575 124.227C404.382 123.943 404.281 123.592 404.271 123.173H405.462C405.475 123.368 405.531 123.531 405.629 123.662C405.73 123.791 405.863 123.888 406.03 123.955C406.198 124.019 406.389 124.051 406.601 124.051C406.809 124.051 406.99 124.021 407.143 123.96C407.299 123.9 407.419 123.815 407.504 123.707C407.589 123.599 407.632 123.475 407.632 123.335C407.632 123.205 407.593 123.095 407.516 123.006C407.44 122.917 407.328 122.841 407.18 122.778C407.035 122.716 406.856 122.659 406.643 122.608L406.01 122.449C405.519 122.33 405.132 122.143 404.848 121.889C404.564 121.635 404.423 121.294 404.425 120.864C404.423 120.511 404.517 120.204 404.706 119.94C404.897 119.677 405.16 119.472 405.493 119.324C405.826 119.176 406.205 119.102 406.629 119.102C407.061 119.102 407.438 119.176 407.76 119.324C408.084 119.472 408.336 119.677 408.516 119.94C408.696 120.204 408.788 120.509 408.794 120.855H407.615ZM412.477 123.142V120.636H413.687V125H412.525V124.207H412.479C412.381 124.463 412.217 124.669 411.988 124.824C411.761 124.979 411.483 125.057 411.156 125.057C410.864 125.057 410.607 124.991 410.386 124.858C410.164 124.725 409.991 124.537 409.866 124.293C409.743 124.048 409.68 123.756 409.678 123.415V120.636H410.888V123.199C410.89 123.456 410.96 123.66 411.096 123.81C411.232 123.959 411.415 124.034 411.644 124.034C411.79 124.034 411.926 124.001 412.053 123.935C412.18 123.866 412.282 123.766 412.36 123.634C412.44 123.501 412.478 123.337 412.477 123.142ZM414.678 125V119.182H415.888V121.369H415.925C415.978 121.252 416.054 121.133 416.155 121.011C416.257 120.888 416.39 120.786 416.553 120.705C416.717 120.621 416.922 120.58 417.166 120.58C417.484 120.58 417.778 120.663 418.047 120.83C418.316 120.994 418.531 121.243 418.692 121.577C418.853 121.908 418.933 122.324 418.933 122.824C418.933 123.311 418.855 123.722 418.697 124.057C418.542 124.39 418.33 124.643 418.061 124.815C417.794 124.986 417.495 125.071 417.163 125.071C416.929 125.071 416.729 125.032 416.564 124.955C416.401 124.877 416.268 124.779 416.163 124.662C416.059 124.543 415.98 124.422 415.925 124.301H415.871V125H414.678ZM415.862 122.818C415.862 123.078 415.898 123.304 415.97 123.497C416.042 123.69 416.146 123.841 416.283 123.949C416.419 124.055 416.585 124.108 416.78 124.108C416.977 124.108 417.143 124.054 417.28 123.946C417.416 123.836 417.519 123.685 417.589 123.491C417.661 123.296 417.697 123.072 417.697 122.818C417.697 122.566 417.662 122.345 417.592 122.153C417.522 121.962 417.419 121.812 417.283 121.705C417.146 121.597 416.979 121.543 416.78 121.543C416.583 121.543 416.416 121.595 416.28 121.699C416.145 121.803 416.042 121.951 415.97 122.142C415.898 122.333 415.862 122.559 415.862 122.818ZM420.985 125.082C420.707 125.082 420.459 125.034 420.241 124.938C420.023 124.839 419.851 124.694 419.724 124.503C419.599 124.31 419.536 124.069 419.536 123.781C419.536 123.539 419.581 123.335 419.67 123.17C419.759 123.006 419.88 122.873 420.033 122.773C420.187 122.672 420.361 122.597 420.556 122.545C420.753 122.494 420.96 122.458 421.175 122.438C421.429 122.411 421.634 122.386 421.789 122.364C421.944 122.339 422.057 122.303 422.127 122.256C422.197 122.208 422.232 122.138 422.232 122.045V122.028C422.232 121.848 422.175 121.709 422.062 121.611C421.95 121.512 421.791 121.463 421.585 121.463C421.367 121.463 421.193 121.511 421.065 121.608C420.936 121.703 420.851 121.822 420.809 121.966L419.69 121.875C419.746 121.61 419.858 121.381 420.025 121.188C420.192 120.992 420.406 120.843 420.67 120.739C420.935 120.633 421.242 120.58 421.59 120.58C421.833 120.58 422.065 120.608 422.286 120.665C422.51 120.722 422.708 120.81 422.88 120.929C423.054 121.048 423.192 121.202 423.292 121.389C423.392 121.575 423.442 121.797 423.442 122.057V125H422.295V124.395H422.261C422.191 124.531 422.097 124.652 421.979 124.756C421.862 124.858 421.721 124.938 421.556 124.997C421.391 125.054 421.201 125.082 420.985 125.082ZM421.332 124.247C421.51 124.247 421.667 124.212 421.803 124.142C421.94 124.07 422.047 123.973 422.124 123.852C422.202 123.731 422.241 123.594 422.241 123.44V122.977C422.203 123.002 422.151 123.025 422.085 123.045C422.02 123.064 421.947 123.082 421.866 123.099C421.784 123.115 421.703 123.129 421.621 123.142C421.54 123.153 421.466 123.164 421.4 123.173C421.258 123.194 421.134 123.227 421.028 123.273C420.922 123.318 420.839 123.38 420.781 123.457C420.722 123.533 420.692 123.628 420.692 123.741C420.692 123.906 420.752 124.032 420.871 124.119C420.993 124.205 421.146 124.247 421.332 124.247ZM425.592 122.477V125H424.381V120.636H425.535V121.406H425.586C425.683 121.152 425.844 120.952 426.072 120.804C426.299 120.654 426.575 120.58 426.898 120.58C427.201 120.58 427.466 120.646 427.691 120.778C427.916 120.911 428.092 121.1 428.217 121.347C428.342 121.591 428.404 121.883 428.404 122.222V125H427.194V122.438C427.196 122.17 427.128 121.962 426.989 121.812C426.851 121.661 426.661 121.585 426.418 121.585C426.255 121.585 426.112 121.62 425.987 121.69C425.863 121.76 425.767 121.863 425.697 121.997C425.629 122.13 425.594 122.29 425.592 122.477ZM431.324 126.727C430.932 126.727 430.596 126.673 430.315 126.565C430.037 126.459 429.815 126.314 429.651 126.131C429.486 125.947 429.379 125.741 429.33 125.511L430.449 125.361C430.483 125.448 430.537 125.529 430.611 125.605C430.685 125.681 430.782 125.741 430.903 125.787C431.027 125.834 431.176 125.858 431.352 125.858C431.616 125.858 431.832 125.794 432.003 125.665C432.175 125.538 432.261 125.325 432.261 125.026V124.227H432.21C432.157 124.348 432.078 124.463 431.972 124.571C431.866 124.679 431.729 124.767 431.562 124.835C431.396 124.903 431.197 124.938 430.966 124.938C430.638 124.938 430.34 124.862 430.071 124.71C429.804 124.557 429.591 124.323 429.432 124.009C429.275 123.692 429.196 123.293 429.196 122.81C429.196 122.315 429.277 121.902 429.438 121.571C429.598 121.24 429.813 120.991 430.08 120.827C430.348 120.662 430.643 120.58 430.963 120.58C431.207 120.58 431.412 120.621 431.577 120.705C431.741 120.786 431.874 120.888 431.974 121.011C432.077 121.133 432.155 121.252 432.21 121.369H432.256V120.636H433.457V125.043C433.457 125.414 433.366 125.724 433.185 125.974C433.003 126.224 432.751 126.412 432.429 126.537C432.109 126.664 431.741 126.727 431.324 126.727ZM431.349 124.028C431.545 124.028 431.709 123.98 431.844 123.884C431.98 123.785 432.084 123.645 432.156 123.463C432.23 123.279 432.267 123.06 432.267 122.804C432.267 122.548 432.231 122.327 432.159 122.139C432.087 121.95 431.983 121.803 431.847 121.699C431.71 121.595 431.545 121.543 431.349 121.543C431.151 121.543 430.983 121.597 430.847 121.705C430.71 121.811 430.607 121.958 430.537 122.148C430.467 122.337 430.432 122.556 430.432 122.804C430.432 123.056 430.467 123.274 430.537 123.457C430.609 123.639 430.712 123.78 430.847 123.881C430.983 123.979 431.151 124.028 431.349 124.028ZM438.624 119.182H439.84V123.239C439.84 123.614 439.756 123.939 439.587 124.216C439.421 124.492 439.189 124.705 438.891 124.855C438.594 125.005 438.248 125.08 437.854 125.08C437.504 125.08 437.186 125.018 436.9 124.895C436.616 124.77 436.39 124.58 436.224 124.327C436.057 124.071 435.975 123.75 435.977 123.364H437.201C437.205 123.517 437.236 123.649 437.295 123.759C437.355 123.866 437.438 123.95 437.542 124.009C437.648 124.065 437.773 124.094 437.917 124.094C438.068 124.094 438.196 124.062 438.3 123.997C438.406 123.931 438.487 123.834 438.542 123.707C438.597 123.58 438.624 123.424 438.624 123.239V119.182ZM442.079 125.082C441.8 125.082 441.552 125.034 441.335 124.938C441.117 124.839 440.944 124.694 440.817 124.503C440.692 124.31 440.63 124.069 440.63 123.781C440.63 123.539 440.674 123.335 440.763 123.17C440.853 123.006 440.974 122.873 441.127 122.773C441.281 122.672 441.455 122.597 441.65 122.545C441.847 122.494 442.053 122.458 442.269 122.438C442.523 122.411 442.728 122.386 442.883 122.364C443.038 122.339 443.151 122.303 443.221 122.256C443.291 122.208 443.326 122.138 443.326 122.045V122.028C443.326 121.848 443.269 121.709 443.156 121.611C443.044 121.512 442.885 121.463 442.678 121.463C442.46 121.463 442.287 121.511 442.158 121.608C442.03 121.703 441.944 121.822 441.903 121.966L440.783 121.875C440.84 121.61 440.952 121.381 441.119 121.188C441.285 120.992 441.5 120.843 441.763 120.739C442.029 120.633 442.335 120.58 442.684 120.58C442.926 120.58 443.158 120.608 443.38 120.665C443.603 120.722 443.801 120.81 443.974 120.929C444.148 121.048 444.285 121.202 444.386 121.389C444.486 121.575 444.536 121.797 444.536 122.057V125H443.388V124.395H443.354C443.284 124.531 443.191 124.652 443.073 124.756C442.956 124.858 442.815 124.938 442.65 124.997C442.485 125.054 442.295 125.082 442.079 125.082ZM442.425 124.247C442.603 124.247 442.761 124.212 442.897 124.142C443.033 124.07 443.14 123.973 443.218 123.852C443.296 123.731 443.335 123.594 443.335 123.44V122.977C443.297 123.002 443.245 123.025 443.178 123.045C443.114 123.064 443.041 123.082 442.96 123.099C442.878 123.115 442.797 123.129 442.715 123.142C442.634 123.153 442.56 123.164 442.494 123.173C442.352 123.194 442.228 123.227 442.121 123.273C442.015 123.318 441.933 123.38 441.874 123.457C441.816 123.533 441.786 123.628 441.786 123.741C441.786 123.906 441.846 124.032 441.965 124.119C442.086 124.205 442.24 124.247 442.425 124.247ZM446.066 126.636C445.913 126.636 445.769 126.624 445.634 126.599C445.502 126.577 445.392 126.547 445.305 126.511L445.577 125.608C445.719 125.652 445.847 125.675 445.961 125.679C446.076 125.683 446.176 125.656 446.259 125.599C446.344 125.543 446.414 125.446 446.467 125.31L446.538 125.125L444.972 120.636H446.245L447.148 123.841H447.194L448.106 120.636H449.387L447.691 125.472C447.61 125.706 447.499 125.911 447.359 126.085C447.22 126.261 447.045 126.397 446.833 126.491C446.621 126.588 446.365 126.636 446.066 126.636ZM451.134 125.082C450.855 125.082 450.607 125.034 450.389 124.938C450.171 124.839 449.999 124.694 449.872 124.503C449.747 124.31 449.685 124.069 449.685 123.781C449.685 123.539 449.729 123.335 449.818 123.17C449.907 123.006 450.028 122.873 450.182 122.773C450.335 122.672 450.509 122.597 450.705 122.545C450.902 122.494 451.108 122.458 451.324 122.438C451.578 122.411 451.782 122.386 451.938 122.364C452.093 122.339 452.205 122.303 452.276 122.256C452.346 122.208 452.381 122.138 452.381 122.045V122.028C452.381 121.848 452.324 121.709 452.21 121.611C452.098 121.512 451.939 121.463 451.733 121.463C451.515 121.463 451.342 121.511 451.213 121.608C451.084 121.703 450.999 121.822 450.957 121.966L449.838 121.875C449.895 121.61 450.007 121.381 450.173 121.188C450.34 120.992 450.555 120.843 450.818 120.739C451.083 120.633 451.39 120.58 451.739 120.58C451.981 120.58 452.213 120.608 452.435 120.665C452.658 120.722 452.856 120.81 453.028 120.929C453.203 121.048 453.34 121.202 453.44 121.389C453.541 121.575 453.591 121.797 453.591 122.057V125H452.443V124.395H452.409C452.339 124.531 452.245 124.652 452.128 124.756C452.01 124.858 451.869 124.938 451.705 124.997C451.54 125.054 451.349 125.082 451.134 125.082ZM451.48 124.247C451.658 124.247 451.815 124.212 451.952 124.142C452.088 124.07 452.195 123.973 452.273 123.852C452.35 123.731 452.389 123.594 452.389 123.44V122.977C452.351 123.002 452.299 123.025 452.233 123.045C452.169 123.064 452.096 123.082 452.014 123.099C451.933 123.115 451.851 123.129 451.77 123.142C451.688 123.153 451.615 123.164 451.548 123.173C451.406 123.194 451.282 123.227 451.176 123.273C451.07 123.318 450.988 123.38 450.929 123.457C450.87 123.533 450.841 123.628 450.841 123.741C450.841 123.906 450.901 124.032 451.02 124.119C451.141 124.205 451.295 124.247 451.48 124.247Z" fill="white"/>
<path d="M437.328 141.548C437.328 146.294 433.588 150.096 429.029 150.096C424.471 150.096 420.731 146.294 420.731 141.548C420.731 136.802 424.471 133 429.029 133C433.588 133 437.328 136.802 437.328 141.548Z" fill="#9F622B" stroke="#141218" stroke-width="2"/>
<path d="M794.694 120.196V119.182H799.473V120.196H797.691V125H796.475V120.196H794.694ZM801.593 125.085C801.144 125.085 800.757 124.994 800.434 124.812C800.112 124.629 799.864 124.369 799.689 124.034C799.515 123.697 799.428 123.298 799.428 122.838C799.428 122.389 799.515 121.995 799.689 121.656C799.864 121.317 800.109 121.053 800.425 120.864C800.743 120.674 801.116 120.58 801.544 120.58C801.832 120.58 802.1 120.626 802.348 120.719C802.598 120.81 802.816 120.947 803.002 121.131C803.189 121.314 803.335 121.545 803.439 121.824C803.543 122.1 803.596 122.424 803.596 122.795V123.128H799.911V122.378H802.456C802.456 122.204 802.418 122.049 802.343 121.915C802.267 121.78 802.162 121.675 802.027 121.599C801.895 121.522 801.74 121.483 801.564 121.483C801.381 121.483 801.218 121.526 801.076 121.611C800.935 121.694 800.826 121.807 800.746 121.949C800.667 122.089 800.626 122.245 800.624 122.418V123.131C800.624 123.347 800.664 123.533 800.743 123.69C800.825 123.848 800.939 123.969 801.087 124.054C801.235 124.139 801.41 124.182 801.613 124.182C801.747 124.182 801.87 124.163 801.982 124.125C802.094 124.087 802.189 124.03 802.269 123.955C802.348 123.879 802.409 123.786 802.451 123.676L803.57 123.75C803.513 124.019 803.397 124.254 803.221 124.455C803.046 124.653 802.821 124.809 802.544 124.92C802.27 125.03 801.953 125.085 801.593 125.085ZM804.385 125V120.636H805.559V121.398H805.604C805.684 121.127 805.817 120.922 806.005 120.784C806.192 120.644 806.408 120.574 806.652 120.574C806.713 120.574 806.778 120.578 806.848 120.585C806.918 120.593 806.98 120.603 807.033 120.616V121.69C806.976 121.673 806.898 121.658 806.797 121.645C806.697 121.632 806.605 121.625 806.522 121.625C806.344 121.625 806.185 121.664 806.044 121.741C805.906 121.817 805.796 121.923 805.715 122.06C805.635 122.196 805.596 122.353 805.596 122.531V125H804.385ZM807.659 125V120.636H808.812V121.406H808.863C808.954 121.151 809.106 120.949 809.318 120.801C809.53 120.653 809.784 120.58 810.079 120.58C810.378 120.58 810.633 120.654 810.843 120.804C811.054 120.952 811.194 121.152 811.264 121.406H811.309C811.398 121.156 811.559 120.956 811.792 120.807C812.027 120.655 812.305 120.58 812.625 120.58C813.032 120.58 813.362 120.709 813.616 120.969C813.872 121.226 814 121.592 814 122.065V125H812.792V122.304C812.792 122.062 812.728 121.88 812.599 121.759C812.47 121.637 812.309 121.577 812.116 121.577C811.896 121.577 811.725 121.647 811.602 121.787C811.479 121.925 811.417 122.108 811.417 122.335V125H810.244V122.278C810.244 122.064 810.182 121.894 810.059 121.767C809.938 121.64 809.778 121.577 809.579 121.577C809.445 121.577 809.324 121.611 809.216 121.679C809.109 121.745 809.025 121.839 808.963 121.96C808.9 122.08 808.869 122.22 808.869 122.381V125H807.659ZM814.956 125V120.636H816.166V125H814.956ZM815.564 120.074C815.384 120.074 815.229 120.014 815.1 119.895C814.974 119.774 814.91 119.629 814.91 119.46C814.91 119.294 814.974 119.151 815.1 119.031C815.229 118.91 815.384 118.849 815.564 118.849C815.743 118.849 815.897 118.91 816.024 119.031C816.153 119.151 816.217 119.294 816.217 119.46C816.217 119.629 816.153 119.774 816.024 119.895C815.897 120.014 815.743 120.074 815.564 120.074ZM818.346 122.477V125H817.135V120.636H818.289V121.406H818.34C818.436 121.152 818.598 120.952 818.826 120.804C819.053 120.654 819.328 120.58 819.652 120.58C819.955 120.58 820.22 120.646 820.445 120.778C820.67 120.911 820.846 121.1 820.971 121.347C821.096 121.591 821.158 121.883 821.158 122.222V125H819.948V122.438C819.95 122.17 819.882 121.962 819.743 121.812C819.605 121.661 819.415 121.585 819.172 121.585C819.009 121.585 818.865 121.62 818.74 121.69C818.617 121.76 818.521 121.863 818.451 121.997C818.382 122.13 818.347 122.29 818.346 122.477ZM823.356 125.082C823.078 125.082 822.83 125.034 822.612 124.938C822.394 124.839 822.222 124.694 822.095 124.503C821.97 124.31 821.907 124.069 821.907 123.781C821.907 123.539 821.952 123.335 822.041 123.17C822.13 123.006 822.251 122.873 822.404 122.773C822.558 122.672 822.732 122.597 822.927 122.545C823.124 122.494 823.331 122.458 823.547 122.438C823.8 122.411 824.005 122.386 824.16 122.364C824.315 122.339 824.428 122.303 824.498 122.256C824.568 122.208 824.603 122.138 824.603 122.045V122.028C824.603 121.848 824.547 121.709 824.433 121.611C824.321 121.512 824.162 121.463 823.956 121.463C823.738 121.463 823.565 121.511 823.436 121.608C823.307 121.703 823.222 121.822 823.18 121.966L822.061 121.875C822.118 121.61 822.229 121.381 822.396 121.188C822.563 120.992 822.778 120.843 823.041 120.739C823.306 120.633 823.613 120.58 823.961 120.58C824.204 120.58 824.436 120.608 824.657 120.665C824.881 120.722 825.079 120.81 825.251 120.929C825.425 121.048 825.563 121.202 825.663 121.389C825.763 121.575 825.814 121.797 825.814 122.057V125H824.666V124.395H824.632C824.562 124.531 824.468 124.652 824.35 124.756C824.233 124.858 824.092 124.938 823.927 124.997C823.762 125.054 823.572 125.082 823.356 125.082ZM823.703 124.247C823.881 124.247 824.038 124.212 824.174 124.142C824.311 124.07 824.418 123.973 824.495 123.852C824.573 123.731 824.612 123.594 824.612 123.44V122.977C824.574 123.002 824.522 123.025 824.456 123.045C824.391 123.064 824.318 123.082 824.237 123.099C824.155 123.115 824.074 123.129 823.993 123.142C823.911 123.153 823.837 123.164 823.771 123.173C823.629 123.194 823.505 123.227 823.399 123.273C823.293 123.318 823.21 123.38 823.152 123.457C823.093 123.533 823.064 123.628 823.064 123.741C823.064 123.906 823.123 124.032 823.243 124.119C823.364 124.205 823.517 124.247 823.703 124.247ZM827.963 119.182V125H826.752V119.182H827.963ZM833.963 120.855C833.94 120.626 833.842 120.448 833.67 120.321C833.498 120.194 833.264 120.131 832.968 120.131C832.768 120.131 832.598 120.159 832.46 120.216C832.322 120.271 832.216 120.348 832.142 120.446C832.07 120.545 832.034 120.656 832.034 120.781C832.03 120.885 832.052 120.976 832.099 121.054C832.148 121.132 832.216 121.199 832.301 121.256C832.386 121.311 832.484 121.359 832.596 121.401C832.708 121.44 832.827 121.474 832.954 121.503L833.477 121.628C833.731 121.685 833.964 121.76 834.176 121.855C834.388 121.95 834.572 122.066 834.727 122.205C834.882 122.343 835.002 122.506 835.088 122.693C835.175 122.881 835.219 123.096 835.221 123.338C835.219 123.694 835.128 124.003 834.949 124.264C834.77 124.524 834.513 124.725 834.176 124.869C833.841 125.011 833.436 125.082 832.963 125.082C832.493 125.082 832.084 125.01 831.735 124.866C831.389 124.723 831.118 124.509 830.923 124.227C830.73 123.943 830.628 123.592 830.619 123.173H831.809C831.823 123.368 831.878 123.531 831.977 123.662C832.077 123.791 832.211 123.888 832.377 123.955C832.546 124.019 832.736 124.051 832.949 124.051C833.157 124.051 833.338 124.021 833.491 123.96C833.646 123.9 833.767 123.815 833.852 123.707C833.937 123.599 833.98 123.475 833.98 123.335C833.98 123.205 833.941 123.095 833.863 123.006C833.788 122.917 833.676 122.841 833.528 122.778C833.382 122.716 833.203 122.659 832.991 122.608L832.358 122.449C831.867 122.33 831.48 122.143 831.196 121.889C830.912 121.635 830.77 121.294 830.772 120.864C830.77 120.511 830.864 120.204 831.054 119.94C831.245 119.677 831.507 119.472 831.841 119.324C832.174 119.176 832.553 119.102 832.977 119.102C833.409 119.102 833.786 119.176 834.108 119.324C834.431 119.472 834.683 119.677 834.863 119.94C835.043 120.204 835.136 120.509 835.142 120.855H833.963ZM837.123 123.744L837.125 122.293H837.301L838.699 120.636H840.088L838.211 122.83H837.924L837.123 123.744ZM836.026 125V119.182H837.236V125H836.026ZM838.753 125L837.469 123.099L838.276 122.244L840.171 125H838.753ZM841.5 126.636C841.346 126.636 841.202 126.624 841.068 126.599C840.935 126.577 840.825 126.547 840.738 126.511L841.011 125.608C841.153 125.652 841.281 125.675 841.395 125.679C841.51 125.683 841.609 125.656 841.693 125.599C841.778 125.543 841.847 125.446 841.9 125.31L841.971 125.125L840.406 120.636H841.679L842.582 123.841H842.627L843.539 120.636H844.821L843.125 125.472C843.043 125.706 842.932 125.911 842.792 126.085C842.654 126.261 842.479 126.397 842.267 126.491C842.055 126.588 841.799 126.636 841.5 126.636ZM845.44 126.636V120.636H846.633V121.369H846.687C846.74 121.252 846.817 121.133 846.917 121.011C847.02 120.888 847.152 120.786 847.315 120.705C847.48 120.621 847.684 120.58 847.929 120.58C848.247 120.58 848.54 120.663 848.809 120.83C849.078 120.994 849.293 121.243 849.454 121.577C849.615 121.908 849.696 122.324 849.696 122.824C849.696 123.311 849.617 123.722 849.46 124.057C849.305 124.39 849.092 124.643 848.824 124.815C848.556 124.986 848.257 125.071 847.926 125.071C847.691 125.071 847.491 125.032 847.326 124.955C847.163 124.877 847.03 124.779 846.926 124.662C846.822 124.543 846.742 124.422 846.687 124.301H846.65V126.636H845.44ZM846.625 122.818C846.625 123.078 846.661 123.304 846.733 123.497C846.805 123.69 846.909 123.841 847.045 123.949C847.181 124.055 847.347 124.108 847.542 124.108C847.739 124.108 847.906 124.054 848.042 123.946C848.179 123.836 848.282 123.685 848.352 123.491C848.424 123.296 848.46 123.072 848.46 122.818C848.46 122.566 848.425 122.345 848.355 122.153C848.285 121.962 848.181 121.812 848.045 121.705C847.909 121.597 847.741 121.543 847.542 121.543C847.345 121.543 847.179 121.595 847.042 121.699C846.908 121.803 846.805 121.951 846.733 122.142C846.661 122.333 846.625 122.559 846.625 122.818ZM851.747 125.082C851.468 125.082 851.22 125.034 851.002 124.938C850.785 124.839 850.612 124.694 850.485 124.503C850.36 124.31 850.298 124.069 850.298 123.781C850.298 123.539 850.342 123.335 850.431 123.17C850.52 123.006 850.642 122.873 850.795 122.773C850.949 122.672 851.123 122.597 851.318 122.545C851.515 122.494 851.721 122.458 851.937 122.438C852.191 122.411 852.395 122.386 852.551 122.364C852.706 122.339 852.819 122.303 852.889 122.256C852.959 122.208 852.994 122.138 852.994 122.045V122.028C852.994 121.848 852.937 121.709 852.824 121.611C852.712 121.512 852.553 121.463 852.346 121.463C852.128 121.463 851.955 121.511 851.826 121.608C851.698 121.703 851.612 121.822 851.571 121.966L850.451 121.875C850.508 121.61 850.62 121.381 850.787 121.188C850.953 120.992 851.168 120.843 851.431 120.739C851.697 120.633 852.003 120.58 852.352 120.58C852.594 120.58 852.826 120.608 853.048 120.665C853.271 120.722 853.469 120.81 853.642 120.929C853.816 121.048 853.953 121.202 854.054 121.389C854.154 121.575 854.204 121.797 854.204 122.057V125H853.056V124.395H853.022C852.952 124.531 852.859 124.652 852.741 124.756C852.624 124.858 852.483 124.938 852.318 124.997C852.153 125.054 851.963 125.082 851.747 125.082ZM852.093 124.247C852.271 124.247 852.429 124.212 852.565 124.142C852.701 124.07 852.808 123.973 852.886 123.852C852.964 123.731 853.002 123.594 853.002 123.44V122.977C852.965 123.002 852.913 123.025 852.846 123.045C852.782 123.064 852.709 123.082 852.627 123.099C852.546 123.115 852.465 123.129 852.383 123.142C852.302 123.153 852.228 123.164 852.162 123.173C852.02 123.194 851.895 123.227 851.789 123.273C851.683 123.318 851.601 123.38 851.542 123.457C851.484 123.533 851.454 123.628 851.454 123.741C851.454 123.906 851.514 124.032 851.633 124.119C851.754 124.205 851.908 124.247 852.093 124.247ZM855.143 125V120.636H856.316V121.398H856.362C856.441 121.127 856.575 120.922 856.762 120.784C856.95 120.644 857.166 120.574 857.41 120.574C857.471 120.574 857.536 120.578 857.606 120.585C857.676 120.593 857.738 120.603 857.791 120.616V121.69C857.734 121.673 857.655 121.658 857.555 121.645C857.455 121.632 857.363 121.625 857.279 121.625C857.101 121.625 856.942 121.664 856.802 121.741C856.664 121.817 856.554 121.923 856.473 122.06C856.393 122.196 856.353 122.353 856.353 122.531V125H855.143ZM859.513 123.744L859.516 122.293H859.692L861.09 120.636H862.479L860.601 122.83H860.314L859.513 123.744ZM858.417 125V119.182H859.627V125H858.417ZM861.144 125L859.86 123.099L860.667 122.244L862.561 125H861.144Z" fill="white"/>
<path d="M839.328 141.548C839.328 146.294 835.588 150.096 831.029 150.096C826.471 150.096 822.731 146.294 822.731 141.548C822.731 136.802 826.471 133 831.029 133C835.588 133 839.328 136.802 839.328 141.548Z" fill="#9F622B" stroke="#141218" stroke-width="2"/>
<path d="M51 17.9133C51 18.5122 50.5322 19 49.9542 19L32.0458 19C31.4676 19 31 18.5122 31 17.9133L31 8.08573C31 7.48546 31.4676 7 32.0458 7L49.9542 7C50.5322 7 51 7.48546 51 8.08574L51 17.9133Z" fill="#3F5FB5"/>
<path d="M43.1737 13.4156L43.1737 13.7439L39.7414 13.7439L39.7414 13.426L39.4248 13.426C39.0761 13.426 39.0618 13.0426 39.0618 13.0426L39.117 11.4382L39.3321 9.53302C39.3321 9.53302 41.2783 8.33364 43.5742 9.53302L43.7894 11.4382L43.8457 13.0426C43.8457 13.0426 43.8335 13.426 43.4838 13.426L43.166 13.426L43.166 13.7439L39.7326 13.7439L39.7326 13.4156" fill="white"/>
<path d="M43.1737 13.4156L43.1737 13.7439L39.7414 13.7439L39.7414 13.426L39.4248 13.426C39.0761 13.426 39.0618 13.0426 39.0618 13.0426L39.117 11.4382L39.3321 9.53302C39.3321 9.53302 41.2783 8.33364 43.5742 9.53302L43.7894 11.4382L43.8457 13.0426C43.8457 13.0426 43.8335 13.426 43.4838 13.426L43.166 13.426L43.166 13.7439L39.7326 13.7439L39.7326 13.4156" stroke="white"/>
<path d="M43.3558 13.1323L42.1741 13.1323L42.1741 12.4713L43.3558 12.4713L43.3558 13.1323Z" fill="#3F5FB5"/>
<path d="M40.7333 13.1323L39.5529 13.1323L39.5529 12.4713L40.7333 12.4713L40.7333 13.1323Z" fill="#3F5FB5"/>
<path d="M42.1312 13.6763L40.7621 13.6763L40.7621 13.2884L42.1312 13.2884L42.1312 13.6763Z" fill="#3F5FB5"/>
<path d="M39.5307 9.88197C39.5307 9.88197 41.318 8.45213 43.3391 9.84995L43.5422 11.3994L39.3652 11.3994L39.5307 9.88197Z" fill="#3F5FB5"/>
<path d="M41.4549 9.2497L41.4549 11.3855" stroke="white"/>
<path d="M40.4949 13.674L39 15.2302" stroke="white"/>
<path d="M42.4532 13.674L43.9482 15.2302" stroke="white"/>
<path d="M39.9577 14.2053L42.9232 14.2053" stroke="white"/>
<path d="M39.4547 14.7573L43.475 14.7573" stroke="white"/>
<path d="M39.6458 15.8183L39.9822 15.8183L39.9822 16.2475L40.3332 15.8183L40.7822 15.8183L40.3862 16.2463L40.7977 16.9509L40.3862 16.9509L40.1543 16.4839L39.9822 16.6732L39.9822 16.9509L39.6458 16.9509L39.6458 15.8183Z" fill="white"/>
<path d="M40.8428 15.8183L41.8612 15.8183L41.8612 16.0983L41.518 16.0983L41.518 16.9509L41.1838 16.9509L41.1838 16.0983L40.8428 16.0983L40.8428 15.8183Z" fill="white"/>
<path d="M42.0178 15.8183L42.458 15.8183L42.6301 16.508L42.7989 15.8183L43.2391 15.8183L43.2391 16.9509L42.9644 16.9509L42.9644 16.0903L42.7537 16.9509L42.5032 16.9509L42.2925 16.0903L42.2925 16.9509L42.0178 16.9509L42.0178 15.8183Z" fill="white"/>
<path d="M51 33.9133C51 34.5122 50.5322 35 49.9542 35L32.0458 35C31.4676 35 31 34.5122 31 33.9133L31 24.0857C31 23.4855 31.4676 23 32.0458 23L49.9542 23C50.5322 23 51 23.4855 51 24.0857L51 33.9133Z" fill="#EE2722"/>
<path d="M43.1737 29.4156L43.1737 29.7439L39.7414 29.7439L39.7414 29.426L39.4248 29.426C39.0761 29.426 39.0618 29.0426 39.0618 29.0426L39.117 27.4382L39.3321 25.533C39.3321 25.533 41.2783 24.3336 43.5742 25.533L43.7894 27.4382L43.8457 29.0426C43.8457 29.0426 43.8335 29.426 43.4838 29.426L43.166 29.426L43.166 29.7439L39.7326 29.7439L39.7326 29.4156" fill="white"/>
<path d="M43.1737 29.4156L43.1737 29.7439L39.7414 29.7439L39.7414 29.426L39.4248 29.426C39.0761 29.426 39.0618 29.0426 39.0618 29.0426L39.117 27.4382L39.3321 25.533C39.3321 25.533 41.2783 24.3336 43.5742 25.533L43.7894 27.4382L43.8457 29.0426C43.8457 29.0426 43.8335 29.426 43.4838 29.426L43.166 29.426L43.166 29.7439L39.7326 29.7439L39.7326 29.4156" stroke="white"/>
<path d="M43.3558 29.1323L42.1741 29.1323L42.1741 28.4713L43.3558 28.4713L43.3558 29.1323Z" fill="#EE2722"/>
<path d="M40.7333 29.1323L39.5529 29.1323L39.5529 28.4713L40.7333 28.4713L40.7333 29.1323Z" fill="#EE2722"/>
<path d="M42.1312 29.6763L40.7621 29.6763L40.7621 29.2884L42.1312 29.2884L42.1312 29.6763Z" fill="#EE2722"/>
<path d="M39.5307 25.882C39.5307 25.882 41.318 24.4521 43.3391 25.85L43.5422 27.3994L39.3652 27.3994L39.5307 25.882Z" fill="#EE2722"/>
<path d="M41.4549 25.2497L41.4549 27.3855" stroke="white"/>
<path d="M40.4949 29.674L39 31.2302" stroke="white"/>
<path d="M42.4532 29.674L43.9482 31.2302" stroke="white"/>
<path d="M39.9577 30.2053L42.9232 30.2053" stroke="white"/>
<path d="M39.4547 30.7573L43.475 30.7573" stroke="white"/>
<path d="M39.6458 31.8183L39.9822 31.8183L39.9822 32.2475L40.3332 31.8183L40.7822 31.8183L40.3862 32.2463L40.7977 32.9509L40.3862 32.9509L40.1543 32.4839L39.9822 32.6732L39.9822 32.9509L39.6458 32.9509L39.6458 31.8183Z" fill="white"/>
<path d="M40.8428 31.8183L41.8612 31.8183L41.8612 32.0983L41.518 32.0983L41.518 32.9509L41.1838 32.9509L41.1838 32.0983L40.8428 32.0983L40.8428 31.8183Z" fill="white"/>
<path d="M42.0178 31.8183L42.458 31.8183L42.6301 32.508L42.7989 31.8183L43.2391 31.8183L43.2391 32.9509L42.9644 32.9509L42.9644 32.0903L42.7537 32.9509L42.5032 32.9509L42.2925 32.0903L42.2925 32.9509L42.0178 32.9509L42.0178 31.8183Z" fill="white"/>
<path d="M51 49.3935C51 49.9639 50.5322 50.4285 49.9542 50.4285H32.0458C31.4676 50.4285 31 49.9639 31 49.3935V40.034C31 39.4623 31.4676 38.9999 32.0458 38.9999H49.9542C50.5322 38.9999 51 39.4623 51 40.034V49.3935Z" fill="#80CC28"/>
<path d="M42.6815 45.7303C42.3638 45.7838 42.174 46.2068 42.174 46.2068C43.1935 46.2035 43.1405 45.5937 43.1405 45.5937C43.0919 45.6636 42.6815 45.7303 42.6815 45.7303ZM39.2833 45.5937C39.2833 45.5937 39.235 46.2035 40.25 46.2068C40.25 46.2068 40.0601 45.7838 39.7424 45.7303C39.7424 45.7303 39.332 45.6636 39.2833 45.5937ZM39.888 43.0305C39.6364 43.0478 39.5481 43.2819 39.5481 43.2819C39.5481 43.2819 39.2525 44.0394 40.5808 44.7827C40.5808 44.7827 40.9296 44.9356 41.2119 44.9356C41.4989 44.9356 41.8431 44.7827 41.8431 44.7827C43.167 44.0394 42.8758 43.2819 42.8758 43.2819C42.8758 43.2819 42.7874 43.0478 42.5316 43.0305C42.4212 43.024 41.2119 43.0196 41.2119 43.0196C41.2119 43.0196 40.0028 43.024 39.888 43.0305ZM40.1881 47.0462C38.9745 46.7632 38.9127 46.4691 38.9127 45.2733C38.9127 44.0754 39.2218 42.8273 39.2218 42.8273C39.3717 41.9768 40.0558 41.9999 40.0558 41.9999H41.2076H42.3506C42.3506 41.9999 43.0346 41.9768 43.1846 42.8273C43.1846 42.8273 43.498 44.0754 43.498 45.2733C43.498 46.4691 43.4318 46.7632 42.2225 47.0462C42.2225 47.0462 41.8652 47.1479 41.2076 47.1479C40.5456 47.1479 40.1881 47.0462 40.1881 47.0462Z" fill="white"/>
<path d="M39.4378 46.9196L38.286 47.5228C37.708 47.7807 38.1271 47.736 38.4845 47.7414C38.9216 47.7491 39.1069 47.7524 39.1069 47.7524C39.2614 47.7524 39.3276 47.7152 39.4865 47.5447L39.9409 47.0769C39.7512 47.0332 39.6629 47.0136 39.4378 46.9196Z" fill="white"/>
<path d="M42.986 46.9196L44.1378 47.5228C44.716 47.7807 44.2967 47.736 43.9393 47.7414C43.5022 47.7491 43.3169 47.7524 43.3169 47.7524C43.1625 47.7524 43.0962 47.7152 42.9419 47.5447L42.4829 47.0769C42.677 47.0332 42.7609 47.0136 42.986 46.9196Z" fill="white"/>
<path d="M42.4389 47.2954L42.558 47.4124H39.8528L39.994 47.2954H42.4389Z" fill="white"/>
<path d="M42.6991 47.5435L42.8536 47.6956H39.5703L39.7291 47.5435H42.6991Z" fill="white"/>
<path d="M51 64.9197C51 65.4954 50.5322 65.9644 49.9542 65.9644L32.0458 65.9644C31.4676 65.9644 31 65.4954 31 64.9197L31 55.4723C31 54.8953 31.4676 54.4286 32.0458 54.4286L49.9542 54.4286C50.5322 54.4286 51 54.8953 51 55.4723L51 64.9197Z" fill="#99168C"/>
<path d="M41.8307 59.8204C41.8307 60.019 41.6718 60.1758 41.4776 60.1758C41.279 60.1758 41.1245 60.019 41.1245 59.8204C41.1245 59.6262 41.279 59.4697 41.4776 59.4697C41.6718 59.4697 41.8307 59.6262 41.8307 59.8204Z" fill="white"/>
<path d="M42.6692 59.8204C42.6692 60.019 42.5103 60.1758 42.316 60.1758C42.1175 60.1758 41.9586 60.019 41.9586 59.8204C41.9586 59.6262 42.1175 59.4697 42.316 59.4697C42.5103 59.4697 42.6692 59.6262 42.6692 59.8204Z" fill="white"/>
<path d="M42.8059 58.0772C42.7222 58.0442 42.6735 58.0772 42.6868 58.1259C42.7265 58.2252 42.9737 58.7061 43.0045 58.7547C43.0707 58.8827 43.2606 58.8583 43.2606 58.8583C43.2606 58.8583 43.8166 58.8562 43.8784 58.8562C43.9401 58.8562 43.9798 58.7767 43.8871 58.7149C43.4503 58.4149 42.934 58.1214 42.8059 58.0772ZM39.5225 58.1434C39.5225 58.0861 39.4785 58.0399 39.4166 58.0399L38.3488 58.0399C38.2913 58.0399 38.2429 58.0861 38.2429 58.1434L38.2429 58.7523C38.2429 58.812 38.2913 58.8562 38.3488 58.8562L39.4166 58.8562C39.4785 58.8562 39.5225 58.812 39.5225 58.7523L39.5225 58.1434ZM41.054 58.1434C41.054 58.0861 41.0054 58.0399 40.9524 58.0399L39.88 58.0399C39.8227 58.0399 39.7741 58.0861 39.7741 58.1434L39.7741 58.7523C39.7741 58.812 39.8227 58.8562 39.88 58.8562L40.9524 58.8562C41.0054 58.8562 41.054 58.812 41.054 58.7523L41.054 58.1434ZM38.031 57.4285L40.873 57.4373C40.873 57.4373 42.5544 57.4153 44.4785 59.0902C44.4785 59.0902 45.3302 59.7189 44.2712 59.8535C43.3751 59.9728 43.2385 59.9616 43.2385 59.9616L38.0265 59.9549L38.031 57.4285Z" fill="white"/>
<path d="M38 59.4285L43.6531 59.4285L44.7785 59.4285" stroke="#99168C" stroke-width="0.2"/>
<path d="M38.0972 62.4021L38.0972 61.1687L38.5783 61.1687L38.5783 61.641L39.3858 61.1687L40.0037 61.1687L39.1607 61.6453L40.1096 62.4021L39.5182 62.4021L38.8209 61.8372L38.5783 61.9762L38.5783 62.4021L38.0972 62.4021Z" fill="white"/>
<path d="M40.242 62.4021L40.242 61.1687L40.723 61.1687L40.723 62.144L41.7116 62.144L41.7116 62.4021L40.242 62.4021Z" fill="white"/>
<path d="M42.0072 61.1687L42.4882 61.1687L42.4882 62.4021L42.0072 62.4021L42.0072 61.1687Z" fill="white"/>
<path d="M43.4767 61.8901L43.9842 61.8901L43.7239 61.5085L43.4767 61.8901ZM42.6205 62.4021L43.5297 61.1687L43.993 61.1687L44.8669 62.4021L44.3329 62.4021L44.1563 62.144L43.3089 62.144L43.1368 62.4021L42.6205 62.4021Z" fill="white"/>
<path d="M38.6665 63.3797C38.6621 63.3245 38.6444 63.287 38.6091 63.2583C38.5649 63.2319 38.5252 63.2186 38.4723 63.2186C38.415 63.2186 38.3664 63.2319 38.3266 63.2606C38.2912 63.2913 38.2737 63.329 38.2737 63.3797L38.6665 63.3797ZM38.6488 63.5693L38.9136 63.6048C38.8783 63.6709 38.8209 63.7239 38.7503 63.7593C38.6753 63.7966 38.5914 63.8123 38.4812 63.8123C38.3091 63.8123 38.181 63.7724 38.1016 63.693C38.0354 63.6269 38 63.5451 38 63.4502C38 63.3311 38.0397 63.2406 38.1324 63.1744C38.2164 63.1039 38.3266 63.0708 38.4547 63.0708C38.6003 63.0708 38.7195 63.106 38.8032 63.1744C38.8871 63.2451 38.9268 63.3532 38.9268 63.4945L38.2694 63.4945C38.2737 63.5475 38.2912 63.5937 38.331 63.6245C38.3753 63.6577 38.4238 63.6689 38.4855 63.6689C38.5252 63.6689 38.5562 63.6622 38.5871 63.6489C38.6136 63.6312 38.6356 63.6048 38.6488 63.5693Z" fill="white"/>
<path d="M39.0989 63.7966L39.0989 62.8148L39.3637 62.8148L39.3637 63.3333L39.6682 63.0885L39.9948 63.0885L39.6549 63.3443L40.0213 63.7966L39.7344 63.7966L39.4828 63.4745L39.3637 63.5673L39.3637 63.7966L39.0989 63.7966Z" fill="white"/>
<path d="M40.0124 63.6004L40.2772 63.5695C40.2861 63.6048 40.3081 63.6335 40.3433 63.6534C40.3787 63.6709 40.4274 63.6821 40.489 63.6821C40.5552 63.6821 40.6081 63.6709 40.6435 63.6577C40.6657 63.64 40.6743 63.6269 40.6743 63.6048C40.6743 63.5915 40.67 63.5783 40.6567 63.5673C40.6435 63.5563 40.617 63.5475 40.5684 63.5451C40.3566 63.5076 40.2242 63.4789 40.1669 63.4524C40.0875 63.4151 40.0478 63.3577 40.0478 63.2913C40.0478 63.2298 40.083 63.1789 40.1537 63.1325C40.2199 63.0928 40.3215 63.0709 40.4671 63.0709C40.5995 63.0709 40.7008 63.0885 40.767 63.1193C40.8331 63.1504 40.8818 63.2009 40.904 63.2606L40.6567 63.2936C40.6478 63.2628 40.626 63.2429 40.5949 63.2298C40.5641 63.2164 40.5244 63.2076 40.4671 63.2076C40.4009 63.2076 40.3523 63.2164 40.3215 63.2298C40.2993 63.2363 40.2904 63.2516 40.2904 63.2628C40.2904 63.2803 40.2993 63.2913 40.3169 63.3003C40.339 63.3113 40.4228 63.329 40.5641 63.3532C40.7008 63.3709 40.8024 63.4017 40.8553 63.4371C40.9083 63.4681 40.9392 63.5143 40.9392 63.5783C40.9392 63.6378 40.8995 63.6974 40.8245 63.7437C40.7494 63.7858 40.6392 63.8123 40.489 63.8123C40.3523 63.8123 40.2464 63.7946 40.1669 63.7548C40.0875 63.7194 40.0389 63.6665 40.0124 63.6004Z" fill="white"/>
<path d="M41.3496 63.4281C41.3496 63.5075 41.3717 63.5671 41.4158 63.6046C41.4644 63.6443 41.5174 63.662 41.5791 63.662C41.6408 63.662 41.6895 63.6488 41.7335 63.6112C41.7732 63.5781 41.7954 63.5209 41.7954 63.4391C41.7954 63.3663 41.7689 63.3091 41.7292 63.2737C41.6895 63.2405 41.6365 63.223 41.5746 63.223C41.5129 63.223 41.4599 63.2405 41.4115 63.2737C41.3717 63.3091 41.3496 63.3596 41.3496 63.4281ZM41.0937 63.0883L41.3363 63.0883L41.3363 63.1898C41.3673 63.1523 41.4115 63.1237 41.4644 63.1016C41.5174 63.0839 41.5791 63.0708 41.6453 63.0708C41.76 63.0708 41.8616 63.1038 41.941 63.17C42.0204 63.2362 42.0558 63.3246 42.0558 63.4391C42.0558 63.5539 42.0204 63.6533 41.9367 63.7172C41.8573 63.779 41.76 63.8121 41.6453 63.8121C41.5879 63.8121 41.5349 63.8054 41.4952 63.7857C41.4512 63.7746 41.4025 63.7482 41.354 63.7085L41.354 64.0681L41.0938 64.0681L41.0937 63.0883Z" fill="white"/>
<path d="M42.4484 63.7966L42.1881 63.7966L42.1881 63.0885L42.4309 63.0885L42.4309 63.1854C42.4749 63.1368 42.5146 63.1038 42.5455 63.0928C42.5765 63.0773 42.6162 63.0708 42.6559 63.0708C42.7132 63.0708 42.7751 63.0885 42.828 63.106L42.7441 63.2738C42.6999 63.2516 42.6602 63.2406 42.625 63.2406C42.5897 63.2406 42.5543 63.2473 42.5323 63.2626C42.5058 63.2759 42.4838 63.3046 42.4706 63.3378C42.4573 63.3797 42.4484 63.4569 42.4484 63.5783L42.4484 63.7966Z" fill="white"/>
<path d="M43.4635 63.3797C43.4635 63.3245 43.4414 63.287 43.4017 63.2583C43.3666 63.2319 43.3222 63.2186 43.2693 63.2186C43.212 63.2186 43.1634 63.2319 43.1237 63.2606C43.0884 63.2913 43.0707 63.329 43.0707 63.3797L43.4635 63.3797ZM43.4414 63.5693L43.7061 63.6048C43.6754 63.6709 43.6224 63.7239 43.5473 63.7593C43.4768 63.7966 43.3884 63.8123 43.2782 63.8123C43.1061 63.8123 42.978 63.7724 42.8986 63.693C42.8324 63.6269 42.7972 63.5451 42.7972 63.4502C42.7972 63.3311 42.8414 63.2406 42.9251 63.1744C43.0135 63.1039 43.1194 63.0708 43.2517 63.0708C43.4017 63.0708 43.5165 63.106 43.6002 63.1744C43.6843 63.2451 43.724 63.3532 43.7194 63.4945L43.0664 63.4945C43.0664 63.5475 43.0884 63.5937 43.1281 63.6245C43.1678 63.6577 43.2163 63.6689 43.2782 63.6689C43.3222 63.6689 43.3576 63.6622 43.3841 63.6489C43.4106 63.6312 43.4328 63.6048 43.4414 63.5693Z" fill="white"/>
<path d="M43.7812 63.6004L44.0417 63.5695C44.0549 63.6048 44.0725 63.6335 44.1079 63.6534C44.1387 63.6709 44.1916 63.6821 44.2535 63.6821C44.3197 63.6821 44.3682 63.6709 44.4034 63.6577C44.4299 63.64 44.4388 63.6269 44.4388 63.6048C44.4388 63.5915 44.4344 63.5783 44.4211 63.5673C44.4079 63.5563 44.377 63.5475 44.3329 63.5451C44.1211 63.5076 43.9888 63.4789 43.9312 63.4524C43.8517 63.4151 43.812 63.3577 43.812 63.2913C43.812 63.2298 43.8474 63.1789 43.9136 63.1325C43.9798 63.0928 44.0857 63.0709 44.2313 63.0709C44.3637 63.0709 44.4653 63.0885 44.5315 63.1193C44.5977 63.1504 44.6419 63.2009 44.6684 63.2606L44.4167 63.2936C44.4079 63.2628 44.3902 63.2429 44.3594 63.2298C44.3329 63.2164 44.2843 63.2076 44.2358 63.2076C44.1652 63.2076 44.1122 63.2164 44.0857 63.2298C44.0637 63.2363 44.0549 63.2516 44.0549 63.2628C44.0549 63.2803 44.0637 63.2913 44.0814 63.3003C44.1034 63.3113 44.1873 63.329 44.324 63.3532C44.4653 63.3709 44.5668 63.4017 44.6197 63.4371C44.6727 63.4681 44.6991 63.5143 44.6991 63.5783C44.6991 63.6378 44.6684 63.6974 44.5888 63.7437C44.5138 63.7858 44.3991 63.8123 44.2535 63.8123C44.1167 63.8123 44.0106 63.7946 43.9312 63.7548C43.8517 63.7194 43.8034 63.6665 43.7812 63.6004Z" fill="white"/>
<path d="M51 80.4553C51 81.0311 50.5322 81.5 49.9542 81.5H32.0458C31.4676 81.5 31 81.0311 31 80.4553V71.008C31 70.4309 31.4676 69.9642 32.0458 69.9642H49.9542C50.5322 69.9642 51 70.4309 51 71.008V80.4553Z" fill="#3EA4B4"/>
<path d="M41.6716 74.9358C41.5435 74.9358 41.4423 75.0395 41.4423 75.1654C41.4423 75.2912 41.5435 75.3906 41.6716 75.3906C41.7951 75.3906 41.8967 75.2912 41.8967 75.1654C41.8967 75.0395 41.7951 74.9358 41.6716 74.9358ZM40.3521 74.9358C40.2285 74.9358 40.1269 75.0395 40.1269 75.1654C40.1269 75.2912 40.2285 75.3906 40.3521 75.3906C40.48 75.3906 40.5772 75.2912 40.5772 75.1654C40.5772 75.0395 40.48 74.9358 40.3521 74.9358ZM41.3671 73.0074C41.3671 72.961 41.3274 72.919 41.2788 72.919H40.758C40.7095 72.919 40.6698 72.961 40.6698 73.0074V73.1552C40.6698 73.1993 40.7095 73.2436 40.758 73.2436H41.2788C41.3274 73.2436 41.3671 73.1993 41.3671 73.1552V73.0074ZM41.8967 73.5392C41.8967 73.4111 41.7951 73.3098 41.6673 73.3098H40.3389C40.2153 73.3098 40.1094 73.4111 40.1094 73.5392V73.9385C40.1094 74.0687 40.2153 74.1658 40.3389 74.1658H41.6673C41.7951 74.1658 41.8967 74.0687 41.8967 73.9385V73.5392ZM40.1931 75.6619C39.9594 75.6266 39.8314 75.3794 39.8314 75.2647V73.239C39.8314 73.1112 40.0167 72.8375 40.255 72.8331H41.7156C41.9893 72.8331 42.1791 73.1112 42.1791 73.239V75.2647C42.1791 75.3794 42.0644 75.6266 41.7908 75.6619H40.1931Z" fill="white"/>
<path d="M40.9743 72.6432C40.9743 72.7227 40.9082 72.7866 40.8287 72.7866C40.7493 72.7866 40.6831 72.7227 40.6831 72.6432C40.6831 72.5616 40.7493 72.5 40.8287 72.5C40.9082 72.5 40.9743 72.5616 40.9743 72.6432Z" fill="white"/>
<path d="M41.3406 72.6432C41.3406 72.7227 41.2788 72.7866 41.195 72.7866C41.1199 72.7866 41.0537 72.7227 41.0537 72.6432C41.0537 72.5616 41.1199 72.5 41.195 72.5C41.2788 72.5 41.3406 72.5616 41.3406 72.6432Z" fill="white"/>
<path d="M41.6201 75.7162C41.578 75.7034 41.5077 75.6929 41.4638 75.6929H40.5335C40.4896 75.6929 40.4193 75.7036 40.3772 75.7163L39.8815 75.8682C39.8394 75.8809 39.841 75.8916 39.885 75.8916H40.2413C40.2853 75.8916 40.3529 75.8741 40.3914 75.8528L40.4276 75.8329C40.4663 75.8119 40.5336 75.7943 40.5778 75.7943H41.4195C41.4637 75.7943 41.5313 75.8114 41.57 75.8323L41.6101 75.8536C41.6488 75.8745 41.7164 75.8916 41.7606 75.8916H42.1169C42.161 75.8916 42.1624 75.8811 42.1204 75.8683L41.6201 75.7162Z" fill="white"/>
<path d="M38 77.4448V76.3062H38.4546V76.7432L39.2048 76.3062H39.7741L38.9884 76.752L39.871 77.4448H39.324L38.6751 76.9241L38.4546 77.0498V77.4448H38Z" fill="white"/>
<path d="M39.9946 77.4448V76.3062H40.4447V77.2043H41.367V77.4448H39.9946Z" fill="white"/>
<path d="M41.6407 76.3062H42.0908V77.4448H41.6407V76.3062Z" fill="white"/>
<path d="M43.0044 76.9703H43.4765L43.2338 76.6196L43.0044 76.9703ZM42.2055 77.4448L43.0529 76.3062H43.4855L44.2973 77.4448H43.7987L43.6354 77.2043H42.8499L42.691 77.4448H42.2055Z" fill="white"/>
<path d="M39.3327 78.6738H39.1076V77.9567H39.3327V78.0516C39.3681 78.0119 39.4033 77.9832 39.4386 77.961C39.474 77.9457 39.5137 77.9325 39.5534 77.9325C39.5577 77.9325 39.5709 77.9325 39.5974 77.9368H39.6107V78.1266H39.5886H39.5445C39.4783 78.1266 39.4253 78.1421 39.3901 78.1861C39.3548 78.2258 39.3327 78.2832 39.3327 78.3539V78.6738Z" fill="white"/>
<path d="M40.2991 78.3032C40.2726 78.3164 40.2197 78.3296 40.1402 78.3362C40.1315 78.3386 40.1227 78.3406 40.1137 78.3406C40.0299 78.3494 39.9814 78.3627 39.9549 78.3716C39.9329 78.3869 39.9239 78.4024 39.9239 78.4288C39.9239 78.4553 39.9329 78.4818 39.9549 78.495C39.9769 78.5127 40.0078 78.5215 40.0432 78.5215C40.1227 78.5215 40.1844 78.4995 40.2329 78.4686C40.2771 78.4333 40.2991 78.3869 40.2991 78.3296V78.3121V78.3032ZM40.5198 78.5304C40.5198 78.5612 40.5198 78.5789 40.5241 78.5989C40.5331 78.6121 40.5374 78.6274 40.5506 78.6341V78.6453H40.308L40.2948 78.5702C40.2594 78.6076 40.2109 78.632 40.1624 78.6453C40.1137 78.6651 40.0565 78.6738 39.9946 78.6738C39.8932 78.6738 39.8137 78.6496 39.7563 78.6121C39.6989 78.5657 39.6724 78.5083 39.6724 78.4355C39.6724 78.3671 39.6989 78.3142 39.7519 78.2832C39.8005 78.2502 39.8887 78.226 40.0166 78.217C40.0299 78.2148 40.0565 78.2148 40.083 78.2105C40.2286 78.2083 40.2991 78.1751 40.2991 78.1311C40.2991 78.1046 40.2858 78.0824 40.2594 78.0692C40.2329 78.0559 40.1889 78.0494 40.1359 78.0494C40.0785 78.0494 40.0343 78.0604 40.0078 78.0759C39.9814 78.0979 39.9681 78.1288 39.9681 78.1685L39.7343 78.1708V78.1641C39.7343 78.0824 39.774 78.0185 39.8402 77.9765C39.9152 77.9303 40.0123 77.9103 40.1447 77.9103C40.2109 77.9103 40.2726 77.917 40.3212 77.9303C40.3742 77.9413 40.4139 77.961 40.4492 77.9832C40.4712 78.003 40.4933 78.0274 40.5021 78.0582C40.5109 78.0847 40.5198 78.1311 40.5198 78.1906V78.5304Z" fill="white"/>
<path d="M40.7051 78.6738V77.9567H40.9259V78.0649C40.9656 78.0229 41.0053 77.992 41.0538 77.97C41.1023 77.95 41.1552 77.9413 41.2082 77.9413C41.2656 77.9413 41.3186 77.9478 41.367 77.9677C41.4112 77.9898 41.4465 78.0162 41.4729 78.0516C41.4862 78.0759 41.4994 78.1046 41.5039 78.1354C41.5127 78.1641 41.5127 78.2148 41.5127 78.281V78.6738H41.2876V78.3296C41.2876 78.248 41.2788 78.1926 41.2524 78.1619C41.2304 78.1354 41.1906 78.1199 41.1332 78.1199C41.067 78.1199 41.0185 78.1376 40.9831 78.1708C40.9434 78.2083 40.9259 78.2567 40.9259 78.3207V78.6738H40.7051Z" fill="white"/>
<path d="M41.6672 78.4156H41.9055C41.9098 78.4465 41.9231 78.473 41.954 78.4885C41.9849 78.506 42.0379 78.5127 42.1086 78.5127C42.1526 78.5127 42.188 78.5083 42.2145 78.495C42.2452 78.484 42.2585 78.4686 42.2585 78.4465C42.2585 78.4288 42.2542 78.4156 42.2365 78.4068C42.2188 78.3981 42.1835 78.3936 42.1306 78.3891L41.932 78.3716C41.8569 78.3671 41.7996 78.3406 41.7554 78.3032C41.7113 78.2634 41.6892 78.2105 41.6892 78.1553C41.6892 78.0759 41.7245 78.014 41.7907 77.97C41.8569 77.9303 41.954 77.9103 42.0821 77.9103C42.2012 77.9103 42.2982 77.9303 42.3644 77.97C42.435 78.0119 42.466 78.067 42.466 78.1421V78.1464H42.2452C42.2409 78.1156 42.2188 78.0914 42.1923 78.0759C42.1658 78.0626 42.1261 78.0516 42.0688 78.0516C42.0247 78.0516 41.9894 78.0603 41.9629 78.0714C41.9365 78.0824 41.9231 78.1001 41.9231 78.1221C41.9231 78.1421 41.9365 78.1553 41.9629 78.1641C41.9849 78.1751 42.0334 78.1863 42.0909 78.1883L42.2497 78.2016C42.3247 78.2083 42.3866 78.226 42.4263 78.2634C42.4703 78.3009 42.4925 78.3494 42.4925 78.4156C42.4925 78.4974 42.4571 78.5612 42.3866 78.6076C42.3204 78.6496 42.2188 78.6738 42.0821 78.6738C41.954 78.6738 41.8526 78.6496 41.7819 78.6076C41.7113 78.5612 41.6715 78.4995 41.6672 78.4156Z" fill="white"/>
<path d="M42.6602 77.9567H42.8808V78.6738H42.6602V77.9567ZM42.8808 77.8883H42.6602V77.7138H42.8808V77.8883Z" fill="white"/>
<path d="M43.1368 77.7449H43.3619V77.9325H43.5295V78.1003H43.3619V78.4024C43.3619 78.4488 43.3662 78.4818 43.3707 78.4885C43.3839 78.495 43.4061 78.4995 43.4326 78.4995H43.5295V78.6738H43.3794C43.2912 78.6738 43.2295 78.6585 43.1941 78.6341C43.1544 78.6076 43.1368 78.5612 43.1368 78.4995V78.1003H43.0309V77.9325H43.1368V77.7449Z" fill="white"/>
<path d="M38.5515 77.7449H38.7766V77.9325H38.9444V78.1003H38.7766V78.4024C38.7766 78.4488 38.781 78.4818 38.7898 78.4885C38.7987 78.495 38.8207 78.4995 38.8517 78.4995H38.9444V78.6738H38.7943C38.7104 78.6738 38.6442 78.6585 38.6089 78.6341C38.5737 78.6076 38.5515 78.5612 38.5515 78.4995V78.1003H38.4456V77.9325H38.5515V77.7449Z" fill="white"/>
<path d="M51 95.7312C51 96.2927 50.5322 96.75 49.9542 96.75L32.0458 96.75C31.4676 96.75 31 96.2927 31 95.7312L31 86.5179C31 85.9551 31.4676 85.5 32.0458 85.5L49.9542 85.5C50.5322 85.5 51 85.9551 51 86.5179L51 95.7312Z" fill="#ED114C"/>
<path d="M42.5565 91.6721C42.2387 91.7248 42.0489 92.1412 42.0489 92.1412C43.0684 92.1379 43.0155 91.5377 43.0155 91.5377C42.9668 91.6065 42.5565 91.6721 42.5565 91.6721ZM39.1583 91.5377C39.1583 91.5377 39.1099 92.1379 40.125 92.1412C40.125 92.1412 39.935 91.7248 39.6173 91.6721C39.6173 91.6721 39.2069 91.6065 39.1583 91.5377ZM39.7629 89.0145C39.5114 89.0316 39.423 89.2619 39.423 89.2619C39.423 89.2619 39.1275 90.0076 40.4558 90.7393C40.4558 90.7393 40.8046 90.8899 41.0869 90.8899C41.3738 90.8899 41.718 90.7393 41.718 90.7393C43.042 90.0076 42.7507 89.2619 42.7507 89.2619C42.7507 89.2619 42.6624 89.0316 42.4065 89.0145C42.2962 89.0081 41.0869 89.0037 41.0869 89.0037C41.0869 89.0037 39.8777 89.0081 39.7629 89.0145ZM40.0631 92.9675C38.8495 92.6889 38.7876 92.3994 38.7876 91.2223C38.7876 90.0431 39.0967 88.8144 39.0967 88.8144C39.2466 87.9773 39.9307 88 39.9307 88L41.0826 88L42.2255 88C42.2255 88 42.9096 87.9773 43.0595 88.8144C43.0595 88.8144 43.3729 90.0431 43.3729 91.2223C43.3729 92.3994 43.3067 92.6889 42.0974 92.9675C42.0974 92.9675 41.7402 93.0676 41.0826 93.0676C40.4205 93.0676 40.0631 92.9675 40.0631 92.9675Z" fill="white"/>
<path d="M39.3128 92.8427L38.161 93.4366C37.583 93.6904 38.0021 93.6464 38.3595 93.6517C38.7966 93.6593 38.9819 93.6626 38.9819 93.6626C39.1364 93.6626 39.2026 93.6259 39.3615 93.4581L39.8159 92.9976C39.6262 92.9546 39.5379 92.9353 39.3128 92.8427Z" fill="white"/>
<path d="M42.8609 92.8427L44.0128 93.4366C44.5909 93.6904 44.1716 93.6464 43.8142 93.6517C43.3772 93.6593 43.1918 93.6626 43.1918 93.6626C43.0375 93.6626 42.9711 93.6259 42.8169 93.4581L42.3578 92.9976C42.552 92.9546 42.6358 92.9353 42.8609 92.8427Z" fill="white"/>
<path d="M42.3138 93.2128L42.4329 93.3279L39.7277 93.3279L39.8689 93.2128L42.3138 93.2128Z" fill="white"/>
<path d="M42.5741 93.4571L42.7286 93.6067L39.4453 93.6067L39.6041 93.4571L42.5741 93.4571Z" fill="white"/>
<path d="M51 111.281C51 111.858 50.5322 112.329 49.9542 112.329H32.0458C31.4676 112.329 31 111.858 31 111.281V101.798C31 101.219 31.4676 100.75 32.0458 100.75H49.9542C50.5322 100.75 51 101.219 51 101.798V111.281Z" fill="#0A8137"/>
<path d="M42.6815 107.109C42.3637 107.163 42.1739 107.592 42.1739 107.592C43.1934 107.588 43.1405 106.971 43.1405 106.971C43.0918 107.041 42.6815 107.109 42.6815 107.109ZM39.2833 106.971C39.2833 106.971 39.2349 107.588 40.25 107.592C40.25 107.592 40.06 107.163 39.7423 107.109C39.7423 107.109 39.3319 107.041 39.2833 106.971ZM39.8879 104.373C39.6364 104.391 39.548 104.628 39.548 104.628C39.548 104.628 39.2525 105.396 40.5808 106.149C40.5808 106.149 40.9296 106.304 41.2119 106.304C41.4988 106.304 41.843 106.149 41.843 106.149C43.167 105.396 42.8757 104.628 42.8757 104.628C42.8757 104.628 42.7874 104.391 42.5315 104.373C42.4212 104.367 41.2119 104.362 41.2119 104.362C41.2119 104.362 40.0027 104.367 39.8879 104.373ZM40.1881 108.442C38.9745 108.155 38.9126 107.857 38.9126 106.646C38.9126 105.432 39.2217 104.168 39.2217 104.168C39.3716 103.306 40.0557 103.329 40.0557 103.329H41.2076H42.3505C42.3505 103.329 43.0346 103.306 43.1845 104.168C43.1845 104.168 43.4979 105.432 43.4979 106.646C43.4979 107.857 43.4317 108.155 42.2224 108.442C42.2224 108.442 41.8652 108.545 41.2076 108.545C40.5455 108.545 40.1881 108.442 40.1881 108.442Z" fill="white"/>
<path d="M39.4378 108.314L38.286 108.925C37.708 109.186 38.1271 109.141 38.4845 109.146C38.9216 109.154 39.1069 109.157 39.1069 109.157C39.2614 109.157 39.3276 109.12 39.4865 108.947L39.9409 108.473C39.7512 108.429 39.6629 108.409 39.4378 108.314Z" fill="white"/>
<path d="M42.9859 108.314L44.1378 108.925C44.7159 109.186 44.2966 109.141 43.9392 109.146C43.5022 109.154 43.3168 109.157 43.3168 109.157C43.1625 109.157 43.0961 109.12 42.9419 108.947L42.4828 108.473C42.677 108.429 42.7608 108.409 42.9859 108.314Z" fill="white"/>
<path d="M42.4388 108.695L42.558 108.813H39.8528L39.9939 108.695H42.4388Z" fill="white"/>
<path d="M42.6991 108.946L42.8536 109.1H39.5703L39.7291 108.946H42.6991Z" fill="white"/>
<path d="M440 111.231C440 111.793 439.532 112.25 438.954 112.25L421.046 112.25C420.468 112.25 420 111.793 420 111.231L420 102.018C420 101.455 420.468 101 421.046 101L438.954 101C439.532 101 440 101.455 440 102.018L440 111.231Z" fill="#ED114C"/>
<path d="M431.556 107.172C431.239 107.225 431.049 107.641 431.049 107.641C432.068 107.638 432.015 107.038 432.015 107.038C431.967 107.106 431.556 107.172 431.556 107.172ZM428.158 107.038C428.158 107.038 428.11 107.638 429.125 107.641C429.125 107.641 428.935 107.225 428.617 107.172C428.617 107.172 428.207 107.106 428.158 107.038ZM428.763 104.514C428.511 104.532 428.423 104.762 428.423 104.762C428.423 104.762 428.127 105.508 429.456 106.239C429.456 106.239 429.805 106.39 430.087 106.39C430.374 106.39 430.718 106.239 430.718 106.239C432.042 105.508 431.751 104.762 431.751 104.762C431.751 104.762 431.662 104.532 431.407 104.514C431.296 104.508 430.087 104.504 430.087 104.504C430.087 104.504 428.878 104.508 428.763 104.514ZM429.063 108.467C427.849 108.189 427.788 107.899 427.788 106.722C427.788 105.543 428.097 104.314 428.097 104.314C428.247 103.477 428.931 103.5 428.931 103.5L430.083 103.5L431.226 103.5C431.226 103.5 431.91 103.477 432.06 104.314C432.06 104.314 432.373 105.543 432.373 106.722C432.373 107.899 432.307 108.189 431.097 108.467C431.097 108.467 430.74 108.568 430.083 108.568C429.421 108.568 429.063 108.467 429.063 108.467Z" fill="white"/>
<path d="M428.313 108.343L427.161 108.937C426.583 109.19 427.002 109.146 427.36 109.152C427.797 109.159 427.982 109.163 427.982 109.163C428.136 109.163 428.203 109.126 428.361 108.958L428.816 108.498C428.626 108.455 428.538 108.435 428.313 108.343Z" fill="white"/>
<path d="M431.861 108.343L433.013 108.937C433.591 109.19 433.172 109.146 432.814 109.152C432.377 109.159 432.192 109.163 432.192 109.163C432.038 109.163 431.971 109.126 431.817 108.958L431.358 108.498C431.552 108.455 431.636 108.435 431.861 108.343Z" fill="white"/>
<path d="M431.314 108.713L431.433 108.828L428.728 108.828L428.869 108.713L431.314 108.713Z" fill="white"/>
<path d="M431.574 108.957L431.729 109.107L428.445 109.107L428.604 108.957L431.574 108.957Z" fill="white"/>
</svg>
