<svg width="169" height="98" viewBox="0 0 169 98" fill="none" xmlns="http://www.w3.org/2000/svg">
<g clip-path="url(#clip0_47_29)">
<mask id="mask0_47_29" style="mask-type:luminance" maskUnits="userSpaceOnUse" x="-2305" y="-985" width="4033" height="5185">
<path d="M-2304.74 -984.849H1727.26V4199.15H-2304.74V-984.849Z" fill="white"/>
</mask>
<g mask="url(#mask0_47_29)">
<path d="M168.097 88.4847C168.097 93.298 164.187 97.218 159.355 97.218H9.64539C4.81205 97.218 0.90271 93.298 0.90271 88.4847V9.50733C0.90271 4.68333 4.81205 0.782001 9.64539 0.782001H159.355C164.187 0.782001 168.097 4.68333 168.097 9.50733V88.4847Z" fill="#539F84"/>
<path d="M98.7083 59.4514V62.0901H70.015V59.5354H67.3683C64.4536 59.5354 64.3336 56.4541 64.3336 56.4541L64.795 43.5607L66.5936 28.2501C66.5936 28.2501 82.863 18.6114 102.056 28.2501L103.855 43.5607L104.326 56.4541C104.326 56.4541 104.224 59.5354 101.3 59.5354H98.6443V62.0901H69.9416V59.4514" fill="white"/>
<path d="M98.7083 59.4514V62.0901H70.015V59.5354H67.3683C64.4536 59.5354 64.3336 56.4541 64.3336 56.4541L64.795 43.5607L66.5936 28.2501C66.5936 28.2501 82.863 18.6114 102.056 28.2501L103.855 43.5607L104.326 56.4541C104.326 56.4541 104.224 59.5354 101.3 59.5354H98.6443V62.0901H69.9416V59.4514" stroke="white" stroke-width="2.89733"/>
<path d="M100.396 57.211H90.5173V51.8988H100.396V57.211Z" fill="#539F84"/>
<path d="M78.472 57.211H68.604V51.8988H78.472V57.211Z" fill="#539F84"/>
<path d="M90.1585 61.5827H78.7132V58.4656H90.1585V61.5827Z" fill="#539F84"/>
<path d="M68.2539 31.053C68.2539 31.053 83.1953 19.5623 100.091 30.7956L101.789 43.2476H66.8699L68.2539 31.053Z" fill="#539F84"/>
<path d="M84.3393 25.9723V43.1363" stroke="white" stroke-width="2.89733"/>
<path d="M76.3145 61.5271L63.8172 74.0338" stroke="white" stroke-width="2.89733"/>
<path d="M92.6855 61.5271L105.183 74.0338" stroke="white" stroke-width="2.89733"/>
<path d="M71.8235 65.7964H96.6142" stroke="white" stroke-width="2.89733"/>
<path d="M67.6178 70.2339H101.227" stroke="white" stroke-width="2.89733"/>
</g>
</g>
<defs>
<clipPath id="clip0_47_29">
<rect width="167.195" height="96.436" fill="white" transform="translate(0.902679 0.781998)"/>
</clipPath>
</defs>
</svg>
