<?xml version="1.0" encoding="UTF-8" standalone="no"?>
<svg
   xmlns:dc="http://purl.org/dc/elements/1.1/"
   xmlns:cc="http://creativecommons.org/ns#"
   xmlns:rdf="http://www.w3.org/1999/02/22-rdf-syntax-ns#"
   xmlns:svg="http://www.w3.org/2000/svg"
   xmlns="http://www.w3.org/2000/svg"
   xmlns:sodipodi="http://sodipodi.sourceforge.net/DTD/sodipodi-0.dtd"
   xmlns:inkscape="http://www.inkscape.org/namespaces/inkscape"
   width="44.236919mm"
   height="25.515358mm"
   viewBox="0 0 44.236919 25.515358"
   version="1.1"
   id="svg14489"
   inkscape:version="1.0beta1 (fe3e306, 2019-09-17)"
   sodipodi:docname="Line7.svg">
  <defs
     id="defs14483">
    <clipPath
       id="clipPath12951"
       clipPathUnits="userSpaceOnUse">
      <path
         inkscape:connector-curvature="0"
         id="path12949"
         d="M 0,3888 H 3024 V 0 H 0 Z" />
    </clipPath>
  </defs>
  <sodipodi:namedview
     id="base"
     pagecolor="#ffffff"
     bordercolor="#666666"
     borderopacity="1.0"
     inkscape:pageopacity="0.0"
     inkscape:pageshadow="2"
     inkscape:zoom="7.6677089"
     inkscape:cx="91.553363"
     inkscape:cy="48.218005"
     inkscape:document-units="mm"
     inkscape:current-layer="g12947"
     inkscape:document-rotation="0"
     showgrid="false"
     inkscape:window-width="1886"
     inkscape:window-height="1030"
     inkscape:window-x="16"
     inkscape:window-y="0"
     inkscape:window-maximized="0" />
  <metadata
     id="metadata14486">
    <rdf:RDF>
      <cc:Work
         rdf:about="">
        <dc:format>image/svg+xml</dc:format>
        <dc:type
           rdf:resource="http://purl.org/dc/dcmitype/StillImage" />
        <dc:title />
      </cc:Work>
    </rdf:RDF>
  </metadata>
  <g
     inkscape:label="图层 1"
     inkscape:groupmode="layer"
     id="layer1"
     transform="translate(98.95678,219.43389)">
    <g
       style="opacity:1;stop-opacity:1"
       id="g12947"
       clip-path="url(#clipPath12951)"
       transform="matrix(0.35277777,0,0,-0.35277777,-708.99033,891.38464)">
      <g
         id="g12953"
         transform="translate(1854.625,3083)"
         style="fill:#3ea4b4;fill-opacity:1">
        <path
           d="m 0,0 c 0,-3.61 -2.933,-6.55 -6.557,-6.55 h -112.282 c -3.625,0 -6.557,2.94 -6.557,6.55 v 59.233 c 0,3.618 2.932,6.544 6.557,6.544 H -6.557 C -2.933,65.777 0,62.851 0,59.233 Z"
           style="fill:#3ea4b4;fill-opacity:1;fill-rule:nonzero;stroke:none"
           id="path12955"
           inkscape:connector-curvature="0" />
      </g>
      <g
         id="g12957"
         transform="translate(1796.1602,3088.3887)"
         style="fill:#ffffff;fill-opacity:1">
        <path
           d="m 0,0 c 0,-3.617 -2.933,-6.544 -6.529,-6.544 h -46.153 c -3.625,0 -6.53,2.927 -6.53,6.544 v 48.449 c 0,3.611 2.905,6.551 6.53,6.551 H -6.529 C -2.933,55 0,52.06 0,48.449 Z"
           style="fill:#ffffff;fill-opacity:1;fill-rule:nonzero;stroke:none"
           id="path12959"
           inkscape:connector-curvature="0" />
      </g>
      <g
         id="g13001"
         transform="translate(1887.9346,2125.9297)" />
      <g
         id="g13009"
         transform="translate(1896.1797,2138.7686)" />
      <text
         xml:space="preserve"
         style="font-style:normal;font-variant:normal;font-weight:bold;font-stretch:normal;font-size:56px;line-height:1.25;font-family:Arial;-inkscape-font-specification:'Arial Bold';fill:#231f20;fill-opacity:1;stroke-width:0.75"
         x="1750.5094"
         y="-3093.0781"
         id="text15245"
         transform="scale(1,-1)"><tspan
           sodipodi:role="line"
           id="tspan15243"
           x="1750.5094"
           y="-3093.0781"
           style="font-style:normal;font-variant:normal;font-weight:bold;font-stretch:normal;font-family:Arial;-inkscape-font-specification:'Arial Bold';fill:#231f20;fill-opacity:1;stroke-width:0.75">7</tspan></text>
      <g
         id="g19301"
         transform="translate(61.737134,1442.5832)">
        <g
           style="opacity:1;stop-opacity:1"
           id="g8236"
           transform="translate(1767.0479,1673.9678)">
          <path
             d="m 0,0 c -0.803,0 -1.438,-0.65 -1.438,-1.439 0,-0.789 0.635,-1.412 1.438,-1.412 0.774,0 1.411,0.623 1.411,1.412 C 1.411,-0.65 0.774,0 0,0 m -8.273,0 c -0.775,0 -1.412,-0.65 -1.412,-1.439 0,-0.789 0.637,-1.412 1.412,-1.412 0.802,0 1.411,0.623 1.411,1.412 C -6.862,-0.65 -7.471,0 -8.273,0 m 6.364,12.091 c 0,0.291 -0.249,0.554 -0.554,0.554 h -3.265 c -0.304,0 -0.553,-0.263 -0.553,-0.554 v -0.927 c 0,-0.276 0.249,-0.554 0.553,-0.554 h 3.265 c 0.305,0 0.554,0.278 0.554,0.554 z m 3.32,-3.334 c 0,0.803 -0.637,1.438 -1.438,1.438 h -8.329 c -0.775,0 -1.439,-0.635 -1.439,-1.438 V 6.253 c 0,-0.816 0.664,-1.425 1.439,-1.425 h 8.329 c 0.801,0 1.438,0.609 1.438,1.425 z M -9.27,-4.552 c -1.465,0.221 -2.268,1.771 -2.268,2.49 v 12.701 c 0,0.801 1.162,2.517 2.656,2.545 h 9.158 c 1.716,0 2.906,-1.744 2.906,-2.545 V -2.062 c 0,-0.719 -0.719,-2.269 -2.435,-2.49 z"
             style="fill:#ffffff;fill-opacity:1;fill-rule:nonzero;stroke:none"
             id="path8238"
             inkscape:connector-curvature="0" />
        </g>
        <g
           style="opacity:1;stop-opacity:1"
           id="g8240"
           transform="translate(1762.6758,1688.3418)">
          <path
             d="m 0,0 c 0,-0.498 -0.415,-0.899 -0.913,-0.899 -0.498,0 -0.913,0.401 -0.913,0.899 0,0.512 0.415,0.898 0.913,0.898 C -0.415,0.898 0,0.512 0,0"
             style="fill:#ffffff;fill-opacity:1;fill-rule:nonzero;stroke:none"
             id="path8242"
             inkscape:connector-curvature="0" />
        </g>
        <g
           style="opacity:1;stop-opacity:1"
           id="g8244"
           transform="translate(1764.9727,1688.3418)">
          <path
             d="m 0,0 c 0,-0.498 -0.388,-0.899 -0.913,-0.899 -0.471,0 -0.886,0.401 -0.886,0.899 0,0.512 0.415,0.898 0.886,0.898 C -0.388,0.898 0,0.512 0,0"
             style="fill:#ffffff;fill-opacity:1;fill-rule:nonzero;stroke:none"
             id="path8246"
             inkscape:connector-curvature="0" />
        </g>
        <g
           style="opacity:1;stop-opacity:1"
           id="g8248"
           transform="translate(1766.7246,1669.0762)">
          <path
             d="m 0,0 c -0.264,0.08 -0.705,0.146 -0.98,0.146 h -5.833 c -0.275,0 -0.716,-0.067 -0.98,-0.147 l -3.108,-0.952 c -0.264,-0.08 -0.254,-0.147 0.022,-0.147 h 2.234 c 0.276,0 0.7,0.11 0.941,0.243 l 0.227,0.125 c 0.243,0.132 0.665,0.242 0.942,0.242 h 5.277 c 0.277,0 0.701,-0.107 0.944,-0.238 l 0.251,-0.134 C 0.18,-0.993 0.604,-1.1 0.881,-1.1 h 2.234 c 0.276,0 0.285,0.066 0.022,0.146 z"
             style="fill:#ffffff;fill-opacity:1;fill-rule:nonzero;stroke:none"
             id="path8250"
             inkscape:connector-curvature="0" />
        </g>
        <g
           style="opacity:1;stop-opacity:1"
           id="g8252"
           transform="translate(1744.0273,1658.2373)">
          <path
             d="m 0,0 v 7.139 h 2.85 v -2.74 l 4.704,2.74 h 3.569 L 6.197,4.344 11.731,0 H 8.301 L 4.233,3.265 2.85,2.477 V 0 Z"
             style="fill:#ffffff;fill-opacity:1;fill-rule:nonzero;stroke:none"
             id="path8254"
             inkscape:connector-curvature="0" />
        </g>
        <g
           style="opacity:1;stop-opacity:1"
           id="g8256"
           transform="translate(1756.5332,1658.2373)">
          <path
             d="M 0,0 V 7.139 H 2.822 V 1.508 H 8.605 V 0 Z"
             style="fill:#ffffff;fill-opacity:1;fill-rule:nonzero;stroke:none"
             id="path8258"
             inkscape:connector-curvature="0" />
        </g>
        <path
           d="m 1766.854,1665.376 h 2.822 v -7.139 h -2.822 z"
           style="opacity:1;fill:#ffffff;fill-opacity:1;fill-rule:nonzero;stroke:none;stop-opacity:1"
           id="path8260"
           inkscape:connector-curvature="0" />
        <g
           style="opacity:1;stop-opacity:1"
           id="g8262"
           transform="translate(1775.4043,1661.2119)">
          <path
             d="M 0,0 H 2.96 L 1.438,2.199 Z m -5.009,-2.975 5.313,7.139 h 2.712 l 5.09,-7.139 H 4.98 l -1.024,1.508 h -4.925 l -0.996,-1.508 z"
             style="fill:#ffffff;fill-opacity:1;fill-rule:nonzero;stroke:none"
             id="path8264"
             inkscape:connector-curvature="0" />
        </g>
        <g
           style="opacity:1;stop-opacity:1"
           id="g8266"
           transform="translate(1752.3828,1650.5313)">
          <path
             d="M 0,0 H -1.411 V 4.496 H 0 V 3.901 c 0.222,0.249 0.443,0.429 0.664,0.568 0.222,0.096 0.471,0.179 0.72,0.179 0.027,0 0.11,0 0.276,-0.027 H 1.743 V 3.431 H 1.605 1.328 C 0.913,3.431 0.581,3.334 0.36,3.058 0.139,2.809 0,2.449 0,2.006 Z"
             style="fill:#ffffff;fill-opacity:1;fill-rule:nonzero;stroke:none"
             id="path8268"
             inkscape:connector-curvature="0" />
        </g>
        <g
           style="opacity:1;stop-opacity:1"
           id="g8270"
           transform="translate(1758.4424,1652.8555)">
          <path
             d="m 0,0 c -0.166,-0.083 -0.498,-0.166 -0.996,-0.207 -0.055,-0.015 -0.11,-0.028 -0.166,-0.028 -0.526,-0.055 -0.83,-0.138 -0.996,-0.194 -0.138,-0.096 -0.194,-0.193 -0.194,-0.359 0,-0.166 0.056,-0.332 0.194,-0.415 0.138,-0.111 0.332,-0.166 0.554,-0.166 0.498,0 0.885,0.138 1.189,0.332 C -0.138,-0.816 0,-0.525 0,-0.166 v 0.11 z m 1.384,-1.425 c 0,-0.193 0,-0.304 0.027,-0.429 0.056,-0.083 0.083,-0.179 0.166,-0.221 v -0.07 H 0.056 l -0.083,0.471 c -0.222,-0.235 -0.526,-0.388 -0.83,-0.471 -0.305,-0.124 -0.664,-0.179 -1.052,-0.179 -0.636,0 -1.134,0.152 -1.494,0.387 -0.36,0.291 -0.526,0.651 -0.526,1.107 0,0.429 0.166,0.761 0.498,0.955 0.305,0.207 0.858,0.359 1.66,0.415 0.083,0.014 0.25,0.014 0.416,0.041 C -0.442,0.595 0,0.803 0,1.079 0,1.245 -0.083,1.384 -0.249,1.467 -0.415,1.55 -0.691,1.591 -1.023,1.591 -1.383,1.591 -1.66,1.522 -1.826,1.425 -1.992,1.287 -2.075,1.093 -2.075,0.844 L -3.541,0.83 v 0.042 c 0,0.512 0.249,0.913 0.664,1.176 0.47,0.29 1.079,0.415 1.909,0.415 0.415,0 0.802,-0.042 1.107,-0.125 C 0.471,2.269 0.72,2.145 0.941,2.006 1.079,1.882 1.218,1.729 1.273,1.536 1.328,1.37 1.384,1.079 1.384,0.706 Z"
             style="fill:#ffffff;fill-opacity:1;fill-rule:nonzero;stroke:none"
             id="path8272"
             inkscape:connector-curvature="0" />
        </g>
        <g
           style="opacity:1;stop-opacity:1"
           id="g8274"
           transform="translate(1760.9883,1650.5313)">
          <path
             d="M 0,0 V 4.496 H 1.384 V 3.818 c 0.249,0.263 0.498,0.457 0.802,0.595 0.304,0.125 0.636,0.18 0.968,0.18 0.36,0 0.692,-0.041 0.996,-0.166 C 4.427,4.289 4.648,4.123 4.814,3.901 4.897,3.749 4.98,3.569 5.008,3.376 5.063,3.196 5.063,2.878 5.063,2.463 V 0 H 3.652 V 2.158 C 3.652,2.67 3.597,3.017 3.431,3.21 3.293,3.376 3.044,3.473 2.684,3.473 2.269,3.473 1.965,3.362 1.743,3.154 1.494,2.919 1.384,2.615 1.384,2.214 V 0 Z"
             style="fill:#ffffff;fill-opacity:1;fill-rule:nonzero;stroke:none"
             id="path8276"
             inkscape:connector-curvature="0" />
        </g>
        <g
           style="opacity:1;stop-opacity:1"
           id="g8278"
           transform="translate(1767.0205,1652.1504)">
          <path
             d="m 0,0 h 1.494 c 0.027,-0.194 0.11,-0.36 0.304,-0.457 0.194,-0.11 0.526,-0.152 0.969,-0.152 0.276,0 0.498,0.028 0.664,0.111 0.193,0.069 0.276,0.166 0.276,0.304 C 3.707,-0.083 3.68,0 3.569,0.055 3.458,0.11 3.237,0.138 2.905,0.166 L 1.66,0.276 C 1.189,0.304 0.83,0.47 0.553,0.705 0.276,0.954 0.138,1.286 0.138,1.632 c 0,0.498 0.221,0.886 0.636,1.162 0.415,0.249 1.024,0.374 1.827,0.374 0.747,0 1.355,-0.125 1.77,-0.374 C 4.814,2.531 5.008,2.186 5.008,1.715 V 1.688 H 3.624 C 3.597,1.881 3.458,2.033 3.292,2.13 3.126,2.213 2.877,2.282 2.518,2.282 2.241,2.282 2.02,2.228 1.854,2.158 1.688,2.089 1.604,1.978 1.604,1.84 1.604,1.715 1.688,1.632 1.854,1.577 1.992,1.508 2.296,1.438 2.656,1.425 L 3.652,1.342 C 4.122,1.3 4.51,1.189 4.759,0.954 5.035,0.719 5.174,0.415 5.174,0 5.174,-0.513 4.952,-0.913 4.51,-1.204 4.095,-1.467 3.458,-1.619 2.601,-1.619 1.798,-1.619 1.162,-1.467 0.719,-1.204 0.276,-0.913 0.027,-0.526 0,0"
             style="fill:#ffffff;fill-opacity:1;fill-rule:nonzero;stroke:none"
             id="path8280"
             inkscape:connector-curvature="0" />
        </g>
        <path
           d="m 1773.246,1655.027 h 1.383 v -4.496 h -1.383 z m 1.383,0.429 h -1.383 v 1.094 h 1.383 z"
           style="opacity:1;fill:#ffffff;fill-opacity:1;fill-rule:nonzero;stroke:none;stop-opacity:1"
           id="path8282"
           inkscape:connector-curvature="0" />
        <g
           style="opacity:1;stop-opacity:1"
           id="g8284"
           transform="translate(1776.2344,1656.3555)">
          <path
             d="M 0,0 H 1.411 V -1.176 H 2.462 V -2.228 H 1.411 v -1.894 c 0,-0.291 0.027,-0.498 0.055,-0.54 0.083,-0.041 0.222,-0.069 0.388,-0.069 H 2.462 V -5.824 H 1.521 c -0.553,0 -0.94,0.096 -1.162,0.249 C 0.11,-5.409 0,-5.118 0,-4.731 v 2.503 h -0.664 v 1.052 H 0 Z"
             style="fill:#ffffff;fill-opacity:1;fill-rule:nonzero;stroke:none"
             id="path8286"
             inkscape:connector-curvature="0" />
        </g>
        <g
           style="opacity:1;stop-opacity:1"
           id="g8288"
           transform="translate(1747.4854,1656.3555)">
          <path
             d="M 0,0 H 1.411 V -1.176 H 2.463 V -2.228 H 1.411 v -1.894 c 0,-0.291 0.028,-0.498 0.083,-0.54 0.056,-0.041 0.194,-0.069 0.388,-0.069 H 2.463 V -5.824 H 1.522 c -0.526,0 -0.941,0.096 -1.162,0.249 C 0.139,-5.409 0,-5.118 0,-4.731 v 2.503 h -0.664 v 1.052 H 0 Z"
             style="fill:#ffffff;fill-opacity:1;fill-rule:nonzero;stroke:none"
             id="path8290"
             inkscape:connector-curvature="0" />
        </g>
      </g>
    </g>
  </g>
</svg>
