<?xml version="1.0" encoding="UTF-8" standalone="no"?>
<svg
   xmlns:dc="http://purl.org/dc/elements/1.1/"
   xmlns:cc="http://creativecommons.org/ns#"
   xmlns:rdf="http://www.w3.org/1999/02/22-rdf-syntax-ns#"
   xmlns:svg="http://www.w3.org/2000/svg"
   xmlns="http://www.w3.org/2000/svg"
   xmlns:sodipodi="http://sodipodi.sourceforge.net/DTD/sodipodi-0.dtd"
   xmlns:inkscape="http://www.inkscape.org/namespaces/inkscape"
   sodipodi:docname="Line2.svg"
   inkscape:version="1.0beta1 (fe3e306, 2019-09-17)"
   id="svg14489"
   version="1.1"
   viewBox="0 0 44.236919 25.515358"
   height="25.515358mm"
   width="44.236919mm">
  <defs
     id="defs14483">
    <clipPath
       clipPathUnits="userSpaceOnUse"
       id="clipPath12951">
      <path
         d="M 0,3888 H 3024 V 0 H 0 Z"
         id="path12949"
         inkscape:connector-curvature="0" />
    </clipPath>
  </defs>
  <sodipodi:namedview
     inkscape:window-maximized="0"
     inkscape:window-y="0"
     inkscape:window-x="16"
     inkscape:window-height="1030"
     inkscape:window-width="1886"
     showgrid="false"
     inkscape:document-rotation="0"
     inkscape:current-layer="g12947"
     inkscape:document-units="mm"
     inkscape:cy="48.218005"
     inkscape:cx="83.597333"
     inkscape:zoom="7.6677089"
     inkscape:pageshadow="2"
     inkscape:pageopacity="0.0"
     borderopacity="1.0"
     bordercolor="#666666"
     pagecolor="#ffffff"
     id="base" />
  <metadata
     id="metadata14486">
    <rdf:RDF>
      <cc:Work
         rdf:about="">
        <dc:format>image/svg+xml</dc:format>
        <dc:type
           rdf:resource="http://purl.org/dc/dcmitype/StillImage" />
        <dc:title></dc:title>
      </cc:Work>
    </rdf:RDF>
  </metadata>
  <g
     transform="translate(98.95678,219.43389)"
     id="layer1"
     inkscape:groupmode="layer"
     inkscape:label="图层 1">
    <g
       transform="matrix(0.35277777,0,0,-0.35277777,-708.99033,891.38464)"
       clip-path="url(#clipPath12951)"
       id="g12947"
       style="opacity:1;stop-opacity:1">
      <g
         style="fill:#3ea4b4;fill-opacity:1"
         transform="translate(1854.625,3083)"
         id="g12953">
        <path
           inkscape:connector-curvature="0"
           id="path12955"
           style="fill:#ee2722;fill-opacity:1;fill-rule:nonzero;stroke:none"
           d="m 0,0 c 0,-3.61 -2.933,-6.55 -6.557,-6.55 h -112.282 c -3.625,0 -6.557,2.94 -6.557,6.55 v 59.233 c 0,3.618 2.932,6.544 6.557,6.544 H -6.557 C -2.933,65.777 0,62.851 0,59.233 Z" />
      </g>
      <g
         style="fill:#ffffff;fill-opacity:1"
         transform="translate(1796.1602,3088.3887)"
         id="g12957">
        <path
           inkscape:connector-curvature="0"
           id="path12959"
           style="fill:#ffffff;fill-opacity:1;fill-rule:nonzero;stroke:none"
           d="m 0,0 c 0,-3.617 -2.933,-6.544 -6.529,-6.544 h -46.153 c -3.625,0 -6.53,2.927 -6.53,6.544 v 48.449 c 0,3.611 2.905,6.551 6.53,6.551 H -6.529 C -2.933,55 0,52.06 0,48.449 Z" />
      </g>
      <g
         transform="translate(1887.9346,2125.9297)"
         id="g13001" />
      <g
         transform="translate(1896.1797,2138.7686)"
         id="g13009" />
      <text
         transform="scale(1,-1)"
         id="text15245"
         y="-3093.0781"
         x="1750.5094"
         style="font-style:normal;font-variant:normal;font-weight:bold;font-stretch:normal;font-size:56px;line-height:1.25;font-family:Arial;-inkscape-font-specification:'Arial Bold';fill:#231f20;fill-opacity:1;stroke-width:0.75"
         xml:space="preserve"><tspan
           style="font-style:normal;font-variant:normal;font-weight:bold;font-stretch:normal;font-family:Arial;-inkscape-font-specification:'Arial Bold';fill:#231f20;fill-opacity:1;stroke-width:0.75"
           y="-3093.0781"
           x="1750.5094"
           id="tspan15243"
           sodipodi:role="line">2</tspan></text>
      <g
         transform="translate(1830.1898,3093.8479)"
         id="g20138">
        <path
           inkscape:connector-curvature="0"
           id="path8574"
           style="fill:#ffffff;fill-opacity:1;fill-rule:nonzero;stroke:#ffffff;stroke-width:2.173;stroke-linecap:butt;stroke-linejoin:miter;stroke-miterlimit:4;stroke-dasharray:none;stroke-opacity:1"
           d="m 0,0 v -1.979 h -21.52 v 1.916 h -1.985 c -2.186,0 -2.276,2.311 -2.276,2.311 l 0.346,9.67 1.349,11.483 c 0,0 12.202,7.229 26.597,0 L 3.86,11.918 4.213,2.248 c 0,0 -0.076,-2.311 -2.269,-2.311 H -0.048 V -1.979 H -21.575 V 0"
           transform="translate(6.197677,15.1143)" />
        <path
           inkscape:connector-curvature="0"
           id="path8576"
           style="fill:#ee2722;fill-opacity:1;fill-rule:nonzero;stroke:none"
           d="m 1080.029,3491.847 h -7.409 v 3.984 h 7.409 z"
           transform="translate(-1072.6895,-3475.0244)" />
        <path
           inkscape:connector-curvature="0"
           id="path8578"
           style="fill:#ee2722;fill-opacity:1;fill-rule:nonzero;stroke:none"
           d="m 1063.586,3491.847 h -7.401 v 3.984 h 7.401 z"
           transform="translate(-1072.6895,-3475.0244)" />
        <path
           inkscape:connector-curvature="0"
           id="path8580"
           style="fill:#ee2722;fill-opacity:1;fill-rule:nonzero;stroke:none"
           d="m 1072.351,3488.568 h -8.584 v 2.338 h 8.584 z"
           transform="translate(-1072.6895,-3475.0244)" />
        <path
           inkscape:connector-curvature="0"
           id="path8584"
           style="fill:#ee2722;fill-opacity:1;fill-rule:nonzero;stroke:none"
           d="m 0,0 c 0,0 11.206,8.618 23.878,0.193 l 1.273,-9.339 H -1.038 Z"
           transform="translate(-16.643124,36.4131)" />
        <path
           inkscape:connector-curvature="0"
           id="path8588"
           style="fill:none;stroke:#ffffff;stroke-width:2.173;stroke-linecap:butt;stroke-linejoin:miter;stroke-miterlimit:4;stroke-dasharray:none;stroke-opacity:1"
           d="M 0,0 V -12.873"
           transform="translate(-4.5790733,40.223603)" />
        <path
           inkscape:connector-curvature="0"
           id="path8592"
           style="fill:none;stroke:#ffffff;stroke-width:2.173;stroke-linecap:butt;stroke-linejoin:miter;stroke-miterlimit:4;stroke-dasharray:none;stroke-opacity:1"
           d="M 0,0 -9.373,-9.38"
           transform="translate(-10.597673,13.5576)" />
        <path
           inkscape:connector-curvature="0"
           id="path8596"
           style="fill:none;stroke:#ffffff;stroke-width:2.173;stroke-linecap:butt;stroke-linejoin:miter;stroke-miterlimit:4;stroke-dasharray:none;stroke-opacity:1"
           d="M 0,0 9.373,-9.38"
           transform="translate(1.6805769,13.5576)" />
        <path
           inkscape:connector-curvature="0"
           id="path8600"
           style="fill:none;stroke:#ffffff;stroke-width:2.173;stroke-linecap:butt;stroke-linejoin:miter;stroke-miterlimit:4;stroke-dasharray:none;stroke-opacity:1"
           d="M 0,0 H 18.593"
           transform="translate(-13.965924,10.355497)" />
        <path
           inkscape:connector-curvature="0"
           id="path8604"
           style="fill:none;stroke:#ffffff;stroke-width:2.173;stroke-linecap:butt;stroke-linejoin:miter;stroke-miterlimit:4;stroke-dasharray:none;stroke-opacity:1"
           d="M 0,0 H 25.207"
           transform="translate(-17.120199,7.0274021)" />
      </g>
      <path
         d="m 1814.2684,3094.481 h 2.109 v -2.587 l 2.201,2.587 h 2.815 l -2.483,-2.58 2.58,-4.247 h -2.58 l -1.454,2.815 -1.079,-1.141 v -1.674 h -2.109 z"
         style="opacity:1;fill:#ffffff;fill-opacity:1;fill-rule:nonzero;stroke:none;stroke-width:0.999998;stop-opacity:1"
         id="path8608"
         inkscape:connector-curvature="0" />
      <path
         d="m 1821.7733,3094.481 h 6.385 v -1.688 h -2.152 v -5.139 h -2.095 v 5.139 h -2.138 z"
         style="opacity:1;fill:#ffffff;fill-opacity:1;fill-rule:nonzero;stroke:none;stroke-width:0.999998;stop-opacity:1"
         id="path8612"
         inkscape:connector-curvature="0" />
      <path
         d="m 1829.1405,3094.481 h 2.76 l 1.079,-4.157 1.058,4.157 h 2.76 v -6.827 h -1.722 v 5.187 l -1.321,-5.187 h -1.571 l -1.321,5.187 v -5.187 h -1.722 z"
         style="opacity:1;fill:#ffffff;fill-opacity:1;fill-rule:nonzero;stroke:none;stroke-width:0.999998;stop-opacity:1"
         id="path8616"
         inkscape:connector-curvature="0" />
    </g>
  </g>
</svg>
