<?xml version="1.0" encoding="UTF-8" standalone="no"?>
<svg
   xmlns:dc="http://purl.org/dc/elements/1.1/"
   xmlns:cc="http://creativecommons.org/ns#"
   xmlns:rdf="http://www.w3.org/1999/02/22-rdf-syntax-ns#"
   xmlns:svg="http://www.w3.org/2000/svg"
   xmlns="http://www.w3.org/2000/svg"
   xmlns:sodipodi="http://sodipodi.sourceforge.net/DTD/sodipodi-0.dtd"
   xmlns:inkscape="http://www.inkscape.org/namespaces/inkscape"
   width="44.236919mm"
   height="25.515358mm"
   viewBox="0 0 44.236919 25.515358"
   version="1.1"
   id="svg14489"
   inkscape:version="1.0beta1 (fe3e306, 2019-09-17)"
   sodipodi:docname="Line10.svg">
  <defs
     id="defs14483">
    <clipPath
       id="clipPath12951"
       clipPathUnits="userSpaceOnUse">
      <path
         inkscape:connector-curvature="0"
         id="path12949"
         d="M 0,3888 H 3024 V 0 H 0 Z" />
    </clipPath>
  </defs>
  <sodipodi:namedview
     id="base"
     pagecolor="#ffffff"
     bordercolor="#666666"
     borderopacity="1.0"
     inkscape:pageopacity="0.0"
     inkscape:pageshadow="2"
     inkscape:zoom="7.6677089"
     inkscape:cx="83.597333"
     inkscape:cy="48.218005"
     inkscape:document-units="mm"
     inkscape:current-layer="g12947"
     inkscape:document-rotation="0"
     showgrid="false"
     inkscape:window-width="1886"
     inkscape:window-height="1030"
     inkscape:window-x="16"
     inkscape:window-y="0"
     inkscape:window-maximized="0" />
  <metadata
     id="metadata14486">
    <rdf:RDF>
      <cc:Work
         rdf:about="">
        <dc:format>image/svg+xml</dc:format>
        <dc:type
           rdf:resource="http://purl.org/dc/dcmitype/StillImage" />
        <dc:title />
      </cc:Work>
    </rdf:RDF>
  </metadata>
  <g
     inkscape:label="图层 1"
     inkscape:groupmode="layer"
     id="layer1"
     transform="translate(98.95678,219.43389)">
    <g
       style="opacity:1;stop-opacity:1"
       id="g12947"
       clip-path="url(#clipPath12951)"
       transform="matrix(0.35277777,0,0,-0.35277777,-708.99033,891.38464)">
      <g
         id="g12953"
         transform="translate(1854.625,3083)"
         style="fill:#a0622b;fill-opacity:1">
        <path
           d="m 0,0 c 0,-3.61 -2.933,-6.55 -6.557,-6.55 h -112.282 c -3.625,0 -6.557,2.94 -6.557,6.55 v 59.233 c 0,3.618 2.932,6.544 6.557,6.544 H -6.557 C -2.933,65.777 0,62.851 0,59.233 Z"
           style="fill:#a0622b;fill-opacity:1;fill-rule:nonzero;stroke:none"
           id="path12955"
           inkscape:connector-curvature="0" />
      </g>
      <g
         id="g12957"
         transform="translate(1796.1602,3088.3887)"
         style="fill:#ffffff;fill-opacity:1">
        <path
           d="m 0,0 c 0,-3.617 -2.933,-6.544 -6.529,-6.544 h -46.153 c -3.625,0 -6.53,2.927 -6.53,6.544 v 48.449 c 0,3.611 2.905,6.551 6.53,6.551 H -6.529 C -2.933,55 0,52.06 0,48.449 Z"
           style="fill:#ffffff;fill-opacity:1;fill-rule:nonzero;stroke:none"
           id="path12959"
           inkscape:connector-curvature="0" />
      </g>
      <g
         id="g13001"
         transform="translate(1887.9346,2125.9297)" />
      <g
         id="g13009"
         transform="translate(1896.1797,2138.7686)" />
      <g
         style="font-style:normal;font-variant:normal;font-weight:bold;font-stretch:normal;font-size:56px;line-height:1.25;font-family:Arial;-inkscape-font-specification:'Arial Bold';fill:#231f20;fill-opacity:1;stroke-width:0.75"
         id="text15245"
         transform="scale(1,-1)"
         aria-label="10">
        <path
           id="path11921"
           style="font-style:normal;font-variant:normal;font-weight:bold;font-stretch:normal;font-family:Arial;-inkscape-font-specification:'Arial Bold';fill:#231f20;fill-opacity:1;stroke-width:0.75"
           d="m 1756.0485,-3093.0781 h -7.6836 v -28.9571 q -4.211,3.9375 -9.9258,5.8243 v -6.9727 q 3.0078,-0.9844 6.5351,-3.7187 3.5274,-2.7618 4.8399,-6.4258 h 6.2344 z" />
        <path
           id="path11923"
           style="font-style:normal;font-variant:normal;font-weight:bold;font-stretch:normal;font-family:Arial;-inkscape-font-specification:'Arial Bold';fill:#231f20;fill-opacity:1;stroke-width:0.75"
           d="m 1780.5485,-3133.3281 q 5.8242,0 9.1054,4.1562 3.9102,4.9219 3.9102,16.3242 0,11.375 -3.9375,16.3516 -3.2539,4.1016 -9.0781,4.1016 -5.8516,0 -9.4336,-4.4844 -3.5821,-4.5117 -3.5821,-16.0508 0,-11.3203 3.9375,-16.2969 3.2539,-4.1015 9.0782,-4.1015 z m 0,6.3711 q -1.3946,0 -2.4883,0.9023 -1.0938,0.875 -1.6953,3.1719 -0.793,2.9805 -0.793,10.0351 0,7.0547 0.7109,9.7071 0.711,2.625 1.7774,3.5 1.0937,0.875 2.4883,0.875 1.3945,0 2.4882,-0.875 1.0938,-0.9024 1.6954,-3.1992 0.7929,-2.9532 0.7929,-10.0079 0,-7.0546 -0.7109,-9.6796 -0.711,-2.6524 -1.8047,-3.5274 -1.0664,-0.9023 -2.4609,-0.9023 z" />
      </g>
      <g
         id="g20138"
         transform="translate(1830.1898,3093.8479)">
        <path
           transform="translate(6.197677,15.1143)"
           d="m 0,0 v -1.979 h -21.52 v 1.916 h -1.985 c -2.186,0 -2.276,2.311 -2.276,2.311 l 0.346,9.67 1.349,11.483 c 0,0 12.202,7.229 26.597,0 L 3.86,11.918 4.213,2.248 c 0,0 -0.076,-2.311 -2.269,-2.311 H -0.048 V -1.979 H -21.575 V 0"
           style="fill:#ffffff;fill-opacity:1;fill-rule:nonzero;stroke:#ffffff;stroke-width:2.173;stroke-linecap:butt;stroke-linejoin:miter;stroke-miterlimit:4;stroke-dasharray:none;stroke-opacity:1"
           id="path8574"
           inkscape:connector-curvature="0" />
        <path
           transform="translate(-1072.6895,-3475.0244)"
           d="m 1080.029,3491.847 h -7.409 v 3.984 h 7.409 z"
           style="fill:#a0622b;fill-opacity:1;fill-rule:nonzero;stroke:none"
           id="path8576"
           inkscape:connector-curvature="0" />
        <path
           transform="translate(-1072.6895,-3475.0244)"
           d="m 1063.586,3491.847 h -7.401 v 3.984 h 7.401 z"
           style="fill:#a0622b;fill-opacity:1;fill-rule:nonzero;stroke:none"
           id="path8578"
           inkscape:connector-curvature="0" />
        <path
           transform="translate(-1072.6895,-3475.0244)"
           d="m 1072.351,3488.568 h -8.584 v 2.338 h 8.584 z"
           style="fill:#a0622b;fill-opacity:1;fill-rule:nonzero;stroke:none"
           id="path8580"
           inkscape:connector-curvature="0" />
        <path
           transform="translate(-16.643124,36.4131)"
           d="m 0,0 c 0,0 11.206,8.618 23.878,0.193 l 1.273,-9.339 H -1.038 Z"
           style="fill:#a0622b;fill-opacity:1;fill-rule:nonzero;stroke:none"
           id="path8584"
           inkscape:connector-curvature="0" />
        <path
           transform="translate(-4.5790733,40.223603)"
           d="M 0,0 V -12.873"
           style="fill:none;stroke:#ffffff;stroke-width:2.173;stroke-linecap:butt;stroke-linejoin:miter;stroke-miterlimit:4;stroke-dasharray:none;stroke-opacity:1"
           id="path8588"
           inkscape:connector-curvature="0" />
        <path
           transform="translate(-10.597673,13.5576)"
           d="M 0,0 -9.373,-9.38"
           style="fill:none;stroke:#ffffff;stroke-width:2.173;stroke-linecap:butt;stroke-linejoin:miter;stroke-miterlimit:4;stroke-dasharray:none;stroke-opacity:1"
           id="path8592"
           inkscape:connector-curvature="0" />
        <path
           transform="translate(1.6805769,13.5576)"
           d="M 0,0 9.373,-9.38"
           style="fill:none;stroke:#ffffff;stroke-width:2.173;stroke-linecap:butt;stroke-linejoin:miter;stroke-miterlimit:4;stroke-dasharray:none;stroke-opacity:1"
           id="path8596"
           inkscape:connector-curvature="0" />
        <path
           transform="translate(-13.965924,10.355497)"
           d="M 0,0 H 18.593"
           style="fill:none;stroke:#ffffff;stroke-width:2.173;stroke-linecap:butt;stroke-linejoin:miter;stroke-miterlimit:4;stroke-dasharray:none;stroke-opacity:1"
           id="path8600"
           inkscape:connector-curvature="0" />
        <path
           transform="translate(-17.120199,7.0274021)"
           d="M 0,0 H 25.207"
           style="fill:none;stroke:#ffffff;stroke-width:2.173;stroke-linecap:butt;stroke-linejoin:miter;stroke-miterlimit:4;stroke-dasharray:none;stroke-opacity:1"
           id="path8604"
           inkscape:connector-curvature="0" />
      </g>
      <path
         inkscape:connector-curvature="0"
         id="path8608"
         style="opacity:1;fill:#ffffff;fill-opacity:1;fill-rule:nonzero;stroke:none;stroke-width:0.999998;stop-opacity:1"
         d="m 1814.2684,3094.481 h 2.109 v -2.587 l 2.201,2.587 h 2.815 l -2.483,-2.58 2.58,-4.247 h -2.58 l -1.454,2.815 -1.079,-1.141 v -1.674 h -2.109 z" />
      <path
         inkscape:connector-curvature="0"
         id="path8612"
         style="opacity:1;fill:#ffffff;fill-opacity:1;fill-rule:nonzero;stroke:none;stroke-width:0.999998;stop-opacity:1"
         d="m 1821.7733,3094.481 h 6.385 v -1.688 h -2.152 v -5.139 h -2.095 v 5.139 h -2.138 z" />
      <path
         inkscape:connector-curvature="0"
         id="path8616"
         style="opacity:1;fill:#ffffff;fill-opacity:1;fill-rule:nonzero;stroke:none;stroke-width:0.999998;stop-opacity:1"
         d="m 1829.1405,3094.481 h 2.76 l 1.079,-4.157 1.058,4.157 h 2.76 v -6.827 h -1.722 v 5.187 l -1.321,-5.187 h -1.571 l -1.321,5.187 v -5.187 h -1.722 z" />
    </g>
  </g>
</svg>
