<?xml version="1.0" encoding="UTF-8" standalone="no"?>
<svg
   xmlns:dc="http://purl.org/dc/elements/1.1/"
   xmlns:cc="http://creativecommons.org/ns#"
   xmlns:rdf="http://www.w3.org/1999/02/22-rdf-syntax-ns#"
   xmlns:svg="http://www.w3.org/2000/svg"
   xmlns="http://www.w3.org/2000/svg"
   xmlns:sodipodi="http://sodipodi.sourceforge.net/DTD/sodipodi-0.dtd"
   xmlns:inkscape="http://www.inkscape.org/namespaces/inkscape"
   sodipodi:docname="Line11.svg"
   inkscape:version="1.0beta1 (fe3e306, 2019-09-17)"
   id="svg14489"
   version="1.1"
   viewBox="0 0 44.236919 25.515358"
   height="25.515358mm"
   width="44.236919mm">
  <defs
     id="defs14483">
    <clipPath
       clipPathUnits="userSpaceOnUse"
       id="clipPath12951">
      <path
         d="M 0,3888 H 3024 V 0 H 0 Z"
         id="path12949"
         inkscape:connector-curvature="0" />
    </clipPath>
  </defs>
  <sodipodi:namedview
     inkscape:window-maximized="0"
     inkscape:window-y="0"
     inkscape:window-x="0"
     inkscape:window-height="1030"
     inkscape:window-width="1920"
     showgrid="false"
     inkscape:document-rotation="0"
     inkscape:current-layer="g12947"
     inkscape:document-units="mm"
     inkscape:cy="48.218005"
     inkscape:cx="83.597333"
     inkscape:zoom="7.8710646"
     inkscape:pageshadow="2"
     inkscape:pageopacity="0.0"
     borderopacity="1.0"
     bordercolor="#666666"
     pagecolor="#ffffff"
     id="base" />
  <metadata
     id="metadata14486">
    <rdf:RDF>
      <cc:Work
         rdf:about="">
        <dc:format>image/svg+xml</dc:format>
        <dc:type
           rdf:resource="http://purl.org/dc/dcmitype/StillImage" />
        <dc:title />
      </cc:Work>
    </rdf:RDF>
  </metadata>
  <g
     transform="translate(98.95678,219.43389)"
     id="layer1"
     inkscape:groupmode="layer"
     inkscape:label="图层 1">
    <g
       transform="matrix(0.35277777,0,0,-0.35277777,-708.99033,891.38464)"
       clip-path="url(#clipPath12951)"
       id="g12947"
       style="opacity:1;stop-opacity:1">
      <g
         style="fill:#87cefa;fill-opacity:1"
         transform="translate(1854.625,3083)"
         id="g12953">
        <path
           inkscape:connector-curvature="0"
           id="path12955"
           style="fill:#87cefa;fill-opacity:1;fill-rule:nonzero;stroke:none"
           d="m 0,0 c 0,-3.61 -2.933,-6.55 -6.557,-6.55 h -112.282 c -3.625,0 -6.557,2.94 -6.557,6.55 v 59.233 c 0,3.618 2.932,6.544 6.557,6.544 H -6.557 C -2.933,65.777 0,62.851 0,59.233 Z" />
      </g>
      <g
         style="fill:#ffffff;fill-opacity:1"
         transform="translate(1796.1602,3088.3887)"
         id="g12957">
        <path
           inkscape:connector-curvature="0"
           id="path12959"
           style="fill:#ffffff;fill-opacity:1;fill-rule:nonzero;stroke:none"
           d="m 0,0 c 0,-3.617 -2.933,-6.544 -6.529,-6.544 h -46.153 c -3.625,0 -6.53,2.927 -6.53,6.544 v 48.449 c 0,3.611 2.905,6.551 6.53,6.551 H -6.529 C -2.933,55 0,52.06 0,48.449 Z" />
      </g>
      <g
         id="g15259">
        <g
           id="g12969"
           transform="translate(1832.9326,3108.2139)">
          <path
             d="m 0,0 c -1.992,-0.339 -3.182,-3.016 -3.182,-3.016 6.392,0.021 6.06,3.88 6.06,3.88 C 2.573,0.422 0,0 0,0 m -21.306,0.864 c 0,0 -0.303,-3.859 6.061,-3.88 0,0 -1.191,2.677 -3.183,3.016 0,0 -2.573,0.422 -2.878,0.864 m 3.791,16.222 c -1.577,-0.11 -2.131,-1.591 -2.131,-1.591 0,0 -1.853,-4.794 6.475,-9.498 0,0 2.187,-0.968 3.957,-0.968 1.799,0 3.957,0.968 3.957,0.968 8.301,4.704 6.475,9.498 6.475,9.498 0,0 -0.554,1.481 -2.158,1.591 -0.692,0.041 -8.274,0.069 -8.274,0.069 0,0 -7.581,-0.028 -8.301,-0.069 m 1.882,-25.414 c -7.609,1.791 -7.997,3.652 -7.997,11.22 0,7.581 1.938,15.48 1.938,15.48 0.94,5.382 5.229,5.236 5.229,5.236 h 7.222 7.166 c 0,0 4.289,0.146 5.229,-5.236 0,0 1.965,-7.899 1.965,-15.48 0,-7.568 -0.415,-9.429 -7.997,-11.22 0,0 -2.24,-0.644 -6.363,-0.644 -4.151,0 -6.392,0.644 -6.392,0.644"
             style="fill:#ffffff;fill-opacity:1;fill-rule:nonzero;stroke:none"
             id="path12971"
             inkscape:connector-curvature="0" />
        </g>
        <g
           id="g12973"
           transform="translate(1812.5957,3100.6875)">
          <path
             d="m 0,0 -7.222,-3.818 c -3.624,-1.632 -0.996,-1.349 1.245,-1.383 2.74,-0.049 3.902,-0.07 3.902,-0.07 0.969,0 1.384,0.236 2.38,1.315 l 2.849,2.96 C 1.965,-0.719 1.411,-0.595 0,0"
             style="fill:#ffffff;fill-opacity:1;fill-rule:nonzero;stroke:none"
             id="path12975"
             inkscape:connector-curvature="0" />
        </g>
        <g
           id="g12977"
           transform="translate(1834.8418,3100.6875)">
          <path
             d="m 0,0 7.222,-3.818 c 3.625,-1.632 0.996,-1.349 -1.245,-1.383 -2.74,-0.049 -3.902,-0.07 -3.902,-0.07 -0.968,0 -1.384,0.236 -2.351,1.315 l -2.878,2.96 C -1.937,-0.719 -1.411,-0.595 0,0"
             style="fill:#ffffff;fill-opacity:1;fill-rule:nonzero;stroke:none"
             id="path12979"
             inkscape:connector-curvature="0" />
        </g>
        <g
           id="g12981"
           transform="translate(1831.4111,3098.3086)">
          <path
             d="M 0,0 0.747,-0.74 H -16.214 L -15.329,0 Z"
             style="fill:#ffffff;fill-opacity:1;fill-rule:nonzero;stroke:none"
             id="path12983"
             inkscape:connector-curvature="0" />
        </g>
        <g
           id="g12985"
           transform="translate(1833.043,3096.7383)">
          <path
             d="M 0,0 0.969,-0.962 H -19.617 L -18.621,0 Z"
             style="fill:#ffffff;fill-opacity:1;fill-rule:nonzero;stroke:none"
             id="path12987"
             inkscape:connector-curvature="0" />
        </g>
      </g>
      <g
         transform="translate(1887.9346,2125.9297)"
         id="g13001" />
      <g
         transform="translate(1896.1797,2138.7686)"
         id="g13009" />
      <g
         style="font-style:normal;font-variant:normal;font-weight:bold;font-stretch:normal;font-size:56px;line-height:1.25;font-family:Arial;-inkscape-font-specification:'Arial Bold';fill:#231f20;fill-opacity:1;stroke-width:0.75"
         id="text15245"
         transform="scale(1,-1)"
         aria-label="11">
        <path
           id="path8255"
           style="font-style:normal;font-variant:normal;font-weight:bold;font-stretch:normal;font-family:Arial;-inkscape-font-specification:'Arial Bold';fill:#231f20;fill-opacity:1;stroke-width:0.75"
           d="m 1761.0116,-3093.0781 h -7.6836 v -28.9571 q -4.2109,3.9375 -9.9258,5.8243 v -6.9727 q 3.0078,-0.9844 6.5352,-3.7187 3.5273,-2.7618 4.8398,-6.4258 h 6.2344 z" />
        <path
           id="path8257"
           style="font-style:normal;font-variant:normal;font-weight:bold;font-stretch:normal;font-family:Arial;-inkscape-font-specification:'Arial Bold';fill:#231f20;fill-opacity:1;stroke-width:0.75"
           d="m 1789.121,-3093.0781 h -7.6836 v -28.9571 q -4.211,3.9375 -9.9258,5.8243 v -6.9727 q 3.0078,-0.9844 6.5352,-3.7187 3.5273,-2.7618 4.8398,-6.4258 h 6.2344 z" />
      </g>
    </g>
  </g>
</svg>
